<svg width="30" height="30" viewBox="0 0 30 30" fill="none" xmlns="http://www.w3.org/2000/svg">
<path d="M29.5496 18.6321C28.8314 21.5104 27.2759 24.1111 25.0799 26.1052C22.8839 28.0994 20.146 29.3976 17.2123 29.8356C14.2787 30.2736 11.281 29.8318 8.59846 28.5659C5.91587 27.3001 3.66881 25.2672 2.14139 22.7242C0.613972 20.1812 -0.125203 17.2423 0.0173307 14.2792C0.159864 11.3161 1.1777 8.46173 2.94215 6.07712C4.7066 3.69251 7.13841 1.8847 9.9301 0.88229C12.7218 -0.120122 15.748 -0.272123 18.6261 0.445507C20.5374 0.922094 22.3362 1.77059 23.9196 2.94255C25.5031 4.1145 26.8402 5.58694 27.8545 7.27578C28.8689 8.96463 29.5407 10.8368 29.8316 12.7853C30.1224 14.7339 30.0266 16.7206 29.5496 18.6321Z" fill="#82BF79"/>
</svg>
