<svg width="76" height="76" viewBox="0 0 76 76" fill="none" xmlns="http://www.w3.org/2000/svg">
<path fill-rule="evenodd" clip-rule="evenodd" d="M13.631 58.5621C8.42598 52.849 5.25949 45.3063 5.25949 37.0362C5.25949 19.2012 19.9789 4.74304 38.1361 4.74304C56.2935 4.74304 71.0129 19.2012 71.0129 37.0362C71.0129 49.647 63.6512 60.5649 52.921 65.8812C46.3558 69.3039 38.8662 71.243 30.9156 71.243C21.1739 71.243 12.124 68.3319 4.61914 63.3471C4.61914 63.3471 9.65189 62.7982 13.6297 58.5634L13.631 58.5621ZM53.5801 53.0185C62.0858 44.5132 62.0858 30.7232 53.5801 22.2176C49.636 18.2737 44.5557 16.1598 39.393 15.8737C39.2372 12.0002 41.3222 9.38297 41.3324 9.37021L41.3303 9.37062L41.3319 9.36856C35.3982 10.5148 29.7321 13.3855 25.1374 17.9802C21.6137 21.5037 19.1048 25.6576 17.609 30.0786C17.828 29.4988 18.0721 28.9262 18.3414 28.3629C18.0314 29.1534 17.7513 29.9613 17.498 30.7878C15.007 38.3496 16.7652 47.0047 22.779 53.0185C31.2847 61.5242 45.0747 61.5242 53.5801 53.0185Z" fill="white"/>
<path fill-rule="evenodd" clip-rule="evenodd" d="M27.123 35.3795V38.0852V39.8875C27.123 41.6865 28.5813 43.1448 30.3804 43.1448C32.1794 43.1448 33.6375 41.6865 33.6375 39.8875V38.0825V35.3795C33.6375 33.5808 32.1794 32.1221 30.3804 32.1221C28.5813 32.1221 27.123 33.5808 27.123 35.3795Z" fill="white"/>
<path fill-rule="evenodd" clip-rule="evenodd" d="M43.2441 35.3795V38.0852V39.8875C43.2441 41.6865 44.7025 43.1448 46.5014 43.1448C48.3004 43.1448 49.7588 41.6865 49.7588 39.8875V38.0825V35.3795C49.7588 33.5808 48.3004 32.1221 46.5014 32.1221C44.7025 32.1221 43.2441 33.5808 43.2441 35.3795Z" fill="white"/>
</svg>
