<svg width="24" height="24" viewBox="0 0 24 24" fill="none" xmlns="http://www.w3.org/2000/svg">
<rect width="24" height="24" fill="#01142C"/>
<path d="M2.09368 11.0866C2.04287 10.5023 2.50345 10 3.08992 10H4.99919C5.55149 10 5.99919 10.4477 5.99919 11V20.5C5.99919 21.0523 5.55149 21.5 4.99919 21.5H3.916C3.3973 21.5 2.9647 21.1034 2.91976 20.5867L2.09368 11.0866Z" fill="#0DDCAA" stroke="#0DDCAA" stroke-width="2" stroke-linecap="round" stroke-linejoin="round"/>
<path d="M9 10.6873C9 10.2694 9.2597 9.8954 9.63765 9.71725C10.4619 9.3287 11.8665 8.5469 12.5 7.49025C13.3166 6.12845 13.4705 3.66798 13.4956 3.10439C13.4991 3.0255 13.4969 2.94651 13.5077 2.86828C13.6431 1.89223 15.5272 3.03246 16.25 4.23806C16.6423 4.89236 16.6926 5.752 16.6514 6.42315C16.6072 7.14125 16.3966 7.83495 16.1901 8.52415L15.75 9.99225H21.1784C21.8416 9.99225 22.3211 10.6259 22.1408 11.264L19.4557 20.7718C19.334 21.2025 18.9409 21.5 18.4933 21.5H10C9.4477 21.5 9 21.0523 9 20.5V10.6873Z" fill="#0DDCAA" stroke="#0DDCAA" stroke-width="2" stroke-linecap="round" stroke-linejoin="round"/>
</svg>
