<svg width="16" height="16" viewBox="0 0 16 16" fill="none" xmlns="http://www.w3.org/2000/svg">
<path fill-rule="evenodd" clip-rule="evenodd" d="M8 15.5C12.1421 15.5 15.5 12.1421 15.5 8C15.5 3.85786 12.1421 0.5 8 0.5C3.85786 0.5 0.5 3.85786 0.5 8C0.5 12.1421 3.85786 15.5 8 15.5ZM4.79467 4.20535C4.63195 4.04263 4.36813 4.04263 4.20541 4.20535C4.04269 4.36807 4.04269 4.63189 4.20541 4.79461L7.41079 7.99998L4.20541 11.2054C4.04269 11.3681 4.04269 11.6319 4.20541 11.7946C4.36813 11.9573 4.63195 11.9573 4.79467 11.7946L8.00004 8.58924L11.2054 11.7946C11.3681 11.9573 11.632 11.9573 11.7947 11.7946C11.9574 11.6319 11.9574 11.3681 11.7947 11.2054L8.5893 7.99998L11.7947 4.79461C11.9574 4.63189 11.9574 4.36807 11.7947 4.20535C11.632 4.04263 11.3681 4.04263 11.2054 4.20535L8.00004 7.41072L4.79467 4.20535Z" fill="#D34176"/>
</svg>
