<svg width="550" height="104" viewBox="0 0 550 104" fill="none" xmlns="http://www.w3.org/2000/svg">
<g filter="url(#filter0_d_307_11005)">
<path d="M49.68 7.35999C55.2 7.35999 59.72 8.11999 63.24 9.64C66.76 11.16 69.92 13 72.72 15.16C73.6 15.88 74.4 16.24 75.12 16.24C76.64 16.24 77.64 13.84 78.12 9.04H80.88C80.72 12.16 80.6 16 80.52 20.56C80.44 25.12 80.4 31.12 80.4 38.56H77.64C77.08 33.28 76.16 28.8 74.88 25.12C73.6 21.36 71.16 18.16 67.56 15.52C65.72 14 63.52 12.84 60.96 12.04C58.48 11.16 56 10.72 53.52 10.72C49.04 10.72 45.24 11.96 42.12 14.44C39.08 16.84 36.6 20.04 34.68 24.04C32.76 27.96 31.36 32.36 30.48 37.24C29.68 42.04 29.28 46.88 29.28 51.76C29.28 66.16 31.12 76.68 34.8 83.32C38.56 89.96 43.76 93.28 50.4 93.28C52 93.28 53.4 93.12 54.6 92.8C55.8 92.4 56.8 91.92 57.6 91.36C58.64 90.64 59.36 89.8 59.76 88.84C60.16 87.88 60.36 86.68 60.36 85.24V73.36C60.36 69.6 60.04 66.8 59.4 64.96C58.76 63.04 57.56 61.76 55.8 61.12C54.12 60.4 51.6 60 48.24 59.92V57.52C50 57.6 52.12 57.68 54.6 57.76C57.08 57.76 59.68 57.8 62.4 57.88C65.12 57.88 67.64 57.88 69.96 57.88C73.56 57.88 76.84 57.84 79.8 57.76C82.84 57.68 85.32 57.6 87.24 57.52V59.92C85.8 60 84.68 60.28 83.88 60.76C83.16 61.24 82.68 62.2 82.44 63.64C82.2 65.08 82.08 67.28 82.08 70.24V94H79.68C79.6 92.64 79.28 91.16 78.72 89.56C78.16 87.96 77.24 87.16 75.96 87.16C75.4 87.16 74.6 87.32 73.56 87.64C72.52 87.96 70.88 88.68 68.64 89.8C65.68 91.4 62.48 92.8 59.04 94C55.68 95.12 52.24 95.68 48.72 95.68C39.04 95.68 30.92 93.96 24.36 90.52C17.88 87.08 13 82.16 9.72 75.76C6.44 69.28 4.8 61.48 4.8 52.36C4.8 43.32 6.72 35.44 10.56 28.72C14.4 22 19.68 16.76 26.4 13C33.2 9.23999 40.96 7.35999 49.68 7.35999ZM90.7341 9.04C92.8941 9.12 95.7741 9.2 99.3741 9.28C102.974 9.36 106.574 9.39999 110.174 9.39999C114.094 9.39999 117.854 9.36 121.454 9.28C125.134 9.2 127.734 9.16 129.254 9.16C137.094 9.16 143.534 9.96 148.574 11.56C153.694 13.16 157.534 15.52 160.094 18.64C162.654 21.68 163.934 25.48 163.934 30.04C163.934 32.92 163.334 35.76 162.134 38.56C161.014 41.28 159.054 43.8 156.254 46.12C153.534 48.44 149.734 50.28 144.854 51.64C140.054 53 133.974 53.68 126.614 53.68H115.094V51.28H125.414C129.814 51.28 133.134 50.4 135.374 48.64C137.694 46.8 139.254 44.4 140.054 41.44C140.934 38.4 141.374 35.04 141.374 31.36C141.374 25.04 140.374 20.16 138.374 16.72C136.374 13.2 132.974 11.44 128.174 11.44C125.214 11.44 123.294 12.12 122.414 13.48C121.614 14.84 121.214 17.6 121.214 21.76V81.28C121.214 84.16 121.414 86.32 121.814 87.76C122.294 89.2 123.134 90.16 124.334 90.64C125.614 91.12 127.494 91.44 129.974 91.6V94C127.734 93.84 124.854 93.76 121.334 93.76C117.894 93.68 114.414 93.64 110.894 93.64C106.814 93.64 102.974 93.68 99.3741 93.76C95.7741 93.76 92.8941 93.84 90.7341 94V91.6C93.2141 91.44 95.0541 91.12 96.2541 90.64C97.5341 90.16 98.3741 89.2 98.7741 87.76C99.2541 86.32 99.4941 84.16 99.4941 81.28V21.76C99.4941 18.8 99.2541 16.64 98.7741 15.28C98.3741 13.84 97.5341 12.88 96.2541 12.4C95.0541 11.84 93.2141 11.52 90.7341 11.44V9.04ZM114.614 51.64C117.734 51.72 120.574 51.88 123.134 52.12C125.694 52.36 127.974 52.6 129.974 52.84C132.054 53 133.854 53.12 135.374 53.2C143.294 53.68 149.174 55.2 153.014 57.76C156.934 60.24 159.414 63.96 160.454 68.92L162.974 81.4C163.694 84.44 164.454 86.6 165.254 87.88C166.054 89.08 167.174 89.64 168.614 89.56C169.494 89.56 170.254 89.4 170.894 89.08C171.534 88.68 172.174 88.12 172.814 87.4L174.494 88.96C172.174 91.44 169.654 93.16 166.934 94.12C164.214 95.16 161.054 95.68 157.454 95.68C152.734 95.68 148.854 94.76 145.814 92.92C142.854 91.08 140.974 87.68 140.174 82.72L138.134 70.72C137.654 67.44 137.014 64.52 136.214 61.96C135.494 59.4 134.494 57.4 133.214 55.96C131.934 54.44 130.134 53.68 127.814 53.68H114.854L114.614 51.64ZM238.701 9.04C238.381 12.8 238.141 16.44 237.981 19.96C237.901 23.48 237.861 26.16 237.861 28C237.861 29.6 237.901 31.16 237.981 32.68C238.061 34.2 238.141 35.44 238.221 36.4H235.461C234.581 30.16 233.141 25.24 231.141 21.64C229.221 18.04 226.821 15.52 223.941 14.08C221.141 12.56 218.021 11.8 214.581 11.8H211.341C209.181 11.8 207.501 12 206.301 12.4C205.181 12.72 204.421 13.44 204.021 14.56C203.701 15.68 203.541 17.44 203.541 19.84V83.2C203.541 85.52 203.701 87.28 204.021 88.48C204.421 89.6 205.181 90.36 206.301 90.76C207.501 91.08 209.181 91.24 211.341 91.24H216.261C219.381 91.24 222.341 90.44 225.141 88.84C228.021 87.16 230.581 84.36 232.821 80.44C235.061 76.44 236.741 71.04 237.861 64.24H240.621C240.381 66.96 240.261 70.48 240.261 74.8C240.261 76.72 240.301 79.44 240.381 82.96C240.461 86.48 240.701 90.16 241.101 94C237.021 93.84 232.421 93.76 227.301 93.76C222.181 93.68 217.621 93.64 213.621 93.64C211.541 93.64 208.901 93.64 205.701 93.64C202.501 93.64 199.021 93.68 195.261 93.76C191.501 93.76 187.701 93.8 183.861 93.88C180.021 93.88 176.421 93.92 173.061 94V91.6C175.541 91.44 177.381 91.12 178.581 90.64C179.861 90.16 180.701 89.2 181.101 87.76C181.581 86.32 181.821 84.16 181.821 81.28V21.76C181.821 18.8 181.581 16.64 181.101 15.28C180.701 13.84 179.861 12.88 178.581 12.4C177.381 11.84 175.541 11.52 173.061 11.44V9.04C176.501 9.12 180.101 9.2 183.861 9.28C187.701 9.28 191.461 9.32 195.141 9.39999C198.901 9.39999 202.381 9.39999 205.581 9.39999C208.861 9.39999 211.541 9.39999 213.621 9.39999C217.301 9.39999 221.461 9.39999 226.101 9.39999C230.821 9.32 235.021 9.2 238.701 9.04ZM220.581 50.08C220.581 50.08 220.581 50.48 220.581 51.28C220.581 52.08 220.581 52.48 220.581 52.48H199.941C199.941 52.48 199.941 52.08 199.941 51.28C199.941 50.48 199.941 50.08 199.941 50.08H220.581ZM224.061 34.24C223.741 38.8 223.581 42.28 223.581 44.68C223.661 47.08 223.701 49.28 223.701 51.28C223.701 53.28 223.741 55.48 223.821 57.88C223.901 60.28 224.101 63.76 224.421 68.32H221.661C221.261 65.44 220.421 62.8 219.141 60.4C217.861 58 216.141 56.08 213.981 54.64C211.821 53.2 209.181 52.48 206.061 52.48V50.08C208.381 50.08 210.421 49.6 212.181 48.64C213.941 47.6 215.421 46.28 216.621 44.68C217.901 43.08 218.941 41.36 219.741 39.52C220.541 37.68 221.061 35.92 221.301 34.24H224.061ZM313.293 9.04C312.973 12.8 312.733 16.44 312.573 19.96C312.493 23.48 312.453 26.16 312.453 28C312.453 29.6 312.493 31.16 312.573 32.68C312.653 34.2 312.733 35.44 312.813 36.4H310.053C309.173 30.16 307.733 25.24 305.733 21.64C303.813 18.04 301.413 15.52 298.533 14.08C295.733 12.56 292.613 11.8 289.173 11.8H285.933C283.773 11.8 282.093 12 280.893 12.4C279.773 12.72 279.013 13.44 278.613 14.56C278.293 15.68 278.133 17.44 278.133 19.84V83.2C278.133 85.52 278.293 87.28 278.613 88.48C279.013 89.6 279.773 90.36 280.893 90.76C282.093 91.08 283.773 91.24 285.933 91.24H290.853C293.973 91.24 296.933 90.44 299.733 88.84C302.613 87.16 305.173 84.36 307.413 80.44C309.653 76.44 311.333 71.04 312.453 64.24H315.213C314.973 66.96 314.853 70.48 314.853 74.8C314.853 76.72 314.893 79.44 314.973 82.96C315.053 86.48 315.293 90.16 315.693 94C311.613 93.84 307.013 93.76 301.893 93.76C296.773 93.68 292.213 93.64 288.213 93.64C286.133 93.64 283.493 93.64 280.293 93.64C277.093 93.64 273.613 93.68 269.853 93.76C266.093 93.76 262.293 93.8 258.453 93.88C254.613 93.88 251.013 93.92 247.653 94V91.6C250.133 91.44 251.973 91.12 253.173 90.64C254.453 90.16 255.293 89.2 255.693 87.76C256.173 86.32 256.413 84.16 256.413 81.28V21.76C256.413 18.8 256.173 16.64 255.693 15.28C255.293 13.84 254.453 12.88 253.173 12.4C251.973 11.84 250.133 11.52 247.653 11.44V9.04C251.093 9.12 254.693 9.2 258.453 9.28C262.293 9.28 266.053 9.32 269.733 9.39999C273.493 9.39999 276.973 9.39999 280.173 9.39999C283.453 9.39999 286.133 9.39999 288.213 9.39999C291.893 9.39999 296.053 9.39999 300.693 9.39999C305.413 9.32 309.613 9.2 313.293 9.04ZM295.173 50.08C295.173 50.08 295.173 50.48 295.173 51.28C295.173 52.08 295.173 52.48 295.173 52.48H274.533C274.533 52.48 274.533 52.08 274.533 51.28C274.533 50.48 274.533 50.08 274.533 50.08H295.173ZM298.653 34.24C298.333 38.8 298.173 42.28 298.173 44.68C298.253 47.08 298.293 49.28 298.293 51.28C298.293 53.28 298.333 55.48 298.413 57.88C298.493 60.28 298.693 63.76 299.013 68.32H296.253C295.853 65.44 295.013 62.8 293.733 60.4C292.453 58 290.733 56.08 288.573 54.64C286.413 53.2 283.773 52.48 280.653 52.48V50.08C282.973 50.08 285.013 49.6 286.773 48.64C288.533 47.6 290.013 46.28 291.213 44.68C292.493 43.08 293.533 41.36 294.333 39.52C295.133 37.68 295.653 35.92 295.893 34.24H298.653ZM367.245 30.16C370.765 30.16 373.565 30.6 375.645 31.48C377.805 32.36 379.445 33.48 380.565 34.84C381.845 36.36 382.765 38.32 383.325 40.72C383.965 43.12 384.285 46.36 384.285 50.44V82.84C384.285 86.2 384.805 88.48 385.845 89.68C386.965 90.88 388.845 91.48 391.485 91.48V94C389.885 93.92 387.485 93.84 384.285 93.76C381.165 93.6 378.125 93.52 375.165 93.52C371.885 93.52 368.725 93.6 365.685 93.76C362.645 93.84 360.365 93.92 358.845 94V91.48C361.085 91.48 362.645 90.88 363.525 89.68C364.405 88.48 364.845 86.2 364.845 82.84V44.68C364.845 42.84 364.645 41.28 364.245 40C363.845 38.64 363.165 37.64 362.205 37C361.245 36.28 359.885 35.92 358.125 35.92C356.285 35.92 354.565 36.4 352.965 37.36C351.445 38.32 350.205 39.68 349.245 41.44C348.365 43.12 347.925 45.04 347.925 47.2V82.84C347.925 86.2 348.365 88.48 349.245 89.68C350.125 90.88 351.685 91.48 353.925 91.48V94C352.405 93.92 350.205 93.84 347.325 93.76C344.445 93.6 341.525 93.52 338.565 93.52C335.285 93.52 332.005 93.6 328.725 93.76C325.445 93.84 322.965 93.92 321.285 94V91.48C323.925 91.48 325.765 90.88 326.805 89.68C327.925 88.48 328.485 86.2 328.485 82.84V44.92C328.485 41.32 327.965 38.68 326.925 37C325.885 35.24 324.005 34.36 321.285 34.36V31.84C323.845 32.08 326.325 32.2 328.725 32.2C332.325 32.2 335.725 32.08 338.925 31.84C342.205 31.52 345.205 31.08 347.925 30.52V40.24C349.845 36.56 352.445 33.96 355.725 32.44C359.085 30.92 362.925 30.16 367.245 30.16ZM409.502 94.84C405.822 94.84 402.782 94.16 400.382 92.8C397.982 91.36 396.222 89.48 395.102 87.16C393.982 84.84 393.422 82.36 393.422 79.72C393.422 76.36 394.182 73.6 395.702 71.44C397.302 69.28 399.342 67.56 401.822 66.28C404.302 64.92 406.902 63.8 409.622 62.92C412.342 62.04 414.942 61.2 417.422 60.4C419.902 59.52 421.902 58.52 423.422 57.4C424.942 56.2 425.702 54.68 425.702 52.84V42.88C425.702 41.12 425.422 39.48 424.862 37.96C424.382 36.36 423.462 35.08 422.102 34.12C420.822 33.08 419.022 32.56 416.702 32.56C415.262 32.56 413.862 32.76 412.502 33.16C411.142 33.56 409.942 34.2 408.902 35.08C411.462 35.96 413.342 37.28 414.542 39.04C415.822 40.8 416.462 42.76 416.462 44.92C416.462 47.88 415.422 50.24 413.342 52C411.342 53.68 408.942 54.52 406.142 54.52C403.102 54.52 400.742 53.56 399.062 51.64C397.462 49.72 396.662 47.4 396.662 44.68C396.662 42.28 397.262 40.28 398.462 38.68C399.662 37 401.422 35.48 403.742 34.12C406.062 32.76 408.862 31.76 412.142 31.12C415.422 30.48 418.902 30.16 422.582 30.16C426.342 30.16 429.782 30.56 432.902 31.36C436.102 32.08 438.822 33.56 441.062 35.8C442.822 37.64 443.942 39.88 444.422 42.52C444.902 45.16 445.142 48.52 445.142 52.6V85C445.142 87 445.302 88.4 445.622 89.2C446.022 89.92 446.622 90.28 447.422 90.28C448.142 90.28 448.822 90.08 449.462 89.68C450.102 89.28 450.742 88.84 451.382 88.36L452.702 90.4C450.942 91.84 448.862 92.96 446.462 93.76C444.062 94.48 441.462 94.84 438.662 94.84C435.462 94.84 432.942 94.44 431.102 93.64C429.342 92.76 428.062 91.6 427.262 90.16C426.542 88.72 426.142 87.12 426.062 85.36C424.302 88.24 422.102 90.56 419.462 92.32C416.822 94 413.502 94.84 409.502 94.84ZM419.462 86.2C420.742 86.2 421.862 85.96 422.822 85.48C423.862 84.92 424.822 84 425.702 82.72V57.76C425.062 58.88 424.182 59.96 423.062 61C422.022 61.96 420.902 62.96 419.702 64C418.502 64.96 417.342 66.04 416.222 67.24C415.182 68.44 414.302 69.88 413.582 71.56C412.942 73.16 412.622 75.12 412.622 77.44C412.622 80.56 413.262 82.8 414.542 84.16C415.822 85.52 417.462 86.2 419.462 86.2ZM511.225 31.84V34.36C509.705 34.84 508.265 35.84 506.905 37.36C505.545 38.88 504.185 41.52 502.825 45.28L485.905 94.12C484.305 93.96 482.705 93.88 481.105 93.88C479.505 93.88 477.865 93.96 476.185 94.12L455.065 41.08C453.865 38.04 452.625 36.16 451.345 35.44C450.065 34.72 448.985 34.36 448.105 34.36V31.84C450.985 32 453.985 32.16 457.105 32.32C460.225 32.4 463.625 32.44 467.305 32.44C469.785 32.44 472.385 32.4 475.105 32.32C477.905 32.16 480.505 32 482.905 31.84V34.36C481.385 34.36 479.985 34.44 478.705 34.6C477.505 34.76 476.625 35.2 476.065 35.92C475.585 36.64 475.625 37.96 476.185 39.88L489.865 77.2L488.545 79.24L496.585 56.08C498.265 51.2 498.985 47.2 498.745 44.08C498.505 40.96 497.585 38.6 495.985 37C494.465 35.4 492.425 34.52 489.865 34.36V31.84C491.065 31.92 492.385 32 493.825 32.08C495.345 32.16 496.825 32.24 498.265 32.32C499.785 32.32 501.025 32.32 501.985 32.32C503.505 32.32 505.185 32.28 507.025 32.2C508.865 32.12 510.265 32 511.225 31.84Z" fill="white"/>
<path d="M527.626 0.519995C531.386 0.519995 534.306 1.36 536.386 3.04C538.546 4.72 539.626 7.16 539.626 10.36C539.626 13.56 538.546 16 536.386 17.68C534.306 19.36 531.386 20.2 527.626 20.2C523.866 20.2 520.906 19.36 518.746 17.68C516.666 16 515.626 13.56 515.626 10.36C515.626 7.16 516.666 4.72 518.746 3.04C520.906 1.36 523.866 0.519995 527.626 0.519995ZM538.186 30.52V82.84C538.186 86.2 538.706 88.48 539.746 89.68C540.866 90.88 542.746 91.48 545.386 91.48V94C543.786 93.92 541.426 93.84 538.306 93.76C535.186 93.6 532.026 93.52 528.826 93.52C525.626 93.52 522.346 93.6 518.986 93.76C515.706 93.84 513.226 93.92 511.546 94V91.48C514.186 91.48 516.026 90.88 517.066 89.68C518.186 88.48 518.746 86.2 518.746 82.84V44.92C518.746 41.32 518.226 38.68 517.186 37C516.146 35.24 514.266 34.36 511.546 34.36V31.84C514.106 32.08 516.586 32.2 518.986 32.2C522.586 32.2 525.986 32.08 529.186 31.84C532.466 31.52 535.466 31.08 538.186 30.52Z" fill="#23AF91"/>
</g>
<defs>
<filter id="filter0_d_307_11005" x="0.799805" y="0.52002" width="548.586" height="103.16" filterUnits="userSpaceOnUse" color-interpolation-filters="sRGB">
<feFlood flood-opacity="0" result="BackgroundImageFix"/>
<feColorMatrix in="SourceAlpha" type="matrix" values="0 0 0 0 0 0 0 0 0 0 0 0 0 0 0 0 0 0 127 0" result="hardAlpha"/>
<feOffset dy="4"/>
<feGaussianBlur stdDeviation="2"/>
<feComposite in2="hardAlpha" operator="out"/>
<feColorMatrix type="matrix" values="0 0 0 0 0 0 0 0 0 0 0 0 0 0 0 0 0 0 0.25 0"/>
<feBlend mode="normal" in2="BackgroundImageFix" result="effect1_dropShadow_307_11005"/>
<feBlend mode="normal" in="SourceGraphic" in2="effect1_dropShadow_307_11005" result="shape"/>
</filter>
</defs>
</svg>
