<svg width="16" height="15" viewBox="0 0 16 15" fill="none" xmlns="http://www.w3.org/2000/svg">
<path fill-rule="evenodd" clip-rule="evenodd" d="M8 15C12.1421 15 15.5 11.6421 15.5 7.5C15.5 3.35786 12.1421 0 8 0C3.85786 0 0.5 3.35786 0.5 7.5C0.5 11.6421 3.85786 15 8 15ZM12.285 5.30396C12.4529 5.14657 12.4614 4.88289 12.304 4.71501C12.1466 4.54713 11.8829 4.53862 11.7151 4.69601L6.66671 9.42884L4.28502 7.19601C4.11714 7.03862 3.85346 7.04713 3.69607 7.21501C3.53868 7.38289 3.54719 7.64657 3.71507 7.80396L6.38173 10.304C6.54201 10.4542 6.79141 10.4542 6.95168 10.304L12.285 5.30396Z" fill="#23AF91"/>
</svg>
