<svg xmlns="http://www.w3.org/2000/svg" width="170" height="170" viewBox="0 0 170 170" fill="none">
  <path d="M12.832 147.547V157.17H22.4547V147.547H12.832Z" fill="#2666FF"/>
  <path d="M6.41602 163.585H28.8688V141.132H6.41602L6.41602 163.585ZM9.62356 160.377L9.62356 144.34H25.6613V160.377H9.62356Z" fill="#2666FF"/>
  <path d="M157.17 22.4527V12.8301H147.547V22.4527H157.17Z" fill="#2666FF"/>
  <path d="M163.586 6.41504L141.133 6.41504V28.8679H163.586V6.41504ZM160.378 9.62259V25.6603H144.341V9.62259L160.378 9.62259Z" fill="#2666FF"/>
  <path d="M22.4547 12.8301H12.832V22.4527H22.4547V12.8301Z" fill="#2666FF"/>
  <path d="M6.41602 6.41504V28.8679H28.8688V6.41504H6.41602ZM9.62356 9.62259H25.6613V25.6603H9.62356V9.62259Z" fill="#2666FF"/>
  <path d="M35.2837 6.41504H32.0762V9.62259H35.2837V6.41504Z" fill="#2666FF"/>
  <path d="M38.4908 6.41504H35.2832V9.62259H38.4908V6.41504Z" fill="#2666FF"/>
  <path d="M64.1509 6.41504H60.9434V9.62259H64.1509V6.41504Z" fill="#2666FF"/>
  <path d="M83.397 6.41504H80.1895V9.62259H83.397V6.41504Z" fill="#2666FF"/>
  <path d="M86.604 6.41504H83.3965V9.62259H86.604V6.41504Z" fill="#2666FF"/>
  <path d="M93.02 6.41504H89.8125V9.62259H93.02V6.41504Z" fill="#2666FF"/>
  <path d="M99.4341 6.41504H96.2266V9.62259H99.4341V6.41504Z" fill="#2666FF"/>
  <path d="M102.643 6.41504H99.4355V9.62259H102.643V6.41504Z" fill="#2666FF"/>
  <path d="M105.85 6.41504H102.643V9.62259H105.85V6.41504Z" fill="#2666FF"/>
  <path d="M112.264 6.41504H109.057V9.62259H112.264V6.41504Z" fill="#2666FF"/>
  <path d="M121.887 6.41504H118.68V9.62259H121.887V6.41504Z" fill="#2666FF"/>
  <path d="M128.303 6.41504H125.096V9.62259H128.303V6.41504Z" fill="#2666FF"/>
  <path d="M137.926 6.41504H134.719V9.62259H137.926V6.41504Z" fill="#2666FF"/>
  <path d="M41.6997 9.62256H38.4922V12.8301H41.6997V9.62256Z" fill="#2666FF"/>
  <path d="M54.5298 9.62256H51.3223V12.8301H54.5298V9.62256Z" fill="#2666FF"/>
  <path d="M60.9439 9.62256H57.7363V12.8301H60.9439V9.62256Z" fill="#2666FF"/>
  <path d="M64.1509 9.62256H60.9434V12.8301H64.1509V9.62256Z" fill="#2666FF"/>
  <path d="M70.5669 9.62256H67.3594V12.8301H70.5669V9.62256Z" fill="#2666FF"/>
  <path d="M73.774 9.62256H70.5664V12.8301H73.774V9.62256Z" fill="#2666FF"/>
  <path d="M76.9829 9.62256H73.7754V12.8301H76.9829V9.62256Z" fill="#2666FF"/>
  <path d="M83.397 9.62256H80.1895V12.8301H83.397V9.62256Z" fill="#2666FF"/>
  <path d="M89.813 9.62256H86.6055V12.8301H89.813V9.62256Z" fill="#2666FF"/>
  <path d="M93.02 9.62256H89.8125V12.8301H93.02V9.62256Z" fill="#2666FF"/>
  <path d="M96.2271 9.62256H93.0195V12.8301H96.2271V9.62256Z" fill="#2666FF"/>
  <path d="M102.643 9.62256H99.4355V12.8301H102.643V9.62256Z" fill="#2666FF"/>
  <path d="M118.68 9.62256H115.473V12.8301H118.68V9.62256Z" fill="#2666FF"/>
  <path d="M121.887 9.62256H118.68V12.8301H121.887V9.62256Z" fill="#2666FF"/>
  <path d="M128.303 9.62256H125.096V12.8301H128.303V9.62256Z" fill="#2666FF"/>
  <path d="M131.51 9.62256H128.303V12.8301H131.51V9.62256Z" fill="#2666FF"/>
  <path d="M134.717 9.62256H131.51V12.8301H134.717V9.62256Z" fill="#2666FF"/>
  <path d="M137.926 9.62256H134.719V12.8301H137.926V9.62256Z" fill="#2666FF"/>
  <path d="M38.4908 12.8301H35.2832V16.0376H38.4908V12.8301Z" fill="#2666FF"/>
  <path d="M48.1138 12.8301H44.9062V16.0376H48.1138V12.8301Z" fill="#2666FF"/>
  <path d="M57.7368 12.8301H54.5293V16.0376H57.7368V12.8301Z" fill="#2666FF"/>
  <path d="M64.1509 12.8301H60.9434V16.0376H64.1509V12.8301Z" fill="#2666FF"/>
  <path d="M67.3599 12.8301H64.1523V16.0376H67.3599V12.8301Z" fill="#2666FF"/>
  <path d="M73.774 12.8301H70.5664V16.0376H73.774V12.8301Z" fill="#2666FF"/>
  <path d="M76.9829 12.8301H73.7754V16.0376H76.9829V12.8301Z" fill="#2666FF"/>
  <path d="M83.397 12.8301H80.1895V16.0376H83.397V12.8301Z" fill="#2666FF"/>
  <path d="M89.813 12.8301H86.6055V16.0376H89.813V12.8301Z" fill="#2666FF"/>
  <path d="M93.02 12.8301H89.8125V16.0376H93.02V12.8301Z" fill="#2666FF"/>
  <path d="M96.2271 12.8301H93.0195V16.0376H96.2271V12.8301Z" fill="#2666FF"/>
  <path d="M105.85 12.8301H102.643V16.0376H105.85V12.8301Z" fill="#2666FF"/>
  <path d="M112.264 12.8301H109.057V16.0376H112.264V12.8301Z" fill="#2666FF"/>
  <path d="M115.473 12.8301H112.266V16.0376H115.473V12.8301Z" fill="#2666FF"/>
  <path d="M134.717 12.8301H131.51V16.0376H134.717V12.8301Z" fill="#2666FF"/>
  <path d="M137.926 12.8301H134.719V16.0376H137.926V12.8301Z" fill="#2666FF"/>
  <path d="M38.4908 16.0376H35.2832V19.2451H38.4908V16.0376Z" fill="#2666FF"/>
  <path d="M41.6997 16.0376H38.4922V19.2451H41.6997V16.0376Z" fill="#2666FF"/>
  <path d="M44.9068 16.0376H41.6992V19.2451H44.9068V16.0376Z" fill="#2666FF"/>
  <path d="M54.5298 16.0376H51.3223V19.2451H54.5298V16.0376Z" fill="#2666FF"/>
  <path d="M60.9439 16.0376H57.7363V19.2451H60.9439V16.0376Z" fill="#2666FF"/>
  <path d="M64.1509 16.0376H60.9434V19.2451H64.1509V16.0376Z" fill="#2666FF"/>
  <path d="M70.5669 16.0376H67.3594V19.2451H70.5669V16.0376Z" fill="#2666FF"/>
  <path d="M73.774 16.0376H70.5664V19.2451H73.774V16.0376Z" fill="#2666FF"/>
  <path d="M89.813 16.0376H86.6055V19.2451H89.813V16.0376Z" fill="#2666FF"/>
  <path d="M102.643 16.0376H99.4355V19.2451H102.643V16.0376Z" fill="#2666FF"/>
  <path d="M109.057 16.0376H105.85V19.2451H109.057V16.0376Z" fill="#2666FF"/>
  <path d="M121.887 16.0376H118.68V19.2451H121.887V16.0376Z" fill="#2666FF"/>
  <path d="M125.096 16.0376H121.889V19.2451H125.096V16.0376Z" fill="#2666FF"/>
  <path d="M134.717 16.0376H131.51V19.2451H134.717V16.0376Z" fill="#2666FF"/>
  <path d="M35.2837 19.2451H32.0762V22.4527H35.2837V19.2451Z" fill="#2666FF"/>
  <path d="M44.9068 19.2451H41.6992V22.4527H44.9068V19.2451Z" fill="#2666FF"/>
  <path d="M60.9439 19.2451H57.7363V22.4527H60.9439V19.2451Z" fill="#2666FF"/>
  <path d="M64.1509 19.2451H60.9434V22.4527H64.1509V19.2451Z" fill="#2666FF"/>
  <path d="M70.5669 19.2451H67.3594V22.4527H70.5669V19.2451Z" fill="#2666FF"/>
  <path d="M73.774 19.2451H70.5664V22.4527H73.774V19.2451Z" fill="#2666FF"/>
  <path d="M80.19 19.2451H76.9824V22.4527H80.19V19.2451Z" fill="#2666FF"/>
  <path d="M83.397 19.2451H80.1895V22.4527H83.397V19.2451Z" fill="#2666FF"/>
  <path d="M86.604 19.2451H83.3965V22.4527H86.604V19.2451Z" fill="#2666FF"/>
  <path d="M89.813 19.2451H86.6055V22.4527H89.813V19.2451Z" fill="#2666FF"/>
  <path d="M93.02 19.2451H89.8125V22.4527H93.02V19.2451Z" fill="#2666FF"/>
  <path d="M96.2271 19.2451H93.0195V22.4527H96.2271V19.2451Z" fill="#2666FF"/>
  <path d="M99.4341 19.2451H96.2266V22.4527H99.4341V19.2451Z" fill="#2666FF"/>
  <path d="M105.85 19.2451H102.643V22.4527H105.85V19.2451Z" fill="#2666FF"/>
  <path d="M115.473 19.2451H112.266V22.4527H115.473V19.2451Z" fill="#2666FF"/>
  <path d="M128.303 19.2451H125.096V22.4527H128.303V19.2451Z" fill="#2666FF"/>
  <path d="M35.2837 22.4526H32.0762V25.6602H35.2837V22.4526Z" fill="#2666FF"/>
  <path d="M38.4908 22.4526H35.2832V25.6602H38.4908V22.4526Z" fill="#2666FF"/>
  <path d="M41.6997 22.4526H38.4922V25.6602H41.6997V22.4526Z" fill="#2666FF"/>
  <path d="M44.9068 22.4526H41.6992V25.6602H44.9068V22.4526Z" fill="#2666FF"/>
  <path d="M48.1138 22.4526H44.9062V25.6602H48.1138V22.4526Z" fill="#2666FF"/>
  <path d="M57.7368 22.4526H54.5293V25.6602H57.7368V22.4526Z" fill="#2666FF"/>
  <path d="M60.9439 22.4526H57.7363V25.6602H60.9439V22.4526Z" fill="#2666FF"/>
  <path d="M64.1509 22.4526H60.9434V25.6602H64.1509V22.4526Z" fill="#2666FF"/>
  <path d="M67.3599 22.4526H64.1523V25.6602H67.3599V22.4526Z" fill="#2666FF"/>
  <path d="M70.5669 22.4526H67.3594V25.6602H70.5669V22.4526Z" fill="#2666FF"/>
  <path d="M73.774 22.4526H70.5664V25.6602H73.774V22.4526Z" fill="#2666FF"/>
  <path d="M80.19 22.4526H76.9824V25.6602H80.19V22.4526Z" fill="#2666FF"/>
  <path d="M93.02 22.4526H89.8125V25.6602H93.02V22.4526Z" fill="#2666FF"/>
  <path d="M99.4341 22.4526H96.2266V25.6602H99.4341V22.4526Z" fill="#2666FF"/>
  <path d="M102.643 22.4526H99.4355V25.6602H102.643V22.4526Z" fill="#2666FF"/>
  <path d="M112.264 22.4526H109.057V25.6602H112.264V22.4526Z" fill="#2666FF"/>
  <path d="M118.68 22.4526H115.473V25.6602H118.68V22.4526Z" fill="#2666FF"/>
  <path d="M121.887 22.4526H118.68V25.6602H121.887V22.4526Z" fill="#2666FF"/>
  <path d="M128.303 22.4526H125.096V25.6602H128.303V22.4526Z" fill="#2666FF"/>
  <path d="M131.51 22.4526H128.303V25.6602H131.51V22.4526Z" fill="#2666FF"/>
  <path d="M35.2837 25.6602H32.0762V28.8677H35.2837V25.6602Z" fill="#2666FF"/>
  <path d="M41.6997 25.6602H38.4922V28.8677H41.6997V25.6602Z" fill="#2666FF"/>
  <path d="M48.1138 25.6602H44.9062V28.8677H48.1138V25.6602Z" fill="#2666FF"/>
  <path d="M54.5298 25.6602H51.3223V28.8677H54.5298V25.6602Z" fill="#2666FF"/>
  <path d="M60.9439 25.6602H57.7363V28.8677H60.9439V25.6602Z" fill="#2666FF"/>
  <path d="M67.3599 25.6602H64.1523V28.8677H67.3599V25.6602Z" fill="#2666FF"/>
  <path d="M73.774 25.6602H70.5664V28.8677H73.774V25.6602Z" fill="#2666FF"/>
  <path d="M80.19 25.6602H76.9824V28.8677H80.19V25.6602Z" fill="#2666FF"/>
  <path d="M86.604 25.6602H83.3965V28.8677H86.604V25.6602Z" fill="#2666FF"/>
  <path d="M93.02 25.6602H89.8125V28.8677H93.02V25.6602Z" fill="#2666FF"/>
  <path d="M99.4341 25.6602H96.2266V28.8677H99.4341V25.6602Z" fill="#2666FF"/>
  <path d="M105.85 25.6602H102.643V28.8677H105.85V25.6602Z" fill="#2666FF"/>
  <path d="M112.264 25.6602H109.057V28.8677H112.264V25.6602Z" fill="#2666FF"/>
  <path d="M118.68 25.6602H115.473V28.8677H118.68V25.6602Z" fill="#2666FF"/>
  <path d="M125.096 25.6602H121.889V28.8677H125.096V25.6602Z" fill="#2666FF"/>
  <path d="M131.51 25.6602H128.303V28.8677H131.51V25.6602Z" fill="#2666FF"/>
  <path d="M137.926 25.6602H134.719V28.8677H137.926V25.6602Z" fill="#2666FF"/>
  <path d="M38.4908 28.8677H35.2832V32.0752H38.4908V28.8677Z" fill="#2666FF"/>
  <path d="M44.9068 28.8677H41.6992V32.0752H44.9068V28.8677Z" fill="#2666FF"/>
  <path d="M54.5298 28.8677H51.3223V32.0752H54.5298V28.8677Z" fill="#2666FF"/>
  <path d="M57.7368 28.8677H54.5293V32.0752H57.7368V28.8677Z" fill="#2666FF"/>
  <path d="M64.1509 28.8677H60.9434V32.0752H64.1509V28.8677Z" fill="#2666FF"/>
  <path d="M73.774 28.8677H70.5664V32.0752H73.774V28.8677Z" fill="#2666FF"/>
  <path d="M76.9829 28.8677H73.7754V32.0752H76.9829V28.8677Z" fill="#2666FF"/>
  <path d="M80.19 28.8677H76.9824V32.0752H80.19V28.8677Z" fill="#2666FF"/>
  <path d="M93.02 28.8677H89.8125V32.0752H93.02V28.8677Z" fill="#2666FF"/>
  <path d="M102.643 28.8677H99.4355V32.0752H102.643V28.8677Z" fill="#2666FF"/>
  <path d="M105.85 28.8677H102.643V32.0752H105.85V28.8677Z" fill="#2666FF"/>
  <path d="M115.473 28.8677H112.266V32.0752H115.473V28.8677Z" fill="#2666FF"/>
  <path d="M125.096 28.8677H121.889V32.0752H125.096V28.8677Z" fill="#2666FF"/>
  <path d="M128.303 28.8677H125.096V32.0752H128.303V28.8677Z" fill="#2666FF"/>
  <path d="M137.926 28.8677H134.719V32.0752H137.926V28.8677Z" fill="#2666FF"/>
  <path d="M12.8306 32.0752H9.62305V35.2827H12.8306V32.0752Z" fill="#2666FF"/>
  <path d="M16.0396 32.0752H12.832V35.2827H16.0396V32.0752Z" fill="#2666FF"/>
  <path d="M19.2466 32.0752H16.0391V35.2827H19.2466V32.0752Z" fill="#2666FF"/>
  <path d="M22.4536 32.0752H19.2461V35.2827H22.4536V32.0752Z" fill="#2666FF"/>
  <path d="M25.6607 32.0752H22.4531V35.2827H25.6607V32.0752Z" fill="#2666FF"/>
  <path d="M28.8697 32.0752H25.6621V35.2827H28.8697V32.0752Z" fill="#2666FF"/>
  <path d="M32.0767 32.0752H28.8691V35.2827H32.0767V32.0752Z" fill="#2666FF"/>
  <path d="M48.1138 32.0752H44.9062V35.2827H48.1138V32.0752Z" fill="#2666FF"/>
  <path d="M57.7368 32.0752H54.5293V35.2827H57.7368V32.0752Z" fill="#2666FF"/>
  <path d="M60.9439 32.0752H57.7363V35.2827H60.9439V32.0752Z" fill="#2666FF"/>
  <path d="M76.9829 32.0752H73.7754V35.2827H76.9829V32.0752Z" fill="#2666FF"/>
  <path d="M80.19 32.0752H76.9824V35.2827H80.19V32.0752Z" fill="#2666FF"/>
  <path d="M83.397 32.0752H80.1895V35.2827H83.397V32.0752Z" fill="#2666FF"/>
  <path d="M86.604 32.0752H83.3965V35.2827H86.604V32.0752Z" fill="#2666FF"/>
  <path d="M89.813 32.0752H86.6055V35.2827H89.813V32.0752Z" fill="#2666FF"/>
  <path d="M93.02 32.0752H89.8125V35.2827H93.02V32.0752Z" fill="#2666FF"/>
  <path d="M105.85 32.0752H102.643V35.2827H105.85V32.0752Z" fill="#2666FF"/>
  <path d="M109.057 32.0752H105.85V35.2827H109.057V32.0752Z" fill="#2666FF"/>
  <path d="M112.264 32.0752H109.057V35.2827H112.264V32.0752Z" fill="#2666FF"/>
  <path d="M118.68 32.0752H115.473V35.2827H118.68V32.0752Z" fill="#2666FF"/>
  <path d="M121.887 32.0752H118.68V35.2827H121.887V32.0752Z" fill="#2666FF"/>
  <path d="M128.303 32.0752H125.096V35.2827H128.303V32.0752Z" fill="#2666FF"/>
  <path d="M134.717 32.0752H131.51V35.2827H134.717V32.0752Z" fill="#2666FF"/>
  <path d="M137.926 32.0752H134.719V35.2827H137.926V32.0752Z" fill="#2666FF"/>
  <path d="M147.547 32.0752H144.34V35.2827H147.547V32.0752Z" fill="#2666FF"/>
  <path d="M150.756 32.0752H147.549V35.2827H150.756V32.0752Z" fill="#2666FF"/>
  <path d="M163.586 32.0752H160.379V35.2827H163.586V32.0752Z" fill="#2666FF"/>
  <path d="M19.2466 35.2832H16.0391V38.4908H19.2466V35.2832Z" fill="#2666FF"/>
  <path d="M25.6607 35.2832H22.4531V38.4908H25.6607V35.2832Z" fill="#2666FF"/>
  <path d="M35.2837 35.2832H32.0762V38.4908H35.2837V35.2832Z" fill="#2666FF"/>
  <path d="M38.4908 35.2832H35.2832V38.4908H38.4908V35.2832Z" fill="#2666FF"/>
  <path d="M44.9068 35.2832H41.6992V38.4908H44.9068V35.2832Z" fill="#2666FF"/>
  <path d="M60.9439 35.2832H57.7363V38.4908H60.9439V35.2832Z" fill="#2666FF"/>
  <path d="M67.3599 35.2832H64.1523V38.4908H67.3599V35.2832Z" fill="#2666FF"/>
  <path d="M76.9829 35.2832H73.7754V38.4908H76.9829V35.2832Z" fill="#2666FF"/>
  <path d="M83.397 35.2832H80.1895V38.4908H83.397V35.2832Z" fill="#2666FF"/>
  <path d="M105.85 35.2832H102.643V38.4908H105.85V35.2832Z" fill="#2666FF"/>
  <path d="M112.264 35.2832H109.057V38.4908H112.264V35.2832Z" fill="#2666FF"/>
  <path d="M115.473 35.2832H112.266V38.4908H115.473V35.2832Z" fill="#2666FF"/>
  <path d="M128.303 35.2832H125.096V38.4908H128.303V35.2832Z" fill="#2666FF"/>
  <path d="M144.34 35.2832H141.133V38.4908H144.34V35.2832Z" fill="#2666FF"/>
  <path d="M150.756 35.2832H147.549V38.4908H150.756V35.2832Z" fill="#2666FF"/>
  <path d="M153.963 35.2832H150.756V38.4908H153.963V35.2832Z" fill="#2666FF"/>
  <path d="M160.377 35.2832H157.17V38.4908H160.377V35.2832Z" fill="#2666FF"/>
  <path d="M19.2466 38.4907H16.0391V41.6983H19.2466V38.4907Z" fill="#2666FF"/>
  <path d="M25.6607 38.4907H22.4531V41.6983H25.6607V38.4907Z" fill="#2666FF"/>
  <path d="M28.8697 38.4907H25.6621V41.6983H28.8697V38.4907Z" fill="#2666FF"/>
  <path d="M32.0767 38.4907H28.8691V41.6983H32.0767V38.4907Z" fill="#2666FF"/>
  <path d="M38.4908 38.4907H35.2832V41.6983H38.4908V38.4907Z" fill="#2666FF"/>
  <path d="M41.6997 38.4907H38.4922V41.6983H41.6997V38.4907Z" fill="#2666FF"/>
  <path d="M51.3208 38.4907H48.1133V41.6983H51.3208V38.4907Z" fill="#2666FF"/>
  <path d="M57.7368 38.4907H54.5293V41.6983H57.7368V38.4907Z" fill="#2666FF"/>
  <path d="M64.1509 38.4907H60.9434V41.6983H64.1509V38.4907Z" fill="#2666FF"/>
  <path d="M67.3599 38.4907H64.1523V41.6983H67.3599V38.4907Z" fill="#2666FF"/>
  <path d="M73.774 38.4907H70.5664V41.6983H73.774V38.4907Z" fill="#2666FF"/>
  <path d="M80.19 38.4907H76.9824V41.6983H80.19V38.4907Z" fill="#2666FF"/>
  <path d="M89.813 38.4907H86.6055V41.6983H89.813V38.4907Z" fill="#2666FF"/>
  <path d="M96.2271 38.4907H93.0195V41.6983H96.2271V38.4907Z" fill="#2666FF"/>
  <path d="M102.643 38.4907H99.4355V41.6983H102.643V38.4907Z" fill="#2666FF"/>
  <path d="M109.057 38.4907H105.85V41.6983H109.057V38.4907Z" fill="#2666FF"/>
  <path d="M112.264 38.4907H109.057V41.6983H112.264V38.4907Z" fill="#2666FF"/>
  <path d="M118.68 38.4907H115.473V41.6983H118.68V38.4907Z" fill="#2666FF"/>
  <path d="M121.887 38.4907H118.68V41.6983H121.887V38.4907Z" fill="#2666FF"/>
  <path d="M131.51 38.4907H128.303V41.6983H131.51V38.4907Z" fill="#2666FF"/>
  <path d="M134.717 38.4907H131.51V41.6983H134.717V38.4907Z" fill="#2666FF"/>
  <path d="M141.133 38.4907H137.926V41.6983H141.133V38.4907Z" fill="#2666FF"/>
  <path d="M147.547 38.4907H144.34V41.6983H147.547V38.4907Z" fill="#2666FF"/>
  <path d="M163.586 38.4907H160.379V41.6983H163.586V38.4907Z" fill="#2666FF"/>
  <path d="M9.62356 41.6982H6.41602V44.9058H9.62356V41.6982Z" fill="#2666FF"/>
  <path d="M32.0767 41.6982H28.8691V44.9058H32.0767V41.6982Z" fill="#2666FF"/>
  <path d="M35.2837 41.6982H32.0762V44.9058H35.2837V41.6982Z" fill="#2666FF"/>
  <path d="M38.4908 41.6982H35.2832V44.9058H38.4908V41.6982Z" fill="#2666FF"/>
  <path d="M51.3208 41.6982H48.1133V44.9058H51.3208V41.6982Z" fill="#2666FF"/>
  <path d="M60.9439 41.6982H57.7363V44.9058H60.9439V41.6982Z" fill="#2666FF"/>
  <path d="M67.3599 41.6982H64.1523V44.9058H67.3599V41.6982Z" fill="#2666FF"/>
  <path d="M73.774 41.6982H70.5664V44.9058H73.774V41.6982Z" fill="#2666FF"/>
  <path d="M80.19 41.6982H76.9824V44.9058H80.19V41.6982Z" fill="#2666FF"/>
  <path d="M83.397 41.6982H80.1895V44.9058H83.397V41.6982Z" fill="#2666FF"/>
  <path d="M86.604 41.6982H83.3965V44.9058H86.604V41.6982Z" fill="#2666FF"/>
  <path d="M89.813 41.6982H86.6055V44.9058H89.813V41.6982Z" fill="#2666FF"/>
  <path d="M99.4341 41.6982H96.2266V44.9058H99.4341V41.6982Z" fill="#2666FF"/>
  <path d="M102.643 41.6982H99.4355V44.9058H102.643V41.6982Z" fill="#2666FF"/>
  <path d="M112.264 41.6982H109.057V44.9058H112.264V41.6982Z" fill="#2666FF"/>
  <path d="M115.473 41.6982H112.266V44.9058H115.473V41.6982Z" fill="#2666FF"/>
  <path d="M128.303 41.6982H125.096V44.9058H128.303V41.6982Z" fill="#2666FF"/>
  <path d="M137.926 41.6982H134.719V44.9058H137.926V41.6982Z" fill="#2666FF"/>
  <path d="M141.133 41.6982H137.926V44.9058H141.133V41.6982Z" fill="#2666FF"/>
  <path d="M144.34 41.6982H141.133V44.9058H144.34V41.6982Z" fill="#2666FF"/>
  <path d="M147.547 41.6982H144.34V44.9058H147.547V41.6982Z" fill="#2666FF"/>
  <path d="M150.756 41.6982H147.549V44.9058H150.756V41.6982Z" fill="#2666FF"/>
  <path d="M153.963 41.6982H150.756V44.9058H153.963V41.6982Z" fill="#2666FF"/>
  <path d="M160.377 41.6982H157.17V44.9058H160.377V41.6982Z" fill="#2666FF"/>
  <path d="M12.8306 44.9058H9.62305V48.1133H12.8306V44.9058Z" fill="#2666FF"/>
  <path d="M16.0396 44.9058H12.832V48.1133H16.0396V44.9058Z" fill="#2666FF"/>
  <path d="M19.2466 44.9058H16.0391V48.1133H19.2466V44.9058Z" fill="#2666FF"/>
  <path d="M28.8697 44.9058H25.6621V48.1133H28.8697V44.9058Z" fill="#2666FF"/>
  <path d="M38.4908 44.9058H35.2832V48.1133H38.4908V44.9058Z" fill="#2666FF"/>
  <path d="M48.1138 44.9058H44.9062V48.1133H48.1138V44.9058Z" fill="#2666FF"/>
  <path d="M51.3208 44.9058H48.1133V48.1133H51.3208V44.9058Z" fill="#2666FF"/>
  <path d="M73.774 44.9058H70.5664V48.1133H73.774V44.9058Z" fill="#2666FF"/>
  <path d="M86.604 44.9058H83.3965V48.1133H86.604V44.9058Z" fill="#2666FF"/>
  <path d="M89.813 44.9058H86.6055V48.1133H89.813V44.9058Z" fill="#2666FF"/>
  <path d="M93.02 44.9058H89.8125V48.1133H93.02V44.9058Z" fill="#2666FF"/>
  <path d="M99.4341 44.9058H96.2266V48.1133H99.4341V44.9058Z" fill="#2666FF"/>
  <path d="M118.68 44.9058H115.473V48.1133H118.68V44.9058Z" fill="#2666FF"/>
  <path d="M121.887 44.9058H118.68V48.1133H121.887V44.9058Z" fill="#2666FF"/>
  <path d="M125.096 44.9058H121.889V48.1133H125.096V44.9058Z" fill="#2666FF"/>
  <path d="M128.303 44.9058H125.096V48.1133H128.303V44.9058Z" fill="#2666FF"/>
  <path d="M134.717 44.9058H131.51V48.1133H134.717V44.9058Z" fill="#2666FF"/>
  <path d="M137.926 44.9058H134.719V48.1133H137.926V44.9058Z" fill="#2666FF"/>
  <path d="M141.133 44.9058H137.926V48.1133H141.133V44.9058Z" fill="#2666FF"/>
  <path d="M157.17 44.9058H153.963V48.1133H157.17V44.9058Z" fill="#2666FF"/>
  <path d="M163.586 44.9058H160.379V48.1133H163.586V44.9058Z" fill="#2666FF"/>
  <path d="M16.0396 48.1133H12.832V51.3208H16.0396V48.1133Z" fill="#2666FF"/>
  <path d="M19.2466 48.1133H16.0391V51.3208H19.2466V48.1133Z" fill="#2666FF"/>
  <path d="M25.6607 48.1133H22.4531V51.3208H25.6607V48.1133Z" fill="#2666FF"/>
  <path d="M32.0767 48.1133H28.8691V51.3208H32.0767V48.1133Z" fill="#2666FF"/>
  <path d="M44.9068 48.1133H41.6992V51.3208H44.9068V48.1133Z" fill="#2666FF"/>
  <path d="M48.1138 48.1133H44.9062V51.3208H48.1138V48.1133Z" fill="#2666FF"/>
  <path d="M54.5298 48.1133H51.3223V51.3208H54.5298V48.1133Z" fill="#2666FF"/>
  <path d="M57.7368 48.1133H54.5293V51.3208H57.7368V48.1133Z" fill="#2666FF"/>
  <path d="M64.1509 48.1133H60.9434V51.3208H64.1509V48.1133Z" fill="#2666FF"/>
  <path d="M67.3599 48.1133H64.1523V51.3208H67.3599V48.1133Z" fill="#2666FF"/>
  <path d="M70.5669 48.1133H67.3594V51.3208H70.5669V48.1133Z" fill="#2666FF"/>
  <path d="M73.774 48.1133H70.5664V51.3208H73.774V48.1133Z" fill="#2666FF"/>
  <path d="M80.19 48.1133H76.9824V51.3208H80.19V48.1133Z" fill="#2666FF"/>
  <path d="M83.397 48.1133H80.1895V51.3208H83.397V48.1133Z" fill="#2666FF"/>
  <path d="M86.604 48.1133H83.3965V51.3208H86.604V48.1133Z" fill="#2666FF"/>
  <path d="M93.02 48.1133H89.8125V51.3208H93.02V48.1133Z" fill="#2666FF"/>
  <path d="M96.2271 48.1133H93.0195V51.3208H96.2271V48.1133Z" fill="#2666FF"/>
  <path d="M99.4341 48.1133H96.2266V51.3208H99.4341V48.1133Z" fill="#2666FF"/>
  <path d="M102.643 48.1133H99.4355V51.3208H102.643V48.1133Z" fill="#2666FF"/>
  <path d="M105.85 48.1133H102.643V51.3208H105.85V48.1133Z" fill="#2666FF"/>
  <path d="M115.473 48.1133H112.266V51.3208H115.473V48.1133Z" fill="#2666FF"/>
  <path d="M125.096 48.1133H121.889V51.3208H125.096V48.1133Z" fill="#2666FF"/>
  <path d="M134.717 48.1133H131.51V51.3208H134.717V48.1133Z" fill="#2666FF"/>
  <path d="M144.34 48.1133H141.133V51.3208H144.34V48.1133Z" fill="#2666FF"/>
  <path d="M147.547 48.1133H144.34V51.3208H147.547V48.1133Z" fill="#2666FF"/>
  <path d="M150.756 48.1133H147.549V51.3208H150.756V48.1133Z" fill="#2666FF"/>
  <path d="M153.963 48.1133H150.756V51.3208H153.963V48.1133Z" fill="#2666FF"/>
  <path d="M160.377 48.1133H157.17V51.3208H160.377V48.1133Z" fill="#2666FF"/>
  <path d="M9.62356 51.3208H6.41602V54.5283H9.62356V51.3208Z" fill="#2666FF"/>
  <path d="M12.8306 51.3208H9.62305V54.5283H12.8306V51.3208Z" fill="#2666FF"/>
  <path d="M16.0396 51.3208H12.832V54.5283H16.0396V51.3208Z" fill="#2666FF"/>
  <path d="M22.4536 51.3208H19.2461V54.5283H22.4536V51.3208Z" fill="#2666FF"/>
  <path d="M25.6607 51.3208H22.4531V54.5283H25.6607V51.3208Z" fill="#2666FF"/>
  <path d="M28.8697 51.3208H25.6621V54.5283H28.8697V51.3208Z" fill="#2666FF"/>
  <path d="M35.2837 51.3208H32.0762V54.5283H35.2837V51.3208Z" fill="#2666FF"/>
  <path d="M38.4908 51.3208H35.2832V54.5283H38.4908V51.3208Z" fill="#2666FF"/>
  <path d="M41.6997 51.3208H38.4922V54.5283H41.6997V51.3208Z" fill="#2666FF"/>
  <path d="M54.5298 51.3208H51.3223V54.5283H54.5298V51.3208Z" fill="#2666FF"/>
  <path d="M60.9439 51.3208H57.7363V54.5283H60.9439V51.3208Z" fill="#2666FF"/>
  <path d="M86.604 51.3208H83.3965V54.5283H86.604V51.3208Z" fill="#2666FF"/>
  <path d="M96.2271 51.3208H93.0195V54.5283H96.2271V51.3208Z" fill="#2666FF"/>
  <path d="M99.4341 51.3208H96.2266V54.5283H99.4341V51.3208Z" fill="#2666FF"/>
  <path d="M109.057 51.3208H105.85V54.5283H109.057V51.3208Z" fill="#2666FF"/>
  <path d="M118.68 51.3208H115.473V54.5283H118.68V51.3208Z" fill="#2666FF"/>
  <path d="M125.096 51.3208H121.889V54.5283H125.096V51.3208Z" fill="#2666FF"/>
  <path d="M128.303 51.3208H125.096V54.5283H128.303V51.3208Z" fill="#2666FF"/>
  <path d="M131.51 51.3208H128.303V54.5283H131.51V51.3208Z" fill="#2666FF"/>
  <path d="M134.717 51.3208H131.51V54.5283H134.717V51.3208Z" fill="#2666FF"/>
  <path d="M137.926 51.3208H134.719V54.5283H137.926V51.3208Z" fill="#2666FF"/>
  <path d="M141.133 51.3208H137.926V54.5283H141.133V51.3208Z" fill="#2666FF"/>
  <path d="M147.547 51.3208H144.34V54.5283H147.547V51.3208Z" fill="#2666FF"/>
  <path d="M150.756 51.3208H147.549V54.5283H150.756V51.3208Z" fill="#2666FF"/>
  <path d="M163.586 51.3208H160.379V54.5283H163.586V51.3208Z" fill="#2666FF"/>
  <path d="M9.62356 54.5283H6.41602V57.7359H9.62356V54.5283Z" fill="#2666FF"/>
  <path d="M12.8306 54.5283H9.62305V57.7359H12.8306V54.5283Z" fill="#2666FF"/>
  <path d="M16.0396 54.5283H12.832V57.7359H16.0396V54.5283Z" fill="#2666FF"/>
  <path d="M22.4536 54.5283H19.2461V57.7359H22.4536V54.5283Z" fill="#2666FF"/>
  <path d="M32.0767 54.5283H28.8691V57.7359H32.0767V54.5283Z" fill="#2666FF"/>
  <path d="M35.2837 54.5283H32.0762V57.7359H35.2837V54.5283Z" fill="#2666FF"/>
  <path d="M41.6997 54.5283H38.4922V57.7359H41.6997V54.5283Z" fill="#2666FF"/>
  <path d="M48.1138 54.5283H44.9062V57.7359H48.1138V54.5283Z" fill="#2666FF"/>
  <path d="M73.774 54.5283H70.5664V57.7359H73.774V54.5283Z" fill="#2666FF"/>
  <path d="M80.19 54.5283H76.9824V57.7359H80.19V54.5283Z" fill="#2666FF"/>
  <path d="M93.02 54.5283H89.8125V57.7359H93.02V54.5283Z" fill="#2666FF"/>
  <path d="M96.2271 54.5283H93.0195V57.7359H96.2271V54.5283Z" fill="#2666FF"/>
  <path d="M99.4341 54.5283H96.2266V57.7359H99.4341V54.5283Z" fill="#2666FF"/>
  <path d="M105.85 54.5283H102.643V57.7359H105.85V54.5283Z" fill="#2666FF"/>
  <path d="M112.264 54.5283H109.057V57.7359H112.264V54.5283Z" fill="#2666FF"/>
  <path d="M115.473 54.5283H112.266V57.7359H115.473V54.5283Z" fill="#2666FF"/>
  <path d="M134.717 54.5283H131.51V57.7359H134.717V54.5283Z" fill="#2666FF"/>
  <path d="M137.926 54.5283H134.719V57.7359H137.926V54.5283Z" fill="#2666FF"/>
  <path d="M141.133 54.5283H137.926V57.7359H141.133V54.5283Z" fill="#2666FF"/>
  <path d="M147.547 54.5283H144.34V57.7359H147.547V54.5283Z" fill="#2666FF"/>
  <path d="M150.756 54.5283H147.549V57.7359H150.756V54.5283Z" fill="#2666FF"/>
  <path d="M153.963 54.5283H150.756V57.7359H153.963V54.5283Z" fill="#2666FF"/>
  <path d="M163.586 54.5283H160.379V57.7359H163.586V54.5283Z" fill="#2666FF"/>
  <path d="M9.62356 57.7358H6.41602V60.9434H9.62356V57.7358Z" fill="#2666FF"/>
  <path d="M12.8306 57.7358H9.62305V60.9434H12.8306V57.7358Z" fill="#2666FF"/>
  <path d="M19.2466 57.7358H16.0391V60.9434H19.2466V57.7358Z" fill="#2666FF"/>
  <path d="M25.6607 57.7358H22.4531V60.9434H25.6607V57.7358Z" fill="#2666FF"/>
  <path d="M28.8697 57.7358H25.6621V60.9434H28.8697V57.7358Z" fill="#2666FF"/>
  <path d="M35.2837 57.7358H32.0762V60.9434H35.2837V57.7358Z" fill="#2666FF"/>
  <path d="M38.4908 57.7358H35.2832V60.9434H38.4908V57.7358Z" fill="#2666FF"/>
  <path d="M60.9439 57.7358H57.7363V60.9434H60.9439V57.7358Z" fill="#2666FF"/>
  <path d="M64.1509 57.7358H60.9434V60.9434H64.1509V57.7358Z" fill="#2666FF"/>
  <path d="M67.3599 57.7358H64.1523V60.9434H67.3599V57.7358Z" fill="#2666FF"/>
  <path d="M70.5669 57.7358H67.3594V60.9434H70.5669V57.7358Z" fill="#2666FF"/>
  <path d="M99.4341 57.7358H96.2266V60.9434H99.4341V57.7358Z" fill="#2666FF"/>
  <path d="M102.643 57.7358H99.4355V60.9434H102.643V57.7358Z" fill="#2666FF"/>
  <path d="M105.85 57.7358H102.643V60.9434H105.85V57.7358Z" fill="#2666FF"/>
  <path d="M109.057 57.7358H105.85V60.9434H109.057V57.7358Z" fill="#2666FF"/>
  <path d="M121.887 57.7358H118.68V60.9434H121.887V57.7358Z" fill="#2666FF"/>
  <path d="M125.096 57.7358H121.889V60.9434H125.096V57.7358Z" fill="#2666FF"/>
  <path d="M128.303 57.7358H125.096V60.9434H128.303V57.7358Z" fill="#2666FF"/>
  <path d="M134.717 57.7358H131.51V60.9434H134.717V57.7358Z" fill="#2666FF"/>
  <path d="M147.547 57.7358H144.34V60.9434H147.547V57.7358Z" fill="#2666FF"/>
  <path d="M163.586 57.7358H160.379V60.9434H163.586V57.7358Z" fill="#2666FF"/>
  <path d="M12.8306 60.9434H9.62305V64.1509H12.8306V60.9434Z" fill="#2666FF"/>
  <path d="M25.6607 60.9434H22.4531V64.1509H25.6607V60.9434Z" fill="#2666FF"/>
  <path d="M35.2837 60.9434H32.0762V64.1509H35.2837V60.9434Z" fill="#2666FF"/>
  <path d="M48.1138 60.9434H44.9062V64.1509H48.1138V60.9434Z" fill="#2666FF"/>
  <path d="M51.3208 60.9434H48.1133V64.1509H51.3208V60.9434Z" fill="#2666FF"/>
  <path d="M54.5298 60.9434H51.3223V64.1509H54.5298V60.9434Z" fill="#2666FF"/>
  <path d="M60.9439 60.9434H57.7363V64.1509H60.9439V60.9434Z" fill="#2666FF"/>
  <path d="M64.1509 60.9434H60.9434V64.1509H64.1509V60.9434Z" fill="#2666FF"/>
  <path d="M67.3599 60.9434H64.1523V64.1509H67.3599V60.9434Z" fill="#2666FF"/>
  <path d="M70.5669 60.9434H67.3594V64.1509H70.5669V60.9434Z" fill="#2666FF"/>
  <path d="M73.774 60.9434H70.5664V64.1509H73.774V60.9434Z" fill="#2666FF"/>
  <path d="M80.19 60.9434H76.9824V64.1509H80.19V60.9434Z" fill="#2666FF"/>
  <path d="M86.604 60.9434H83.3965V64.1509H86.604V60.9434Z" fill="#2666FF"/>
  <path d="M89.813 60.9434H86.6055V64.1509H89.813V60.9434Z" fill="#2666FF"/>
  <path d="M93.02 60.9434H89.8125V64.1509H93.02V60.9434Z" fill="#2666FF"/>
  <path d="M96.2271 60.9434H93.0195V64.1509H96.2271V60.9434Z" fill="#2666FF"/>
  <path d="M105.85 60.9434H102.643V64.1509H105.85V60.9434Z" fill="#2666FF"/>
  <path d="M112.264 60.9434H109.057V64.1509H112.264V60.9434Z" fill="#2666FF"/>
  <path d="M115.473 60.9434H112.266V64.1509H115.473V60.9434Z" fill="#2666FF"/>
  <path d="M121.887 60.9434H118.68V64.1509H121.887V60.9434Z" fill="#2666FF"/>
  <path d="M125.096 60.9434H121.889V64.1509H125.096V60.9434Z" fill="#2666FF"/>
  <path d="M137.926 60.9434H134.719V64.1509H137.926V60.9434Z" fill="#2666FF"/>
  <path d="M141.133 60.9434H137.926V64.1509H141.133V60.9434Z" fill="#2666FF"/>
  <path d="M147.547 60.9434H144.34V64.1509H147.547V60.9434Z" fill="#2666FF"/>
  <path d="M150.756 60.9434H147.549V64.1509H150.756V60.9434Z" fill="#2666FF"/>
  <path d="M153.963 60.9434H150.756V64.1509H153.963V60.9434Z" fill="#2666FF"/>
  <path d="M157.17 60.9434H153.963V64.1509H157.17V60.9434Z" fill="#2666FF"/>
  <path d="M16.0396 64.1509H12.832V67.3584H16.0396V64.1509Z" fill="#2666FF"/>
  <path d="M22.4536 64.1509H19.2461V67.3584H22.4536V64.1509Z" fill="#2666FF"/>
  <path d="M28.8697 64.1509H25.6621V67.3584H28.8697V64.1509Z" fill="#2666FF"/>
  <path d="M32.0767 64.1509H28.8691V67.3584H32.0767V64.1509Z" fill="#2666FF"/>
  <path d="M35.2837 64.1509H32.0762V67.3584H35.2837V64.1509Z" fill="#2666FF"/>
  <path d="M38.4908 64.1509H35.2832V67.3584H38.4908V64.1509Z" fill="#2666FF"/>
  <path d="M48.1138 64.1509H44.9062V67.3584H48.1138V64.1509Z" fill="#2666FF"/>
  <path d="M54.5298 64.1509H51.3223V67.3584H54.5298V64.1509Z" fill="#2666FF"/>
  <path d="M57.7368 64.1509H54.5293V67.3584H57.7368V64.1509Z" fill="#2666FF"/>
  <path d="M60.9439 64.1509H57.7363V67.3584H60.9439V64.1509Z" fill="#2666FF"/>
  <path d="M67.3599 64.1509H64.1523V67.3584H67.3599V64.1509Z" fill="#2666FF"/>
  <path d="M76.9829 64.1509H73.7754V67.3584H76.9829V64.1509Z" fill="#2666FF"/>
  <path d="M89.813 64.1509H86.6055V67.3584H89.813V64.1509Z" fill="#2666FF"/>
  <path d="M93.02 64.1509H89.8125V67.3584H93.02V64.1509Z" fill="#2666FF"/>
  <path d="M99.4341 64.1509H96.2266V67.3584H99.4341V64.1509Z" fill="#2666FF"/>
  <path d="M102.643 64.1509H99.4355V67.3584H102.643V64.1509Z" fill="#2666FF"/>
  <path d="M105.85 64.1509H102.643V67.3584H105.85V64.1509Z" fill="#2666FF"/>
  <path d="M121.887 64.1509H118.68V67.3584H121.887V64.1509Z" fill="#2666FF"/>
  <path d="M125.096 64.1509H121.889V67.3584H125.096V64.1509Z" fill="#2666FF"/>
  <path d="M128.303 64.1509H125.096V67.3584H128.303V64.1509Z" fill="#2666FF"/>
  <path d="M134.717 64.1509H131.51V67.3584H134.717V64.1509Z" fill="#2666FF"/>
  <path d="M137.926 64.1509H134.719V67.3584H137.926V64.1509Z" fill="#2666FF"/>
  <path d="M144.34 64.1509H141.133V67.3584H144.34V64.1509Z" fill="#2666FF"/>
  <path d="M147.547 64.1509H144.34V67.3584H147.547V64.1509Z" fill="#2666FF"/>
  <path d="M150.756 64.1509H147.549V67.3584H150.756V64.1509Z" fill="#2666FF"/>
  <path d="M153.963 64.1509H150.756V67.3584H153.963V64.1509Z" fill="#2666FF"/>
  <path d="M160.377 64.1509H157.17V67.3584H160.377V64.1509Z" fill="#2666FF"/>
  <path d="M163.586 64.1509H160.379V67.3584H163.586V64.1509Z" fill="#2666FF"/>
  <path d="M9.62356 67.3584H6.41602V70.5659H9.62356V67.3584Z" fill="#2666FF"/>
  <path d="M16.0396 67.3584H12.832V70.5659H16.0396V67.3584Z" fill="#2666FF"/>
  <path d="M35.2837 67.3584H32.0762V70.5659H35.2837V67.3584Z" fill="#2666FF"/>
  <path d="M38.4908 67.3584H35.2832V70.5659H38.4908V67.3584Z" fill="#2666FF"/>
  <path d="M44.9068 67.3584H41.6992V70.5659H44.9068V67.3584Z" fill="#2666FF"/>
  <path d="M48.1138 67.3584H44.9062V70.5659H48.1138V67.3584Z" fill="#2666FF"/>
  <path d="M51.3208 67.3584H48.1133V70.5659H51.3208V67.3584Z" fill="#2666FF"/>
  <path d="M67.3599 67.3584H64.1523V70.5659H67.3599V67.3584Z" fill="#2666FF"/>
  <path d="M73.774 67.3584H70.5664V70.5659H73.774V67.3584Z" fill="#2666FF"/>
  <path d="M80.19 67.3584H76.9824V70.5659H80.19V67.3584Z" fill="#2666FF"/>
  <path d="M86.604 67.3584H83.3965V70.5659H86.604V67.3584Z" fill="#2666FF"/>
  <path d="M89.813 67.3584H86.6055V70.5659H89.813V67.3584Z" fill="#2666FF"/>
  <path d="M93.02 67.3584H89.8125V70.5659H93.02V67.3584Z" fill="#2666FF"/>
  <path d="M96.2271 67.3584H93.0195V70.5659H96.2271V67.3584Z" fill="#2666FF"/>
  <path d="M99.4341 67.3584H96.2266V70.5659H99.4341V67.3584Z" fill="#2666FF"/>
  <path d="M109.057 67.3584H105.85V70.5659H109.057V67.3584Z" fill="#2666FF"/>
  <path d="M112.264 67.3584H109.057V70.5659H112.264V67.3584Z" fill="#2666FF"/>
  <path d="M121.887 67.3584H118.68V70.5659H121.887V67.3584Z" fill="#2666FF"/>
  <path d="M128.303 67.3584H125.096V70.5659H128.303V67.3584Z" fill="#2666FF"/>
  <path d="M131.51 67.3584H128.303V70.5659H131.51V67.3584Z" fill="#2666FF"/>
  <path d="M137.926 67.3584H134.719V70.5659H137.926V67.3584Z" fill="#2666FF"/>
  <path d="M144.34 67.3584H141.133V70.5659H144.34V67.3584Z" fill="#2666FF"/>
  <path d="M147.547 67.3584H144.34V70.5659H147.547V67.3584Z" fill="#2666FF"/>
  <path d="M150.756 67.3584H147.549V70.5659H150.756V67.3584Z" fill="#2666FF"/>
  <path d="M22.4536 70.5659H19.2461V73.7735H22.4536V70.5659Z" fill="#2666FF"/>
  <path d="M25.6607 70.5659H22.4531V73.7735H25.6607V70.5659Z" fill="#2666FF"/>
  <path d="M28.8697 70.5659H25.6621V73.7735H28.8697V70.5659Z" fill="#2666FF"/>
  <path d="M41.6997 70.5659H38.4922V73.7735H41.6997V70.5659Z" fill="#2666FF"/>
  <path d="M48.1138 70.5659H44.9062V73.7735H48.1138V70.5659Z" fill="#2666FF"/>
  <path d="M54.5298 70.5659H51.3223V73.7735H54.5298V70.5659Z" fill="#2666FF"/>
  <path d="M57.7368 70.5659H54.5293V73.7735H57.7368V70.5659Z" fill="#2666FF"/>
  <path d="M60.9439 70.5659H57.7363V73.7735H60.9439V70.5659Z" fill="#2666FF"/>
  <path d="M64.1509 70.5659H60.9434V73.7735H64.1509V70.5659Z" fill="#2666FF"/>
  <path d="M67.3599 70.5659H64.1523V73.7735H67.3599V70.5659Z" fill="#2666FF"/>
  <path d="M73.774 70.5659H70.5664V73.7735H73.774V70.5659Z" fill="#2666FF"/>
  <path d="M80.19 70.5659H76.9824V73.7735H80.19V70.5659Z" fill="#2666FF"/>
  <path d="M83.397 70.5659H80.1895V73.7735H83.397V70.5659Z" fill="#2666FF"/>
  <path d="M89.813 70.5659H86.6055V73.7735H89.813V70.5659Z" fill="#2666FF"/>
  <path d="M99.4341 70.5659H96.2266V73.7735H99.4341V70.5659Z" fill="#2666FF"/>
  <path d="M102.643 70.5659H99.4355V73.7735H102.643V70.5659Z" fill="#2666FF"/>
  <path d="M115.473 70.5659H112.266V73.7735H115.473V70.5659Z" fill="#2666FF"/>
  <path d="M118.68 70.5659H115.473V73.7735H118.68V70.5659Z" fill="#2666FF"/>
  <path d="M125.096 70.5659H121.889V73.7735H125.096V70.5659Z" fill="#2666FF"/>
  <path d="M128.303 70.5659H125.096V73.7735H128.303V70.5659Z" fill="#2666FF"/>
  <path d="M131.51 70.5659H128.303V73.7735H131.51V70.5659Z" fill="#2666FF"/>
  <path d="M137.926 70.5659H134.719V73.7735H137.926V70.5659Z" fill="#2666FF"/>
  <path d="M144.34 70.5659H141.133V73.7735H144.34V70.5659Z" fill="#2666FF"/>
  <path d="M147.547 70.5659H144.34V73.7735H147.547V70.5659Z" fill="#2666FF"/>
  <path d="M157.17 70.5659H153.963V73.7735H157.17V70.5659Z" fill="#2666FF"/>
  <path d="M160.377 70.5659H157.17V73.7735H160.377V70.5659Z" fill="#2666FF"/>
  <path d="M9.62356 73.7734H6.41602V76.981H9.62356V73.7734Z" fill="#2666FF"/>
  <path d="M12.8306 73.7734H9.62305V76.981H12.8306V73.7734Z" fill="#2666FF"/>
  <path d="M16.0396 73.7734H12.832V76.981H16.0396V73.7734Z" fill="#2666FF"/>
  <path d="M22.4536 73.7734H19.2461V76.981H22.4536V73.7734Z" fill="#2666FF"/>
  <path d="M32.0767 73.7734H28.8691V76.981H32.0767V73.7734Z" fill="#2666FF"/>
  <path d="M38.4908 73.7734H35.2832V76.981H38.4908V73.7734Z" fill="#2666FF"/>
  <path d="M44.9068 73.7734H41.6992V76.981H44.9068V73.7734Z" fill="#2666FF"/>
  <path d="M60.9439 73.7734H57.7363V76.981H60.9439V73.7734Z" fill="#2666FF"/>
  <path d="M67.3599 73.7734H64.1523V76.981H67.3599V73.7734Z" fill="#2666FF"/>
  <path d="M70.5669 73.7734H67.3594V76.981H70.5669V73.7734Z" fill="#2666FF"/>
  <path d="M89.813 73.7734H86.6055V76.981H89.813V73.7734Z" fill="#2666FF"/>
  <path d="M93.02 73.7734H89.8125V76.981H93.02V73.7734Z" fill="#2666FF"/>
  <path d="M96.2271 73.7734H93.0195V76.981H96.2271V73.7734Z" fill="#2666FF"/>
  <path d="M99.4341 73.7734H96.2266V76.981H99.4341V73.7734Z" fill="#2666FF"/>
  <path d="M102.643 73.7734H99.4355V76.981H102.643V73.7734Z" fill="#2666FF"/>
  <path d="M105.85 73.7734H102.643V76.981H105.85V73.7734Z" fill="#2666FF"/>
  <path d="M109.057 73.7734H105.85V76.981H109.057V73.7734Z" fill="#2666FF"/>
  <path d="M121.887 73.7734H118.68V76.981H121.887V73.7734Z" fill="#2666FF"/>
  <path d="M134.717 73.7734H131.51V76.981H134.717V73.7734Z" fill="#2666FF"/>
  <path d="M141.133 73.7734H137.926V76.981H141.133V73.7734Z" fill="#2666FF"/>
  <path d="M144.34 73.7734H141.133V76.981H144.34V73.7734Z" fill="#2666FF"/>
  <path d="M16.0396 76.981H12.832V80.1885H16.0396V76.981Z" fill="#2666FF"/>
  <path d="M22.4536 76.981H19.2461V80.1885H22.4536V76.981Z" fill="#2666FF"/>
  <path d="M25.6607 76.981H22.4531V80.1885H25.6607V76.981Z" fill="#2666FF"/>
  <path d="M28.8697 76.981H25.6621V80.1885H28.8697V76.981Z" fill="#2666FF"/>
  <path d="M32.0767 76.981H28.8691V80.1885H32.0767V76.981Z" fill="#2666FF"/>
  <path d="M35.2837 76.981H32.0762V80.1885H35.2837V76.981Z" fill="#2666FF"/>
  <path d="M41.6997 76.981H38.4922V80.1885H41.6997V76.981Z" fill="#2666FF"/>
  <path d="M48.1138 76.981H44.9062V80.1885H48.1138V76.981Z" fill="#2666FF"/>
  <path d="M60.9439 76.981H57.7363V80.1885H60.9439V76.981Z" fill="#2666FF"/>
  <path d="M64.1509 76.981H60.9434V80.1885H64.1509V76.981Z" fill="#2666FF"/>
  <path d="M67.3599 76.981H64.1523V80.1885H67.3599V76.981Z" fill="#2666FF"/>
  <path d="M73.774 76.981H70.5664V80.1885H73.774V76.981Z" fill="#2666FF"/>
  <path d="M76.9829 76.981H73.7754V80.1885H76.9829V76.981Z" fill="#2666FF"/>
  <path d="M80.19 76.981H76.9824V80.1885H80.19V76.981Z" fill="#2666FF"/>
  <path d="M83.397 76.981H80.1895V80.1885H83.397V76.981Z" fill="#2666FF"/>
  <path d="M86.604 76.981H83.3965V80.1885H86.604V76.981Z" fill="#2666FF"/>
  <path d="M89.813 76.981H86.6055V80.1885H89.813V76.981Z" fill="#2666FF"/>
  <path d="M93.02 76.981H89.8125V80.1885H93.02V76.981Z" fill="#2666FF"/>
  <path d="M96.2271 76.981H93.0195V80.1885H96.2271V76.981Z" fill="#2666FF"/>
  <path d="M112.264 76.981H109.057V80.1885H112.264V76.981Z" fill="#2666FF"/>
  <path d="M115.473 76.981H112.266V80.1885H115.473V76.981Z" fill="#2666FF"/>
  <path d="M118.68 76.981H115.473V80.1885H118.68V76.981Z" fill="#2666FF"/>
  <path d="M121.887 76.981H118.68V80.1885H121.887V76.981Z" fill="#2666FF"/>
  <path d="M131.51 76.981H128.303V80.1885H131.51V76.981Z" fill="#2666FF"/>
  <path d="M137.926 76.981H134.719V80.1885H137.926V76.981Z" fill="#2666FF"/>
  <path d="M141.133 76.981H137.926V80.1885H141.133V76.981Z" fill="#2666FF"/>
  <path d="M144.34 76.981H141.133V80.1885H144.34V76.981Z" fill="#2666FF"/>
  <path d="M147.547 76.981H144.34V80.1885H147.547V76.981Z" fill="#2666FF"/>
  <path d="M150.756 76.981H147.549V80.1885H150.756V76.981Z" fill="#2666FF"/>
  <path d="M160.377 76.981H157.17V80.1885H160.377V76.981Z" fill="#2666FF"/>
  <path d="M163.586 76.981H160.379V80.1885H163.586V76.981Z" fill="#2666FF"/>
  <path d="M16.0396 80.1885H12.832V83.396H16.0396V80.1885Z" fill="#2666FF"/>
  <path d="M22.4536 80.1885H19.2461V83.396H22.4536V80.1885Z" fill="#2666FF"/>
  <path d="M35.2837 80.1885H32.0762V83.396H35.2837V80.1885Z" fill="#2666FF"/>
  <path d="M41.6997 80.1885H38.4922V83.396H41.6997V80.1885Z" fill="#2666FF"/>
  <path d="M44.9068 80.1885H41.6992V83.396H44.9068V80.1885Z" fill="#2666FF"/>
  <path d="M51.3208 80.1885H48.1133V83.396H51.3208V80.1885Z" fill="#2666FF"/>
  <path d="M54.5298 80.1885H51.3223V83.396H54.5298V80.1885Z" fill="#2666FF"/>
  <path d="M60.9439 80.1885H57.7363V83.396H60.9439V80.1885Z" fill="#2666FF"/>
  <path d="M64.1509 80.1885H60.9434V83.396H64.1509V80.1885Z" fill="#2666FF"/>
  <path d="M67.3599 80.1885H64.1523V83.396H67.3599V80.1885Z" fill="#2666FF"/>
  <path d="M70.5669 80.1885H67.3594V83.396H70.5669V80.1885Z" fill="#2666FF"/>
  <path d="M76.9829 80.1885H73.7754V83.396H76.9829V80.1885Z" fill="#2666FF"/>
  <path d="M80.19 80.1885H76.9824V83.396H80.19V80.1885Z" fill="#2666FF"/>
  <path d="M93.02 80.1885H89.8125V83.396H93.02V80.1885Z" fill="#2666FF"/>
  <path d="M96.2271 80.1885H93.0195V83.396H96.2271V80.1885Z" fill="#2666FF"/>
  <path d="M105.85 80.1885H102.643V83.396H105.85V80.1885Z" fill="#2666FF"/>
  <path d="M109.057 80.1885H105.85V83.396H109.057V80.1885Z" fill="#2666FF"/>
  <path d="M112.264 80.1885H109.057V83.396H112.264V80.1885Z" fill="#2666FF"/>
  <path d="M128.303 80.1885H125.096V83.396H128.303V80.1885Z" fill="#2666FF"/>
  <path d="M131.51 80.1885H128.303V83.396H131.51V80.1885Z" fill="#2666FF"/>
  <path d="M137.926 80.1885H134.719V83.396H137.926V80.1885Z" fill="#2666FF"/>
  <path d="M150.756 80.1885H147.549V83.396H150.756V80.1885Z" fill="#2666FF"/>
  <path d="M160.377 80.1885H157.17V83.396H160.377V80.1885Z" fill="#2666FF"/>
  <path d="M163.586 80.1885H160.379V83.396H163.586V80.1885Z" fill="#2666FF"/>
  <path d="M12.8306 83.396H9.62305V86.6035H12.8306V83.396Z" fill="#2666FF"/>
  <path d="M16.0396 83.396H12.832V86.6035H16.0396V83.396Z" fill="#2666FF"/>
  <path d="M22.4536 83.396H19.2461V86.6035H22.4536V83.396Z" fill="#2666FF"/>
  <path d="M28.8697 83.396H25.6621V86.6035H28.8697V83.396Z" fill="#2666FF"/>
  <path d="M35.2837 83.396H32.0762V86.6035H35.2837V83.396Z" fill="#2666FF"/>
  <path d="M38.4908 83.396H35.2832V86.6035H38.4908V83.396Z" fill="#2666FF"/>
  <path d="M41.6997 83.396H38.4922V86.6035H41.6997V83.396Z" fill="#2666FF"/>
  <path d="M44.9068 83.396H41.6992V86.6035H44.9068V83.396Z" fill="#2666FF"/>
  <path d="M57.7368 83.396H54.5293V86.6035H57.7368V83.396Z" fill="#2666FF"/>
  <path d="M60.9439 83.396H57.7363V86.6035H60.9439V83.396Z" fill="#2666FF"/>
  <path d="M64.1509 83.396H60.9434V86.6035H64.1509V83.396Z" fill="#2666FF"/>
  <path d="M70.5669 83.396H67.3594V86.6035H70.5669V83.396Z" fill="#2666FF"/>
  <path d="M76.9829 83.396H73.7754V86.6035H76.9829V83.396Z" fill="#2666FF"/>
  <path d="M80.19 83.396H76.9824V86.6035H80.19V83.396Z" fill="#2666FF"/>
  <path d="M86.604 83.396H83.3965V86.6035H86.604V83.396Z" fill="#2666FF"/>
  <path d="M93.02 83.396H89.8125V86.6035H93.02V83.396Z" fill="#2666FF"/>
  <path d="M99.4341 83.396H96.2266V86.6035H99.4341V83.396Z" fill="#2666FF"/>
  <path d="M102.643 83.396H99.4355V86.6035H102.643V83.396Z" fill="#2666FF"/>
  <path d="M109.057 83.396H105.85V86.6035H109.057V83.396Z" fill="#2666FF"/>
  <path d="M125.096 83.396H121.889V86.6035H125.096V83.396Z" fill="#2666FF"/>
  <path d="M128.303 83.396H125.096V86.6035H128.303V83.396Z" fill="#2666FF"/>
  <path d="M131.51 83.396H128.303V86.6035H131.51V83.396Z" fill="#2666FF"/>
  <path d="M134.717 83.396H131.51V86.6035H134.717V83.396Z" fill="#2666FF"/>
  <path d="M137.926 83.396H134.719V86.6035H137.926V83.396Z" fill="#2666FF"/>
  <path d="M144.34 83.396H141.133V86.6035H144.34V83.396Z" fill="#2666FF"/>
  <path d="M150.756 83.396H147.549V86.6035H150.756V83.396Z" fill="#2666FF"/>
  <path d="M157.17 83.396H153.963V86.6035H157.17V83.396Z" fill="#2666FF"/>
  <path d="M22.4536 86.6035H19.2461V89.8111H22.4536V86.6035Z" fill="#2666FF"/>
  <path d="M35.2837 86.6035H32.0762V89.8111H35.2837V86.6035Z" fill="#2666FF"/>
  <path d="M44.9068 86.6035H41.6992V89.8111H44.9068V86.6035Z" fill="#2666FF"/>
  <path d="M51.3208 86.6035H48.1133V89.8111H51.3208V86.6035Z" fill="#2666FF"/>
  <path d="M57.7368 86.6035H54.5293V89.8111H57.7368V86.6035Z" fill="#2666FF"/>
  <path d="M60.9439 86.6035H57.7363V89.8111H60.9439V86.6035Z" fill="#2666FF"/>
  <path d="M64.1509 86.6035H60.9434V89.8111H64.1509V86.6035Z" fill="#2666FF"/>
  <path d="M76.9829 86.6035H73.7754V89.8111H76.9829V86.6035Z" fill="#2666FF"/>
  <path d="M80.19 86.6035H76.9824V89.8111H80.19V86.6035Z" fill="#2666FF"/>
  <path d="M93.02 86.6035H89.8125V89.8111H93.02V86.6035Z" fill="#2666FF"/>
  <path d="M96.2271 86.6035H93.0195V89.8111H96.2271V86.6035Z" fill="#2666FF"/>
  <path d="M99.4341 86.6035H96.2266V89.8111H99.4341V86.6035Z" fill="#2666FF"/>
  <path d="M105.85 86.6035H102.643V89.8111H105.85V86.6035Z" fill="#2666FF"/>
  <path d="M109.057 86.6035H105.85V89.8111H109.057V86.6035Z" fill="#2666FF"/>
  <path d="M125.096 86.6035H121.889V89.8111H125.096V86.6035Z" fill="#2666FF"/>
  <path d="M128.303 86.6035H125.096V89.8111H128.303V86.6035Z" fill="#2666FF"/>
  <path d="M134.717 86.6035H131.51V89.8111H134.717V86.6035Z" fill="#2666FF"/>
  <path d="M137.926 86.6035H134.719V89.8111H137.926V86.6035Z" fill="#2666FF"/>
  <path d="M150.756 86.6035H147.549V89.8111H150.756V86.6035Z" fill="#2666FF"/>
  <path d="M153.963 86.6035H150.756V89.8111H153.963V86.6035Z" fill="#2666FF"/>
  <path d="M163.586 86.6035H160.379V89.8111H163.586V86.6035Z" fill="#2666FF"/>
  <path d="M12.8306 89.811H9.62305V93.0186H12.8306V89.811Z" fill="#2666FF"/>
  <path d="M16.0396 89.811H12.832V93.0186H16.0396V89.811Z" fill="#2666FF"/>
  <path d="M22.4536 89.811H19.2461V93.0186H22.4536V89.811Z" fill="#2666FF"/>
  <path d="M25.6607 89.811H22.4531V93.0186H25.6607V89.811Z" fill="#2666FF"/>
  <path d="M28.8697 89.811H25.6621V93.0186H28.8697V89.811Z" fill="#2666FF"/>
  <path d="M32.0767 89.811H28.8691V93.0186H32.0767V89.811Z" fill="#2666FF"/>
  <path d="M35.2837 89.811H32.0762V93.0186H35.2837V89.811Z" fill="#2666FF"/>
  <path d="M44.9068 89.811H41.6992V93.0186H44.9068V89.811Z" fill="#2666FF"/>
  <path d="M48.1138 89.811H44.9062V93.0186H48.1138V89.811Z" fill="#2666FF"/>
  <path d="M57.7368 89.811H54.5293V93.0186H57.7368V89.811Z" fill="#2666FF"/>
  <path d="M64.1509 89.811H60.9434V93.0186H64.1509V89.811Z" fill="#2666FF"/>
  <path d="M70.5669 89.811H67.3594V93.0186H70.5669V89.811Z" fill="#2666FF"/>
  <path d="M73.774 89.811H70.5664V93.0186H73.774V89.811Z" fill="#2666FF"/>
  <path d="M80.19 89.811H76.9824V93.0186H80.19V89.811Z" fill="#2666FF"/>
  <path d="M83.397 89.811H80.1895V93.0186H83.397V89.811Z" fill="#2666FF"/>
  <path d="M86.604 89.811H83.3965V93.0186H86.604V89.811Z" fill="#2666FF"/>
  <path d="M89.813 89.811H86.6055V93.0186H89.813V89.811Z" fill="#2666FF"/>
  <path d="M93.02 89.811H89.8125V93.0186H93.02V89.811Z" fill="#2666FF"/>
  <path d="M99.4341 89.811H96.2266V93.0186H99.4341V89.811Z" fill="#2666FF"/>
  <path d="M109.057 89.811H105.85V93.0186H109.057V89.811Z" fill="#2666FF"/>
  <path d="M118.68 89.811H115.473V93.0186H118.68V89.811Z" fill="#2666FF"/>
  <path d="M121.887 89.811H118.68V93.0186H121.887V89.811Z" fill="#2666FF"/>
  <path d="M125.096 89.811H121.889V93.0186H125.096V89.811Z" fill="#2666FF"/>
  <path d="M131.51 89.811H128.303V93.0186H131.51V89.811Z" fill="#2666FF"/>
  <path d="M134.717 89.811H131.51V93.0186H134.717V89.811Z" fill="#2666FF"/>
  <path d="M137.926 89.811H134.719V93.0186H137.926V89.811Z" fill="#2666FF"/>
  <path d="M141.133 89.811H137.926V93.0186H141.133V89.811Z" fill="#2666FF"/>
  <path d="M144.34 89.811H141.133V93.0186H144.34V89.811Z" fill="#2666FF"/>
  <path d="M147.547 89.811H144.34V93.0186H147.547V89.811Z" fill="#2666FF"/>
  <path d="M150.756 89.811H147.549V93.0186H150.756V89.811Z" fill="#2666FF"/>
  <path d="M153.963 89.811H150.756V93.0186H153.963V89.811Z" fill="#2666FF"/>
  <path d="M157.17 89.811H153.963V93.0186H157.17V89.811Z" fill="#2666FF"/>
  <path d="M160.377 89.811H157.17V93.0186H160.377V89.811Z" fill="#2666FF"/>
  <path d="M9.62356 93.019H6.41602V96.2266H9.62356V93.019Z" fill="#2666FF"/>
  <path d="M12.8306 93.019H9.62305V96.2266H12.8306V93.019Z" fill="#2666FF"/>
  <path d="M16.0396 93.019H12.832V96.2266H16.0396V93.019Z" fill="#2666FF"/>
  <path d="M32.0767 93.019H28.8691V96.2266H32.0767V93.019Z" fill="#2666FF"/>
  <path d="M35.2837 93.019H32.0762V96.2266H35.2837V93.019Z" fill="#2666FF"/>
  <path d="M41.6997 93.019H38.4922V96.2266H41.6997V93.019Z" fill="#2666FF"/>
  <path d="M44.9068 93.019H41.6992V96.2266H44.9068V93.019Z" fill="#2666FF"/>
  <path d="M51.3208 93.019H48.1133V96.2266H51.3208V93.019Z" fill="#2666FF"/>
  <path d="M57.7368 93.019H54.5293V96.2266H57.7368V93.019Z" fill="#2666FF"/>
  <path d="M67.3599 93.019H64.1523V96.2266H67.3599V93.019Z" fill="#2666FF"/>
  <path d="M70.5669 93.019H67.3594V96.2266H70.5669V93.019Z" fill="#2666FF"/>
  <path d="M76.9829 93.019H73.7754V96.2266H76.9829V93.019Z" fill="#2666FF"/>
  <path d="M80.19 93.019H76.9824V96.2266H80.19V93.019Z" fill="#2666FF"/>
  <path d="M83.397 93.019H80.1895V96.2266H83.397V93.019Z" fill="#2666FF"/>
  <path d="M89.813 93.019H86.6055V96.2266H89.813V93.019Z" fill="#2666FF"/>
  <path d="M93.02 93.019H89.8125V96.2266H93.02V93.019Z" fill="#2666FF"/>
  <path d="M96.2271 93.019H93.0195V96.2266H96.2271V93.019Z" fill="#2666FF"/>
  <path d="M102.643 93.019H99.4355V96.2266H102.643V93.019Z" fill="#2666FF"/>
  <path d="M105.85 93.019H102.643V96.2266H105.85V93.019Z" fill="#2666FF"/>
  <path d="M112.264 93.019H109.057V96.2266H112.264V93.019Z" fill="#2666FF"/>
  <path d="M137.926 93.019H134.719V96.2266H137.926V93.019Z" fill="#2666FF"/>
  <path d="M141.133 93.019H137.926V96.2266H141.133V93.019Z" fill="#2666FF"/>
  <path d="M147.547 93.019H144.34V96.2266H147.547V93.019Z" fill="#2666FF"/>
  <path d="M153.963 93.019H150.756V96.2266H153.963V93.019Z" fill="#2666FF"/>
  <path d="M9.62356 96.2266H6.41602V99.4341H9.62356V96.2266Z" fill="#2666FF"/>
  <path d="M12.8306 96.2266H9.62305V99.4341H12.8306V96.2266Z" fill="#2666FF"/>
  <path d="M19.2466 96.2266H16.0391V99.4341H19.2466V96.2266Z" fill="#2666FF"/>
  <path d="M25.6607 96.2266H22.4531V99.4341H25.6607V96.2266Z" fill="#2666FF"/>
  <path d="M28.8697 96.2266H25.6621V99.4341H28.8697V96.2266Z" fill="#2666FF"/>
  <path d="M51.3208 96.2266H48.1133V99.4341H51.3208V96.2266Z" fill="#2666FF"/>
  <path d="M54.5298 96.2266H51.3223V99.4341H54.5298V96.2266Z" fill="#2666FF"/>
  <path d="M57.7368 96.2266H54.5293V99.4341H57.7368V96.2266Z" fill="#2666FF"/>
  <path d="M60.9439 96.2266H57.7363V99.4341H60.9439V96.2266Z" fill="#2666FF"/>
  <path d="M64.1509 96.2266H60.9434V99.4341H64.1509V96.2266Z" fill="#2666FF"/>
  <path d="M67.3599 96.2266H64.1523V99.4341H67.3599V96.2266Z" fill="#2666FF"/>
  <path d="M70.5669 96.2266H67.3594V99.4341H70.5669V96.2266Z" fill="#2666FF"/>
  <path d="M80.19 96.2266H76.9824V99.4341H80.19V96.2266Z" fill="#2666FF"/>
  <path d="M86.604 96.2266H83.3965V99.4341H86.604V96.2266Z" fill="#2666FF"/>
  <path d="M89.813 96.2266H86.6055V99.4341H89.813V96.2266Z" fill="#2666FF"/>
  <path d="M96.2271 96.2266H93.0195V99.4341H96.2271V96.2266Z" fill="#2666FF"/>
  <path d="M102.643 96.2266H99.4355V99.4341H102.643V96.2266Z" fill="#2666FF"/>
  <path d="M105.85 96.2266H102.643V99.4341H105.85V96.2266Z" fill="#2666FF"/>
  <path d="M109.057 96.2266H105.85V99.4341H109.057V96.2266Z" fill="#2666FF"/>
  <path d="M118.68 96.2266H115.473V99.4341H118.68V96.2266Z" fill="#2666FF"/>
  <path d="M125.096 96.2266H121.889V99.4341H125.096V96.2266Z" fill="#2666FF"/>
  <path d="M128.303 96.2266H125.096V99.4341H128.303V96.2266Z" fill="#2666FF"/>
  <path d="M134.717 96.2266H131.51V99.4341H134.717V96.2266Z" fill="#2666FF"/>
  <path d="M141.133 96.2266H137.926V99.4341H141.133V96.2266Z" fill="#2666FF"/>
  <path d="M144.34 96.2266H141.133V99.4341H144.34V96.2266Z" fill="#2666FF"/>
  <path d="M147.547 96.2266H144.34V99.4341H147.547V96.2266Z" fill="#2666FF"/>
  <path d="M157.17 96.2266H153.963V99.4341H157.17V96.2266Z" fill="#2666FF"/>
  <path d="M160.377 96.2266H157.17V99.4341H160.377V96.2266Z" fill="#2666FF"/>
  <path d="M12.8306 99.4341H9.62305V102.642H12.8306V99.4341Z" fill="#2666FF"/>
  <path d="M19.2466 99.4341H16.0391V102.642H19.2466V99.4341Z" fill="#2666FF"/>
  <path d="M22.4536 99.4341H19.2461V102.642H22.4536V99.4341Z" fill="#2666FF"/>
  <path d="M32.0767 99.4341H28.8691V102.642H32.0767V99.4341Z" fill="#2666FF"/>
  <path d="M35.2837 99.4341H32.0762V102.642H35.2837V99.4341Z" fill="#2666FF"/>
  <path d="M38.4908 99.4341H35.2832V102.642H38.4908V99.4341Z" fill="#2666FF"/>
  <path d="M41.6997 99.4341H38.4922V102.642H41.6997V99.4341Z" fill="#2666FF"/>
  <path d="M48.1138 99.4341H44.9062V102.642H48.1138V99.4341Z" fill="#2666FF"/>
  <path d="M54.5298 99.4341H51.3223V102.642H54.5298V99.4341Z" fill="#2666FF"/>
  <path d="M60.9439 99.4341H57.7363V102.642H60.9439V99.4341Z" fill="#2666FF"/>
  <path d="M67.3599 99.4341H64.1523V102.642H67.3599V99.4341Z" fill="#2666FF"/>
  <path d="M70.5669 99.4341H67.3594V102.642H70.5669V99.4341Z" fill="#2666FF"/>
  <path d="M80.19 99.4341H76.9824V102.642H80.19V99.4341Z" fill="#2666FF"/>
  <path d="M83.397 99.4341H80.1895V102.642H83.397V99.4341Z" fill="#2666FF"/>
  <path d="M86.604 99.4341H83.3965V102.642H86.604V99.4341Z" fill="#2666FF"/>
  <path d="M99.4341 99.4341H96.2266V102.642H99.4341V99.4341Z" fill="#2666FF"/>
  <path d="M105.85 99.4341H102.643V102.642H105.85V99.4341Z" fill="#2666FF"/>
  <path d="M109.057 99.4341H105.85V102.642H109.057V99.4341Z" fill="#2666FF"/>
  <path d="M112.264 99.4341H109.057V102.642H112.264V99.4341Z" fill="#2666FF"/>
  <path d="M115.473 99.4341H112.266V102.642H115.473V99.4341Z" fill="#2666FF"/>
  <path d="M121.887 99.4341H118.68V102.642H121.887V99.4341Z" fill="#2666FF"/>
  <path d="M125.096 99.4341H121.889V102.642H125.096V99.4341Z" fill="#2666FF"/>
  <path d="M134.717 99.4341H131.51V102.642H134.717V99.4341Z" fill="#2666FF"/>
  <path d="M137.926 99.4341H134.719V102.642H137.926V99.4341Z" fill="#2666FF"/>
  <path d="M141.133 99.4341H137.926V102.642H141.133V99.4341Z" fill="#2666FF"/>
  <path d="M144.34 99.4341H141.133V102.642H144.34V99.4341Z" fill="#2666FF"/>
  <path d="M9.62356 102.642H6.41602V105.849H9.62356V102.642Z" fill="#2666FF"/>
  <path d="M12.8306 102.642H9.62305V105.849H12.8306V102.642Z" fill="#2666FF"/>
  <path d="M19.2466 102.642H16.0391V105.849H19.2466V102.642Z" fill="#2666FF"/>
  <path d="M22.4536 102.642H19.2461V105.849H22.4536V102.642Z" fill="#2666FF"/>
  <path d="M25.6607 102.642H22.4531V105.849H25.6607V102.642Z" fill="#2666FF"/>
  <path d="M28.8697 102.642H25.6621V105.849H28.8697V102.642Z" fill="#2666FF"/>
  <path d="M35.2837 102.642H32.0762V105.849H35.2837V102.642Z" fill="#2666FF"/>
  <path d="M38.4908 102.642H35.2832V105.849H38.4908V102.642Z" fill="#2666FF"/>
  <path d="M41.6997 102.642H38.4922V105.849H41.6997V102.642Z" fill="#2666FF"/>
  <path d="M44.9068 102.642H41.6992V105.849H44.9068V102.642Z" fill="#2666FF"/>
  <path d="M48.1138 102.642H44.9062V105.849H48.1138V102.642Z" fill="#2666FF"/>
  <path d="M51.3208 102.642H48.1133V105.849H51.3208V102.642Z" fill="#2666FF"/>
  <path d="M54.5298 102.642H51.3223V105.849H54.5298V102.642Z" fill="#2666FF"/>
  <path d="M57.7368 102.642H54.5293V105.849H57.7368V102.642Z" fill="#2666FF"/>
  <path d="M67.3599 102.642H64.1523V105.849H67.3599V102.642Z" fill="#2666FF"/>
  <path d="M70.5669 102.642H67.3594V105.849H70.5669V102.642Z" fill="#2666FF"/>
  <path d="M76.9829 102.642H73.7754V105.849H76.9829V102.642Z" fill="#2666FF"/>
  <path d="M80.19 102.642H76.9824V105.849H80.19V102.642Z" fill="#2666FF"/>
  <path d="M89.813 102.642H86.6055V105.849H89.813V102.642Z" fill="#2666FF"/>
  <path d="M93.02 102.642H89.8125V105.849H93.02V102.642Z" fill="#2666FF"/>
  <path d="M102.643 102.642H99.4355V105.849H102.643V102.642Z" fill="#2666FF"/>
  <path d="M118.68 102.642H115.473V105.849H118.68V102.642Z" fill="#2666FF"/>
  <path d="M121.887 102.642H118.68V105.849H121.887V102.642Z" fill="#2666FF"/>
  <path d="M128.303 102.642H125.096V105.849H128.303V102.642Z" fill="#2666FF"/>
  <path d="M131.51 102.642H128.303V105.849H131.51V102.642Z" fill="#2666FF"/>
  <path d="M134.717 102.642H131.51V105.849H134.717V102.642Z" fill="#2666FF"/>
  <path d="M141.133 102.642H137.926V105.849H141.133V102.642Z" fill="#2666FF"/>
  <path d="M144.34 102.642H141.133V105.849H144.34V102.642Z" fill="#2666FF"/>
  <path d="M147.547 102.642H144.34V105.849H147.547V102.642Z" fill="#2666FF"/>
  <path d="M153.963 102.642H150.756V105.849H153.963V102.642Z" fill="#2666FF"/>
  <path d="M160.377 102.642H157.17V105.849H160.377V102.642Z" fill="#2666FF"/>
  <path d="M163.586 102.642H160.379V105.849H163.586V102.642Z" fill="#2666FF"/>
  <path d="M19.2466 105.849H16.0391V109.057H19.2466V105.849Z" fill="#2666FF"/>
  <path d="M32.0767 105.849H28.8691V109.057H32.0767V105.849Z" fill="#2666FF"/>
  <path d="M35.2837 105.849H32.0762V109.057H35.2837V105.849Z" fill="#2666FF"/>
  <path d="M38.4908 105.849H35.2832V109.057H38.4908V105.849Z" fill="#2666FF"/>
  <path d="M48.1138 105.849H44.9062V109.057H48.1138V105.849Z" fill="#2666FF"/>
  <path d="M51.3208 105.849H48.1133V109.057H51.3208V105.849Z" fill="#2666FF"/>
  <path d="M57.7368 105.849H54.5293V109.057H57.7368V105.849Z" fill="#2666FF"/>
  <path d="M60.9439 105.849H57.7363V109.057H60.9439V105.849Z" fill="#2666FF"/>
  <path d="M70.5669 105.849H67.3594V109.057H70.5669V105.849Z" fill="#2666FF"/>
  <path d="M73.774 105.849H70.5664V109.057H73.774V105.849Z" fill="#2666FF"/>
  <path d="M76.9829 105.849H73.7754V109.057H76.9829V105.849Z" fill="#2666FF"/>
  <path d="M89.813 105.849H86.6055V109.057H89.813V105.849Z" fill="#2666FF"/>
  <path d="M93.02 105.849H89.8125V109.057H93.02V105.849Z" fill="#2666FF"/>
  <path d="M102.643 105.849H99.4355V109.057H102.643V105.849Z" fill="#2666FF"/>
  <path d="M105.85 105.849H102.643V109.057H105.85V105.849Z" fill="#2666FF"/>
  <path d="M109.057 105.849H105.85V109.057H109.057V105.849Z" fill="#2666FF"/>
  <path d="M115.473 105.849H112.266V109.057H115.473V105.849Z" fill="#2666FF"/>
  <path d="M121.887 105.849H118.68V109.057H121.887V105.849Z" fill="#2666FF"/>
  <path d="M125.096 105.849H121.889V109.057H125.096V105.849Z" fill="#2666FF"/>
  <path d="M128.303 105.849H125.096V109.057H128.303V105.849Z" fill="#2666FF"/>
  <path d="M141.133 105.849H137.926V109.057H141.133V105.849Z" fill="#2666FF"/>
  <path d="M9.62356 109.057H6.41602V112.264H9.62356V109.057Z" fill="#2666FF"/>
  <path d="M12.8306 109.057H9.62305V112.264H12.8306V109.057Z" fill="#2666FF"/>
  <path d="M22.4536 109.057H19.2461V112.264H22.4536V109.057Z" fill="#2666FF"/>
  <path d="M25.6607 109.057H22.4531V112.264H25.6607V109.057Z" fill="#2666FF"/>
  <path d="M28.8697 109.057H25.6621V112.264H28.8697V109.057Z" fill="#2666FF"/>
  <path d="M44.9068 109.057H41.6992V112.264H44.9068V109.057Z" fill="#2666FF"/>
  <path d="M51.3208 109.057H48.1133V112.264H51.3208V109.057Z" fill="#2666FF"/>
  <path d="M54.5298 109.057H51.3223V112.264H54.5298V109.057Z" fill="#2666FF"/>
  <path d="M60.9439 109.057H57.7363V112.264H60.9439V109.057Z" fill="#2666FF"/>
  <path d="M64.1509 109.057H60.9434V112.264H64.1509V109.057Z" fill="#2666FF"/>
  <path d="M67.3599 109.057H64.1523V112.264H67.3599V109.057Z" fill="#2666FF"/>
  <path d="M70.5669 109.057H67.3594V112.264H70.5669V109.057Z" fill="#2666FF"/>
  <path d="M83.397 109.057H80.1895V112.264H83.397V109.057Z" fill="#2666FF"/>
  <path d="M86.604 109.057H83.3965V112.264H86.604V109.057Z" fill="#2666FF"/>
  <path d="M96.2271 109.057H93.0195V112.264H96.2271V109.057Z" fill="#2666FF"/>
  <path d="M105.85 109.057H102.643V112.264H105.85V109.057Z" fill="#2666FF"/>
  <path d="M118.68 109.057H115.473V112.264H118.68V109.057Z" fill="#2666FF"/>
  <path d="M125.096 109.057H121.889V112.264H125.096V109.057Z" fill="#2666FF"/>
  <path d="M134.717 109.057H131.51V112.264H134.717V109.057Z" fill="#2666FF"/>
  <path d="M144.34 109.057H141.133V112.264H144.34V109.057Z" fill="#2666FF"/>
  <path d="M147.547 109.057H144.34V112.264H147.547V109.057Z" fill="#2666FF"/>
  <path d="M150.756 109.057H147.549V112.264H150.756V109.057Z" fill="#2666FF"/>
  <path d="M153.963 109.057H150.756V112.264H153.963V109.057Z" fill="#2666FF"/>
  <path d="M157.17 109.057H153.963V112.264H157.17V109.057Z" fill="#2666FF"/>
  <path d="M163.586 109.057H160.379V112.264H163.586V109.057Z" fill="#2666FF"/>
  <path d="M16.0396 112.264H12.832V115.472H16.0396V112.264Z" fill="#2666FF"/>
  <path d="M22.4536 112.264H19.2461V115.472H22.4536V112.264Z" fill="#2666FF"/>
  <path d="M32.0767 112.264H28.8691V115.472H32.0767V112.264Z" fill="#2666FF"/>
  <path d="M35.2837 112.264H32.0762V115.472H35.2837V112.264Z" fill="#2666FF"/>
  <path d="M38.4908 112.264H35.2832V115.472H38.4908V112.264Z" fill="#2666FF"/>
  <path d="M41.6997 112.264H38.4922V115.472H41.6997V112.264Z" fill="#2666FF"/>
  <path d="M44.9068 112.264H41.6992V115.472H44.9068V112.264Z" fill="#2666FF"/>
  <path d="M48.1138 112.264H44.9062V115.472H48.1138V112.264Z" fill="#2666FF"/>
  <path d="M60.9439 112.264H57.7363V115.472H60.9439V112.264Z" fill="#2666FF"/>
  <path d="M67.3599 112.264H64.1523V115.472H67.3599V112.264Z" fill="#2666FF"/>
  <path d="M80.19 112.264H76.9824V115.472H80.19V112.264Z" fill="#2666FF"/>
  <path d="M83.397 112.264H80.1895V115.472H83.397V112.264Z" fill="#2666FF"/>
  <path d="M89.813 112.264H86.6055V115.472H89.813V112.264Z" fill="#2666FF"/>
  <path d="M93.02 112.264H89.8125V115.472H93.02V112.264Z" fill="#2666FF"/>
  <path d="M105.85 112.264H102.643V115.472H105.85V112.264Z" fill="#2666FF"/>
  <path d="M109.057 112.264H105.85V115.472H109.057V112.264Z" fill="#2666FF"/>
  <path d="M115.473 112.264H112.266V115.472H115.473V112.264Z" fill="#2666FF"/>
  <path d="M121.887 112.264H118.68V115.472H121.887V112.264Z" fill="#2666FF"/>
  <path d="M125.096 112.264H121.889V115.472H125.096V112.264Z" fill="#2666FF"/>
  <path d="M144.34 112.264H141.133V115.472H144.34V112.264Z" fill="#2666FF"/>
  <path d="M160.377 112.264H157.17V115.472H160.377V112.264Z" fill="#2666FF"/>
  <path d="M9.62356 115.472H6.41602V118.679H9.62356V115.472Z" fill="#2666FF"/>
  <path d="M12.8306 115.472H9.62305V118.679H12.8306V115.472Z" fill="#2666FF"/>
  <path d="M16.0396 115.472H12.832V118.679H16.0396V115.472Z" fill="#2666FF"/>
  <path d="M19.2466 115.472H16.0391V118.679H19.2466V115.472Z" fill="#2666FF"/>
  <path d="M22.4536 115.472H19.2461V118.679H22.4536V115.472Z" fill="#2666FF"/>
  <path d="M28.8697 115.472H25.6621V118.679H28.8697V115.472Z" fill="#2666FF"/>
  <path d="M48.1138 115.472H44.9062V118.679H48.1138V115.472Z" fill="#2666FF"/>
  <path d="M54.5298 115.472H51.3223V118.679H54.5298V115.472Z" fill="#2666FF"/>
  <path d="M67.3599 115.472H64.1523V118.679H67.3599V115.472Z" fill="#2666FF"/>
  <path d="M70.5669 115.472H67.3594V118.679H70.5669V115.472Z" fill="#2666FF"/>
  <path d="M86.604 115.472H83.3965V118.679H86.604V115.472Z" fill="#2666FF"/>
  <path d="M89.813 115.472H86.6055V118.679H89.813V115.472Z" fill="#2666FF"/>
  <path d="M96.2271 115.472H93.0195V118.679H96.2271V115.472Z" fill="#2666FF"/>
  <path d="M102.643 115.472H99.4355V118.679H102.643V115.472Z" fill="#2666FF"/>
  <path d="M118.68 115.472H115.473V118.679H118.68V115.472Z" fill="#2666FF"/>
  <path d="M125.096 115.472H121.889V118.679H125.096V115.472Z" fill="#2666FF"/>
  <path d="M128.303 115.472H125.096V118.679H128.303V115.472Z" fill="#2666FF"/>
  <path d="M131.51 115.472H128.303V118.679H131.51V115.472Z" fill="#2666FF"/>
  <path d="M134.717 115.472H131.51V118.679H134.717V115.472Z" fill="#2666FF"/>
  <path d="M144.34 115.472H141.133V118.679H144.34V115.472Z" fill="#2666FF"/>
  <path d="M153.963 115.472H150.756V118.679H153.963V115.472Z" fill="#2666FF"/>
  <path d="M163.586 115.472H160.379V118.679H163.586V115.472Z" fill="#2666FF"/>
  <path d="M9.62356 118.679H6.41602V121.887H9.62356V118.679Z" fill="#2666FF"/>
  <path d="M16.0396 118.679H12.832V121.887H16.0396V118.679Z" fill="#2666FF"/>
  <path d="M22.4536 118.679H19.2461V121.887H22.4536V118.679Z" fill="#2666FF"/>
  <path d="M38.4908 118.679H35.2832V121.887H38.4908V118.679Z" fill="#2666FF"/>
  <path d="M44.9068 118.679H41.6992V121.887H44.9068V118.679Z" fill="#2666FF"/>
  <path d="M54.5298 118.679H51.3223V121.887H54.5298V118.679Z" fill="#2666FF"/>
  <path d="M57.7368 118.679H54.5293V121.887H57.7368V118.679Z" fill="#2666FF"/>
  <path d="M60.9439 118.679H57.7363V121.887H60.9439V118.679Z" fill="#2666FF"/>
  <path d="M67.3599 118.679H64.1523V121.887H67.3599V118.679Z" fill="#2666FF"/>
  <path d="M70.5669 118.679H67.3594V121.887H70.5669V118.679Z" fill="#2666FF"/>
  <path d="M73.774 118.679H70.5664V121.887H73.774V118.679Z" fill="#2666FF"/>
  <path d="M80.19 118.679H76.9824V121.887H80.19V118.679Z" fill="#2666FF"/>
  <path d="M86.604 118.679H83.3965V121.887H86.604V118.679Z" fill="#2666FF"/>
  <path d="M89.813 118.679H86.6055V121.887H89.813V118.679Z" fill="#2666FF"/>
  <path d="M96.2271 118.679H93.0195V121.887H96.2271V118.679Z" fill="#2666FF"/>
  <path d="M99.4341 118.679H96.2266V121.887H99.4341V118.679Z" fill="#2666FF"/>
  <path d="M112.264 118.679H109.057V121.887H112.264V118.679Z" fill="#2666FF"/>
  <path d="M115.473 118.679H112.266V121.887H115.473V118.679Z" fill="#2666FF"/>
  <path d="M121.887 118.679H118.68V121.887H121.887V118.679Z" fill="#2666FF"/>
  <path d="M128.303 118.679H125.096V121.887H128.303V118.679Z" fill="#2666FF"/>
  <path d="M137.926 118.679H134.719V121.887H137.926V118.679Z" fill="#2666FF"/>
  <path d="M141.133 118.679H137.926V121.887H141.133V118.679Z" fill="#2666FF"/>
  <path d="M153.963 118.679H150.756V121.887H153.963V118.679Z" fill="#2666FF"/>
  <path d="M160.377 118.679H157.17V121.887H160.377V118.679Z" fill="#2666FF"/>
  <path d="M12.8306 121.887H9.62305V125.094H12.8306V121.887Z" fill="#2666FF"/>
  <path d="M19.2466 121.887H16.0391V125.094H19.2466V121.887Z" fill="#2666FF"/>
  <path d="M28.8697 121.887H25.6621V125.094H28.8697V121.887Z" fill="#2666FF"/>
  <path d="M38.4908 121.887H35.2832V125.094H38.4908V121.887Z" fill="#2666FF"/>
  <path d="M48.1138 121.887H44.9062V125.094H48.1138V121.887Z" fill="#2666FF"/>
  <path d="M54.5298 121.887H51.3223V125.094H54.5298V121.887Z" fill="#2666FF"/>
  <path d="M67.3599 121.887H64.1523V125.094H67.3599V121.887Z" fill="#2666FF"/>
  <path d="M76.9829 121.887H73.7754V125.094H76.9829V121.887Z" fill="#2666FF"/>
  <path d="M83.397 121.887H80.1895V125.094H83.397V121.887Z" fill="#2666FF"/>
  <path d="M86.604 121.887H83.3965V125.094H86.604V121.887Z" fill="#2666FF"/>
  <path d="M89.813 121.887H86.6055V125.094H89.813V121.887Z" fill="#2666FF"/>
  <path d="M109.057 121.887H105.85V125.094H109.057V121.887Z" fill="#2666FF"/>
  <path d="M115.473 121.887H112.266V125.094H115.473V121.887Z" fill="#2666FF"/>
  <path d="M118.68 121.887H115.473V125.094H118.68V121.887Z" fill="#2666FF"/>
  <path d="M125.096 121.887H121.889V125.094H125.096V121.887Z" fill="#2666FF"/>
  <path d="M131.51 121.887H128.303V125.094H131.51V121.887Z" fill="#2666FF"/>
  <path d="M134.717 121.887H131.51V125.094H134.717V121.887Z" fill="#2666FF"/>
  <path d="M141.133 121.887H137.926V125.094H141.133V121.887Z" fill="#2666FF"/>
  <path d="M144.34 121.887H141.133V125.094H144.34V121.887Z" fill="#2666FF"/>
  <path d="M147.547 121.887H144.34V125.094H147.547V121.887Z" fill="#2666FF"/>
  <path d="M150.756 121.887H147.549V125.094H150.756V121.887Z" fill="#2666FF"/>
  <path d="M157.17 121.887H153.963V125.094H157.17V121.887Z" fill="#2666FF"/>
  <path d="M160.377 121.887H157.17V125.094H160.377V121.887Z" fill="#2666FF"/>
  <path d="M9.62356 125.094H6.41602V128.302H9.62356V125.094Z" fill="#2666FF"/>
  <path d="M12.8306 125.094H9.62305V128.302H12.8306V125.094Z" fill="#2666FF"/>
  <path d="M16.0396 125.094H12.832V128.302H16.0396V125.094Z" fill="#2666FF"/>
  <path d="M22.4536 125.094H19.2461V128.302H22.4536V125.094Z" fill="#2666FF"/>
  <path d="M32.0767 125.094H28.8691V128.302H32.0767V125.094Z" fill="#2666FF"/>
  <path d="M57.7368 125.094H54.5293V128.302H57.7368V125.094Z" fill="#2666FF"/>
  <path d="M60.9439 125.094H57.7363V128.302H60.9439V125.094Z" fill="#2666FF"/>
  <path d="M64.1509 125.094H60.9434V128.302H64.1509V125.094Z" fill="#2666FF"/>
  <path d="M70.5669 125.094H67.3594V128.302H70.5669V125.094Z" fill="#2666FF"/>
  <path d="M76.9829 125.094H73.7754V128.302H76.9829V125.094Z" fill="#2666FF"/>
  <path d="M83.397 125.094H80.1895V128.302H83.397V125.094Z" fill="#2666FF"/>
  <path d="M93.02 125.094H89.8125V128.302H93.02V125.094Z" fill="#2666FF"/>
  <path d="M96.2271 125.094H93.0195V128.302H96.2271V125.094Z" fill="#2666FF"/>
  <path d="M102.643 125.094H99.4355V128.302H102.643V125.094Z" fill="#2666FF"/>
  <path d="M105.85 125.094H102.643V128.302H105.85V125.094Z" fill="#2666FF"/>
  <path d="M115.473 125.094H112.266V128.302H115.473V125.094Z" fill="#2666FF"/>
  <path d="M125.096 125.094H121.889V128.302H125.096V125.094Z" fill="#2666FF"/>
  <path d="M134.717 125.094H131.51V128.302H134.717V125.094Z" fill="#2666FF"/>
  <path d="M157.17 125.094H153.963V128.302H157.17V125.094Z" fill="#2666FF"/>
  <path d="M160.377 125.094H157.17V128.302H160.377V125.094Z" fill="#2666FF"/>
  <path d="M12.8306 128.302H9.62305V131.509H12.8306V128.302Z" fill="#2666FF"/>
  <path d="M25.6607 128.302H22.4531V131.509H25.6607V128.302Z" fill="#2666FF"/>
  <path d="M28.8697 128.302H25.6621V131.509H28.8697V128.302Z" fill="#2666FF"/>
  <path d="M32.0767 128.302H28.8691V131.509H32.0767V128.302Z" fill="#2666FF"/>
  <path d="M35.2837 128.302H32.0762V131.509H35.2837V128.302Z" fill="#2666FF"/>
  <path d="M41.6997 128.302H38.4922V131.509H41.6997V128.302Z" fill="#2666FF"/>
  <path d="M48.1138 128.302H44.9062V131.509H48.1138V128.302Z" fill="#2666FF"/>
  <path d="M54.5298 128.302H51.3223V131.509H54.5298V128.302Z" fill="#2666FF"/>
  <path d="M57.7368 128.302H54.5293V131.509H57.7368V128.302Z" fill="#2666FF"/>
  <path d="M60.9439 128.302H57.7363V131.509H60.9439V128.302Z" fill="#2666FF"/>
  <path d="M64.1509 128.302H60.9434V131.509H64.1509V128.302Z" fill="#2666FF"/>
  <path d="M67.3599 128.302H64.1523V131.509H67.3599V128.302Z" fill="#2666FF"/>
  <path d="M70.5669 128.302H67.3594V131.509H70.5669V128.302Z" fill="#2666FF"/>
  <path d="M83.397 128.302H80.1895V131.509H83.397V128.302Z" fill="#2666FF"/>
  <path d="M86.604 128.302H83.3965V131.509H86.604V128.302Z" fill="#2666FF"/>
  <path d="M96.2271 128.302H93.0195V131.509H96.2271V128.302Z" fill="#2666FF"/>
  <path d="M102.643 128.302H99.4355V131.509H102.643V128.302Z" fill="#2666FF"/>
  <path d="M112.264 128.302H109.057V131.509H112.264V128.302Z" fill="#2666FF"/>
  <path d="M118.68 128.302H115.473V131.509H118.68V128.302Z" fill="#2666FF"/>
  <path d="M121.887 128.302H118.68V131.509H121.887V128.302Z" fill="#2666FF"/>
  <path d="M125.096 128.302H121.889V131.509H125.096V128.302Z" fill="#2666FF"/>
  <path d="M128.303 128.302H125.096V131.509H128.303V128.302Z" fill="#2666FF"/>
  <path d="M131.51 128.302H128.303V131.509H131.51V128.302Z" fill="#2666FF"/>
  <path d="M134.717 128.302H131.51V131.509H134.717V128.302Z" fill="#2666FF"/>
  <path d="M137.926 128.302H134.719V131.509H137.926V128.302Z" fill="#2666FF"/>
  <path d="M141.133 128.302H137.926V131.509H141.133V128.302Z" fill="#2666FF"/>
  <path d="M144.34 128.302H141.133V131.509H144.34V128.302Z" fill="#2666FF"/>
  <path d="M147.547 128.302H144.34V131.509H147.547V128.302Z" fill="#2666FF"/>
  <path d="M153.963 128.302H150.756V131.509H153.963V128.302Z" fill="#2666FF"/>
  <path d="M157.17 128.302H153.963V131.509H157.17V128.302Z" fill="#2666FF"/>
  <path d="M163.586 128.302H160.379V131.509H163.586V128.302Z" fill="#2666FF"/>
  <path d="M12.8306 131.509H9.62305V134.717H12.8306V131.509Z" fill="#2666FF"/>
  <path d="M16.0396 131.509H12.832V134.717H16.0396V131.509Z" fill="#2666FF"/>
  <path d="M19.2466 131.509H16.0391V134.717H19.2466V131.509Z" fill="#2666FF"/>
  <path d="M32.0767 131.509H28.8691V134.717H32.0767V131.509Z" fill="#2666FF"/>
  <path d="M35.2837 131.509H32.0762V134.717H35.2837V131.509Z" fill="#2666FF"/>
  <path d="M54.5298 131.509H51.3223V134.717H54.5298V131.509Z" fill="#2666FF"/>
  <path d="M57.7368 131.509H54.5293V134.717H57.7368V131.509Z" fill="#2666FF"/>
  <path d="M67.3599 131.509H64.1523V134.717H67.3599V131.509Z" fill="#2666FF"/>
  <path d="M70.5669 131.509H67.3594V134.717H70.5669V131.509Z" fill="#2666FF"/>
  <path d="M73.774 131.509H70.5664V134.717H73.774V131.509Z" fill="#2666FF"/>
  <path d="M83.397 131.509H80.1895V134.717H83.397V131.509Z" fill="#2666FF"/>
  <path d="M93.02 131.509H89.8125V134.717H93.02V131.509Z" fill="#2666FF"/>
  <path d="M99.4341 131.509H96.2266V134.717H99.4341V131.509Z" fill="#2666FF"/>
  <path d="M102.643 131.509H99.4355V134.717H102.643V131.509Z" fill="#2666FF"/>
  <path d="M109.057 131.509H105.85V134.717H109.057V131.509Z" fill="#2666FF"/>
  <path d="M112.264 131.509H109.057V134.717H112.264V131.509Z" fill="#2666FF"/>
  <path d="M118.68 131.509H115.473V134.717H118.68V131.509Z" fill="#2666FF"/>
  <path d="M128.303 131.509H125.096V134.717H128.303V131.509Z" fill="#2666FF"/>
  <path d="M131.51 131.509H128.303V134.717H131.51V131.509Z" fill="#2666FF"/>
  <path d="M147.547 131.509H144.34V134.717H147.547V131.509Z" fill="#2666FF"/>
  <path d="M157.17 131.509H153.963V134.717H157.17V131.509Z" fill="#2666FF"/>
  <path d="M9.62356 134.717H6.41602V137.924H9.62356V134.717Z" fill="#2666FF"/>
  <path d="M12.8306 134.717H9.62305V137.924H12.8306V134.717Z" fill="#2666FF"/>
  <path d="M16.0396 134.717H12.832V137.924H16.0396V134.717Z" fill="#2666FF"/>
  <path d="M28.8697 134.717H25.6621V137.924H28.8697V134.717Z" fill="#2666FF"/>
  <path d="M38.4908 134.717H35.2832V137.924H38.4908V134.717Z" fill="#2666FF"/>
  <path d="M41.6997 134.717H38.4922V137.924H41.6997V134.717Z" fill="#2666FF"/>
  <path d="M51.3208 134.717H48.1133V137.924H51.3208V134.717Z" fill="#2666FF"/>
  <path d="M54.5298 134.717H51.3223V137.924H54.5298V134.717Z" fill="#2666FF"/>
  <path d="M57.7368 134.717H54.5293V137.924H57.7368V134.717Z" fill="#2666FF"/>
  <path d="M60.9439 134.717H57.7363V137.924H60.9439V134.717Z" fill="#2666FF"/>
  <path d="M64.1509 134.717H60.9434V137.924H64.1509V134.717Z" fill="#2666FF"/>
  <path d="M67.3599 134.717H64.1523V137.924H67.3599V134.717Z" fill="#2666FF"/>
  <path d="M76.9829 134.717H73.7754V137.924H76.9829V134.717Z" fill="#2666FF"/>
  <path d="M80.19 134.717H76.9824V137.924H80.19V134.717Z" fill="#2666FF"/>
  <path d="M83.397 134.717H80.1895V137.924H83.397V134.717Z" fill="#2666FF"/>
  <path d="M86.604 134.717H83.3965V137.924H86.604V134.717Z" fill="#2666FF"/>
  <path d="M89.813 134.717H86.6055V137.924H89.813V134.717Z" fill="#2666FF"/>
  <path d="M93.02 134.717H89.8125V137.924H93.02V134.717Z" fill="#2666FF"/>
  <path d="M96.2271 134.717H93.0195V137.924H96.2271V134.717Z" fill="#2666FF"/>
  <path d="M115.473 134.717H112.266V137.924H115.473V134.717Z" fill="#2666FF"/>
  <path d="M118.68 134.717H115.473V137.924H118.68V134.717Z" fill="#2666FF"/>
  <path d="M121.887 134.717H118.68V137.924H121.887V134.717Z" fill="#2666FF"/>
  <path d="M125.096 134.717H121.889V137.924H125.096V134.717Z" fill="#2666FF"/>
  <path d="M131.51 134.717H128.303V137.924H131.51V134.717Z" fill="#2666FF"/>
  <path d="M134.717 134.717H131.51V137.924H134.717V134.717Z" fill="#2666FF"/>
  <path d="M137.926 134.717H134.719V137.924H137.926V134.717Z" fill="#2666FF"/>
  <path d="M141.133 134.717H137.926V137.924H141.133V134.717Z" fill="#2666FF"/>
  <path d="M144.34 134.717H141.133V137.924H144.34V134.717Z" fill="#2666FF"/>
  <path d="M147.547 134.717H144.34V137.924H147.547V134.717Z" fill="#2666FF"/>
  <path d="M150.756 134.717H147.549V137.924H150.756V134.717Z" fill="#2666FF"/>
  <path d="M153.963 134.717H150.756V137.924H153.963V134.717Z" fill="#2666FF"/>
  <path d="M163.586 134.717H160.379V137.924H163.586V134.717Z" fill="#2666FF"/>
  <path d="M35.2837 137.924H32.0762V141.132H35.2837V137.924Z" fill="#2666FF"/>
  <path d="M38.4908 137.924H35.2832V141.132H38.4908V137.924Z" fill="#2666FF"/>
  <path d="M41.6997 137.924H38.4922V141.132H41.6997V137.924Z" fill="#2666FF"/>
  <path d="M44.9068 137.924H41.6992V141.132H44.9068V137.924Z" fill="#2666FF"/>
  <path d="M48.1138 137.924H44.9062V141.132H48.1138V137.924Z" fill="#2666FF"/>
  <path d="M54.5298 137.924H51.3223V141.132H54.5298V137.924Z" fill="#2666FF"/>
  <path d="M64.1509 137.924H60.9434V141.132H64.1509V137.924Z" fill="#2666FF"/>
  <path d="M73.774 137.924H70.5664V141.132H73.774V137.924Z" fill="#2666FF"/>
  <path d="M80.19 137.924H76.9824V141.132H80.19V137.924Z" fill="#2666FF"/>
  <path d="M93.02 137.924H89.8125V141.132H93.02V137.924Z" fill="#2666FF"/>
  <path d="M99.4341 137.924H96.2266V141.132H99.4341V137.924Z" fill="#2666FF"/>
  <path d="M102.643 137.924H99.4355V141.132H102.643V137.924Z" fill="#2666FF"/>
  <path d="M109.057 137.924H105.85V141.132H109.057V137.924Z" fill="#2666FF"/>
  <path d="M118.68 137.924H115.473V141.132H118.68V137.924Z" fill="#2666FF"/>
  <path d="M125.096 137.924H121.889V141.132H125.096V137.924Z" fill="#2666FF"/>
  <path d="M128.303 137.924H125.096V141.132H128.303V137.924Z" fill="#2666FF"/>
  <path d="M131.51 137.924H128.303V141.132H131.51V137.924Z" fill="#2666FF"/>
  <path d="M137.926 137.924H134.719V141.132H137.926V137.924Z" fill="#2666FF"/>
  <path d="M150.756 137.924H147.549V141.132H150.756V137.924Z" fill="#2666FF"/>
  <path d="M35.2837 141.132H32.0762V144.339H35.2837V141.132Z" fill="#2666FF"/>
  <path d="M41.6997 141.132H38.4922V144.339H41.6997V141.132Z" fill="#2666FF"/>
  <path d="M48.1138 141.132H44.9062V144.339H48.1138V141.132Z" fill="#2666FF"/>
  <path d="M54.5298 141.132H51.3223V144.339H54.5298V141.132Z" fill="#2666FF"/>
  <path d="M57.7368 141.132H54.5293V144.339H57.7368V141.132Z" fill="#2666FF"/>
  <path d="M60.9439 141.132H57.7363V144.339H60.9439V141.132Z" fill="#2666FF"/>
  <path d="M67.3599 141.132H64.1523V144.339H67.3599V141.132Z" fill="#2666FF"/>
  <path d="M80.19 141.132H76.9824V144.339H80.19V141.132Z" fill="#2666FF"/>
  <path d="M86.604 141.132H83.3965V144.339H86.604V141.132Z" fill="#2666FF"/>
  <path d="M93.02 141.132H89.8125V144.339H93.02V141.132Z" fill="#2666FF"/>
  <path d="M105.85 141.132H102.643V144.339H105.85V141.132Z" fill="#2666FF"/>
  <path d="M115.473 141.132H112.266V144.339H115.473V141.132Z" fill="#2666FF"/>
  <path d="M125.096 141.132H121.889V144.339H125.096V141.132Z" fill="#2666FF"/>
  <path d="M137.926 141.132H134.719V144.339H137.926V141.132Z" fill="#2666FF"/>
  <path d="M144.34 141.132H141.133V144.339H144.34V141.132Z" fill="#2666FF"/>
  <path d="M150.756 141.132H147.549V144.339H150.756V141.132Z" fill="#2666FF"/>
  <path d="M153.963 141.132H150.756V144.339H153.963V141.132Z" fill="#2666FF"/>
  <path d="M160.377 141.132H157.17V144.339H160.377V141.132Z" fill="#2666FF"/>
  <path d="M163.586 141.132H160.379V144.339H163.586V141.132Z" fill="#2666FF"/>
  <path d="M35.2837 144.339H32.0762V147.547H35.2837V144.339Z" fill="#2666FF"/>
  <path d="M38.4908 144.339H35.2832V147.547H38.4908V144.339Z" fill="#2666FF"/>
  <path d="M48.1138 144.339H44.9062V147.547H48.1138V144.339Z" fill="#2666FF"/>
  <path d="M54.5298 144.339H51.3223V147.547H54.5298V144.339Z" fill="#2666FF"/>
  <path d="M76.9829 144.339H73.7754V147.547H76.9829V144.339Z" fill="#2666FF"/>
  <path d="M80.19 144.339H76.9824V147.547H80.19V144.339Z" fill="#2666FF"/>
  <path d="M93.02 144.339H89.8125V147.547H93.02V144.339Z" fill="#2666FF"/>
  <path d="M96.2271 144.339H93.0195V147.547H96.2271V144.339Z" fill="#2666FF"/>
  <path d="M99.4341 144.339H96.2266V147.547H99.4341V144.339Z" fill="#2666FF"/>
  <path d="M109.057 144.339H105.85V147.547H109.057V144.339Z" fill="#2666FF"/>
  <path d="M112.264 144.339H109.057V147.547H112.264V144.339Z" fill="#2666FF"/>
  <path d="M115.473 144.339H112.266V147.547H115.473V144.339Z" fill="#2666FF"/>
  <path d="M118.68 144.339H115.473V147.547H118.68V144.339Z" fill="#2666FF"/>
  <path d="M128.303 144.339H125.096V147.547H128.303V144.339Z" fill="#2666FF"/>
  <path d="M131.51 144.339H128.303V147.547H131.51V144.339Z" fill="#2666FF"/>
  <path d="M134.717 144.339H131.51V147.547H134.717V144.339Z" fill="#2666FF"/>
  <path d="M137.926 144.339H134.719V147.547H137.926V144.339Z" fill="#2666FF"/>
  <path d="M150.756 144.339H147.549V147.547H150.756V144.339Z" fill="#2666FF"/>
  <path d="M35.2837 147.547H32.0762V150.754H35.2837V147.547Z" fill="#2666FF"/>
  <path d="M38.4908 147.547H35.2832V150.754H38.4908V147.547Z" fill="#2666FF"/>
  <path d="M44.9068 147.547H41.6992V150.754H44.9068V147.547Z" fill="#2666FF"/>
  <path d="M51.3208 147.547H48.1133V150.754H51.3208V147.547Z" fill="#2666FF"/>
  <path d="M54.5298 147.547H51.3223V150.754H54.5298V147.547Z" fill="#2666FF"/>
  <path d="M57.7368 147.547H54.5293V150.754H57.7368V147.547Z" fill="#2666FF"/>
  <path d="M60.9439 147.547H57.7363V150.754H60.9439V147.547Z" fill="#2666FF"/>
  <path d="M64.1509 147.547H60.9434V150.754H64.1509V147.547Z" fill="#2666FF"/>
  <path d="M67.3599 147.547H64.1523V150.754H67.3599V147.547Z" fill="#2666FF"/>
  <path d="M70.5669 147.547H67.3594V150.754H70.5669V147.547Z" fill="#2666FF"/>
  <path d="M80.19 147.547H76.9824V150.754H80.19V147.547Z" fill="#2666FF"/>
  <path d="M83.397 147.547H80.1895V150.754H83.397V147.547Z" fill="#2666FF"/>
  <path d="M86.604 147.547H83.3965V150.754H86.604V147.547Z" fill="#2666FF"/>
  <path d="M89.813 147.547H86.6055V150.754H89.813V147.547Z" fill="#2666FF"/>
  <path d="M93.02 147.547H89.8125V150.754H93.02V147.547Z" fill="#2666FF"/>
  <path d="M96.2271 147.547H93.0195V150.754H96.2271V147.547Z" fill="#2666FF"/>
  <path d="M102.643 147.547H99.4355V150.754H102.643V147.547Z" fill="#2666FF"/>
  <path d="M105.85 147.547H102.643V150.754H105.85V147.547Z" fill="#2666FF"/>
  <path d="M125.096 147.547H121.889V150.754H125.096V147.547Z" fill="#2666FF"/>
  <path d="M128.303 147.547H125.096V150.754H128.303V147.547Z" fill="#2666FF"/>
  <path d="M131.51 147.547H128.303V150.754H131.51V147.547Z" fill="#2666FF"/>
  <path d="M134.717 147.547H131.51V150.754H134.717V147.547Z" fill="#2666FF"/>
  <path d="M137.926 147.547H134.719V150.754H137.926V147.547Z" fill="#2666FF"/>
  <path d="M141.133 147.547H137.926V150.754H141.133V147.547Z" fill="#2666FF"/>
  <path d="M144.34 147.547H141.133V150.754H144.34V147.547Z" fill="#2666FF"/>
  <path d="M147.547 147.547H144.34V150.754H147.547V147.547Z" fill="#2666FF"/>
  <path d="M150.756 147.547H147.549V150.754H150.756V147.547Z" fill="#2666FF"/>
  <path d="M157.17 147.547H153.963V150.754H157.17V147.547Z" fill="#2666FF"/>
  <path d="M160.377 147.547H157.17V150.754H160.377V147.547Z" fill="#2666FF"/>
  <path d="M35.2837 150.755H32.0762V153.962H35.2837V150.755Z" fill="#2666FF"/>
  <path d="M38.4908 150.755H35.2832V153.962H38.4908V150.755Z" fill="#2666FF"/>
  <path d="M60.9439 150.755H57.7363V153.962H60.9439V150.755Z" fill="#2666FF"/>
  <path d="M70.5669 150.755H67.3594V153.962H70.5669V150.755Z" fill="#2666FF"/>
  <path d="M76.9829 150.755H73.7754V153.962H76.9829V150.755Z" fill="#2666FF"/>
  <path d="M80.19 150.755H76.9824V153.962H80.19V150.755Z" fill="#2666FF"/>
  <path d="M83.397 150.755H80.1895V153.962H83.397V150.755Z" fill="#2666FF"/>
  <path d="M93.02 150.755H89.8125V153.962H93.02V150.755Z" fill="#2666FF"/>
  <path d="M105.85 150.755H102.643V153.962H105.85V150.755Z" fill="#2666FF"/>
  <path d="M109.057 150.755H105.85V153.962H109.057V150.755Z" fill="#2666FF"/>
  <path d="M112.264 150.755H109.057V153.962H112.264V150.755Z" fill="#2666FF"/>
  <path d="M128.303 150.755H125.096V153.962H128.303V150.755Z" fill="#2666FF"/>
  <path d="M144.34 150.755H141.133V153.962H144.34V150.755Z" fill="#2666FF"/>
  <path d="M150.756 150.755H147.549V153.962H150.756V150.755Z" fill="#2666FF"/>
  <path d="M160.377 150.755H157.17V153.962H160.377V150.755Z" fill="#2666FF"/>
  <path d="M163.586 150.755H160.379V153.962H163.586V150.755Z" fill="#2666FF"/>
  <path d="M35.2837 153.962H32.0762V157.17H35.2837V153.962Z" fill="#2666FF"/>
  <path d="M38.4908 153.962H35.2832V157.17H38.4908V153.962Z" fill="#2666FF"/>
  <path d="M44.9068 153.962H41.6992V157.17H44.9068V153.962Z" fill="#2666FF"/>
  <path d="M57.7368 153.962H54.5293V157.17H57.7368V153.962Z" fill="#2666FF"/>
  <path d="M60.9439 153.962H57.7363V157.17H60.9439V153.962Z" fill="#2666FF"/>
  <path d="M64.1509 153.962H60.9434V157.17H64.1509V153.962Z" fill="#2666FF"/>
  <path d="M67.3599 153.962H64.1523V157.17H67.3599V153.962Z" fill="#2666FF"/>
  <path d="M70.5669 153.962H67.3594V157.17H70.5669V153.962Z" fill="#2666FF"/>
  <path d="M80.19 153.962H76.9824V157.17H80.19V153.962Z" fill="#2666FF"/>
  <path d="M83.397 153.962H80.1895V157.17H83.397V153.962Z" fill="#2666FF"/>
  <path d="M89.813 153.962H86.6055V157.17H89.813V153.962Z" fill="#2666FF"/>
  <path d="M93.02 153.962H89.8125V157.17H93.02V153.962Z" fill="#2666FF"/>
  <path d="M96.2271 153.962H93.0195V157.17H96.2271V153.962Z" fill="#2666FF"/>
  <path d="M99.4341 153.962H96.2266V157.17H99.4341V153.962Z" fill="#2666FF"/>
  <path d="M109.057 153.962H105.85V157.17H109.057V153.962Z" fill="#2666FF"/>
  <path d="M118.68 153.962H115.473V157.17H118.68V153.962Z" fill="#2666FF"/>
  <path d="M125.096 153.962H121.889V157.17H125.096V153.962Z" fill="#2666FF"/>
  <path d="M131.51 153.962H128.303V157.17H131.51V153.962Z" fill="#2666FF"/>
  <path d="M134.717 153.962H131.51V157.17H134.717V153.962Z" fill="#2666FF"/>
  <path d="M144.34 153.962H141.133V157.17H144.34V153.962Z" fill="#2666FF"/>
  <path d="M153.963 153.962H150.756V157.17H153.963V153.962Z" fill="#2666FF"/>
  <path d="M160.377 153.962H157.17V157.17H160.377V153.962Z" fill="#2666FF"/>
  <path d="M163.586 153.962H160.379V157.17H163.586V153.962Z" fill="#2666FF"/>
  <path d="M35.2837 157.17H32.0762V160.377H35.2837V157.17Z" fill="#2666FF"/>
  <path d="M38.4908 157.17H35.2832V160.377H38.4908V157.17Z" fill="#2666FF"/>
  <path d="M41.6997 157.17H38.4922V160.377H41.6997V157.17Z" fill="#2666FF"/>
  <path d="M44.9068 157.17H41.6992V160.377H44.9068V157.17Z" fill="#2666FF"/>
  <path d="M48.1138 157.17H44.9062V160.377H48.1138V157.17Z" fill="#2666FF"/>
  <path d="M51.3208 157.17H48.1133V160.377H51.3208V157.17Z" fill="#2666FF"/>
  <path d="M54.5298 157.17H51.3223V160.377H54.5298V157.17Z" fill="#2666FF"/>
  <path d="M60.9439 157.17H57.7363V160.377H60.9439V157.17Z" fill="#2666FF"/>
  <path d="M64.1509 157.17H60.9434V160.377H64.1509V157.17Z" fill="#2666FF"/>
  <path d="M80.19 157.17H76.9824V160.377H80.19V157.17Z" fill="#2666FF"/>
  <path d="M83.397 157.17H80.1895V160.377H83.397V157.17Z" fill="#2666FF"/>
  <path d="M86.604 157.17H83.3965V160.377H86.604V157.17Z" fill="#2666FF"/>
  <path d="M89.813 157.17H86.6055V160.377H89.813V157.17Z" fill="#2666FF"/>
  <path d="M99.4341 157.17H96.2266V160.377H99.4341V157.17Z" fill="#2666FF"/>
  <path d="M102.643 157.17H99.4355V160.377H102.643V157.17Z" fill="#2666FF"/>
  <path d="M112.264 157.17H109.057V160.377H112.264V157.17Z" fill="#2666FF"/>
  <path d="M115.473 157.17H112.266V160.377H115.473V157.17Z" fill="#2666FF"/>
  <path d="M141.133 157.17H137.926V160.377H141.133V157.17Z" fill="#2666FF"/>
  <path d="M144.34 157.17H141.133V160.377H144.34V157.17Z" fill="#2666FF"/>
  <path d="M147.547 157.17H144.34V160.377H147.547V157.17Z" fill="#2666FF"/>
  <path d="M153.963 157.17H150.756V160.377H153.963V157.17Z" fill="#2666FF"/>
  <path d="M163.586 157.17H160.379V160.377H163.586V157.17Z" fill="#2666FF"/>
  <path d="M48.1138 160.377H44.9062V163.585H48.1138V160.377Z" fill="#2666FF"/>
  <path d="M51.3208 160.377H48.1133V163.585H51.3208V160.377Z" fill="#2666FF"/>
  <path d="M57.7368 160.377H54.5293V163.585H57.7368V160.377Z" fill="#2666FF"/>
  <path d="M60.9439 160.377H57.7363V163.585H60.9439V160.377Z" fill="#2666FF"/>
  <path d="M67.3599 160.377H64.1523V163.585H67.3599V160.377Z" fill="#2666FF"/>
  <path d="M80.19 160.377H76.9824V163.585H80.19V160.377Z" fill="#2666FF"/>
  <path d="M96.2271 160.377H93.0195V163.585H96.2271V160.377Z" fill="#2666FF"/>
  <path d="M102.643 160.377H99.4355V163.585H102.643V160.377Z" fill="#2666FF"/>
  <path d="M109.057 160.377H105.85V163.585H109.057V160.377Z" fill="#2666FF"/>
  <path d="M118.68 160.377H115.473V163.585H118.68V160.377Z" fill="#2666FF"/>
  <path d="M121.887 160.377H118.68V163.585H121.887V160.377Z" fill="#2666FF"/>
  <path d="M125.096 160.377H121.889V163.585H125.096V160.377Z" fill="#2666FF"/>
  <path d="M128.303 160.377H125.096V163.585H128.303V160.377Z" fill="#2666FF"/>
  <path d="M134.717 160.377H131.51V163.585H134.717V160.377Z" fill="#2666FF"/>
  <path d="M153.963 160.377H150.756V163.585H153.963V160.377Z" fill="#2666FF"/>
  <path d="M157.17 160.377H153.963V163.585H157.17V160.377Z" fill="#2666FF"/>
  <path d="M160.377 160.377H157.17V163.585H160.377V160.377Z" fill="#2666FF"/>
  <path d="M163.586 160.377H160.379V163.585H163.586V160.377Z" fill="#2666FF"/>
</svg>