<svg xmlns="http://www.w3.org/2000/svg" width="20" height="21" viewBox="0 0 20 21" fill="none">
  <path d="M3.125 16.7502C3.125 17.4132 3.38839 18.0491 3.85723 18.518C4.32607 18.9868 4.96196 19.2502 5.625 19.2502H9.21875C9.26019 19.2502 9.29993 19.2337 9.32924 19.2044C9.35854 19.1751 9.375 19.1354 9.375 19.0939V11.9064C9.375 11.865 9.35854 11.8253 9.32924 11.796C9.29993 11.7667 9.26019 11.7502 9.21875 11.7502H3.4375C3.35462 11.7502 3.27513 11.7831 3.21653 11.8417C3.15792 11.9003 3.125 11.9798 3.125 12.0627V16.7502ZM9.375 10.3439V6.1252H10.625V10.3439C10.625 10.3854 10.6415 10.4251 10.6708 10.4544C10.7001 10.4837 10.7398 10.5002 10.7812 10.5002H16.25C16.4629 10.5002 16.6743 10.4639 16.875 10.3928C17.2402 10.2631 17.5564 10.0236 17.7802 9.70716C18.004 9.39071 18.1244 9.01279 18.125 8.6252V8.0002C18.125 7.50292 17.9275 7.026 17.5758 6.67437C17.2242 6.32274 16.7473 6.1252 16.25 6.1252H14.6664C14.6528 6.12498 14.6395 6.12121 14.6278 6.11427C14.6161 6.10732 14.6064 6.09744 14.5997 6.0856C14.593 6.07376 14.5895 6.06037 14.5895 6.04676C14.5896 6.03315 14.5932 6.0198 14.6 6.00801C14.9617 5.39742 15.0791 4.67268 14.9288 3.97912C14.7785 3.28555 14.3716 2.67444 13.7897 2.26831C13.2077 1.86218 12.4937 1.69107 11.7909 1.78928C11.0881 1.88749 10.4483 2.24776 10 2.79786C9.55166 2.24776 8.91193 1.88749 8.2091 1.78928C7.50627 1.69107 6.79229 1.86218 6.21033 2.26831C5.62837 2.67444 5.22145 3.28555 5.07117 3.97912C4.92088 4.67268 5.03835 5.39742 5.4 6.00801C5.40681 6.0198 5.41042 6.03315 5.41047 6.04676C5.41053 6.06037 5.40703 6.07376 5.40032 6.0856C5.39361 6.09744 5.38392 6.10732 5.37222 6.11427C5.36052 6.12121 5.3472 6.12498 5.33359 6.1252H3.75C3.25272 6.1252 2.77581 6.32274 2.42417 6.67437C2.07254 7.026 1.875 7.50292 1.875 8.0002V8.6252C1.87555 9.01279 1.99598 9.39071 2.21977 9.70716C2.44356 10.0236 2.75975 10.2631 3.125 10.3928C3.32571 10.4639 3.53707 10.5002 3.75 10.5002H9.21875C9.26019 10.5002 9.29993 10.4837 9.32924 10.4544C9.35854 10.4251 9.375 10.3854 9.375 10.3439ZM10.625 4.5627C10.625 4.25367 10.7166 3.95157 10.8883 3.69462C11.06 3.43767 11.304 3.2374 11.5896 3.11914C11.8751 3.00088 12.1892 2.96993 12.4923 3.03022C12.7954 3.09051 13.0738 3.23933 13.2924 3.45784C13.3927 3.55823 13.4784 3.67125 13.5475 3.7935C13.5537 3.80431 13.5596 3.8152 13.5655 3.82615C13.5716 3.83763 13.5776 3.84919 13.5835 3.86082C13.6263 3.9459 13.6613 4.03494 13.688 4.12687C13.7005 4.16994 13.7112 4.21364 13.72 4.25787C13.7388 4.35235 13.7487 4.44791 13.7499 4.54333C13.7499 4.54357 13.7499 4.54415 13.7499 4.54439C13.7524 4.75474 13.7123 4.96446 13.6311 5.16064C13.5128 5.44615 13.3125 5.69018 13.0556 5.86187C12.7986 6.03356 12.4965 6.1252 12.1875 6.1252H10.625V4.5627ZM7.70078 3.00411C7.91484 2.98876 8.12977 3.01768 8.33216 3.08905C8.53456 3.16043 8.72008 3.27274 8.87716 3.41897C9.03424 3.5652 9.15951 3.74222 9.24516 3.939C9.32947 4.13268 9.37361 4.34142 9.37497 4.55258C9.37499 4.55595 9.375 4.55933 9.375 4.5627V6.1252H7.8125C7.40847 6.12416 7.02055 5.96666 6.73016 5.68576C6.43976 5.40485 6.26947 5.02237 6.25501 4.6186C6.24056 4.21483 6.38307 3.82116 6.65263 3.52021C6.91025 3.2326 7.26476 3.05068 7.64736 3.009C7.65792 3.00787 7.66849 3.00686 7.67907 3.00595C7.6863 3.00531 7.69353 3.00464 7.70078 3.00411ZM10.7812 19.2502H14.375C15.038 19.2502 15.6739 18.9868 16.1428 18.518C16.6116 18.0491 16.875 17.4132 16.875 16.7502V12.0627C16.875 11.9798 16.8421 11.9003 16.7835 11.8417C16.7249 11.7831 16.6454 11.7502 16.5625 11.7502H10.7812C10.7398 11.7502 10.7001 11.7667 10.6708 11.796C10.6415 11.8253 10.625 11.865 10.625 11.9064V19.0939C10.625 19.1354 10.6415 19.1751 10.6708 19.2044C10.7001 19.2337 10.7398 19.2502 10.7812 19.2502Z" fill="white"/>
  <path fill-rule="evenodd" clip-rule="evenodd" d="M6.94442 5.86192C7.20137 6.03361 7.50347 6.1252 7.8125 6.1252C7.40847 6.12416 7.02055 5.96666 6.73016 5.68576C6.43976 5.40485 6.26947 5.02237 6.25501 4.6186C6.24056 4.21483 6.38307 3.82116 6.65263 3.52021C6.91025 3.2326 7.26476 3.05068 7.64736 3.009C7.60063 3.01396 7.55402 3.02105 7.50767 3.03027C7.20458 3.09056 6.92617 3.23937 6.70765 3.45789C6.48913 3.67641 6.34031 3.95482 6.28002 4.25792C6.21973 4.56101 6.25068 4.87518 6.36894 5.16069C6.4872 5.4462 6.68747 5.69023 6.94442 5.86192ZM13.7499 4.54439C13.75 4.5505 13.75 4.55662 13.75 4.56275L13.7499 4.54439ZM13.7499 4.54439C13.7499 4.54415 13.7499 4.54357 13.7499 4.54333C13.7487 4.44682 13.7386 4.35129 13.72 4.25787C13.72 4.25787 13.72 4.25787 13.72 4.25787C13.7112 4.21364 13.7005 4.16994 13.688 4.12687C13.6613 4.03494 13.6263 3.9459 13.5835 3.86082C13.5776 3.84919 13.5716 3.83763 13.5655 3.82615C13.5655 3.82615 13.5655 3.82615 13.5655 3.82615C13.5596 3.8152 13.5537 3.80431 13.5475 3.7935" fill="white"/>
</svg>