<svg xmlns="http://www.w3.org/2000/svg" width="20" height="21" viewBox="0 0 20 21" fill="none">
  <path fill-rule="evenodd" clip-rule="evenodd" d="M18.3563 12.2039L18.3746 12.2188C18.565 12.3773 18.6927 12.5985 18.7348 12.8426C18.777 13.0868 18.7309 13.3379 18.6047 13.5512L16.9363 16.4375C16.9345 16.4403 16.9328 16.4431 16.9313 16.4461C16.8051 16.6568 16.609 16.8165 16.3772 16.8975C16.1453 16.9784 15.8924 16.9754 15.6625 16.8891L15.6488 16.8836L14.1985 16.2996C14.1073 16.2627 14.0086 16.248 13.9107 16.2566C13.8127 16.2652 13.7181 16.297 13.6348 16.3492C13.5082 16.4285 13.3778 16.5047 13.2442 16.5766C13.1586 16.6233 13.0851 16.6893 13.0296 16.7695C12.9741 16.8497 12.9382 16.9417 12.9246 17.0383L12.707 18.5879L12.7035 18.6098C12.6619 18.8539 12.5354 19.0754 12.3464 19.2354C12.1574 19.3954 11.918 19.4836 11.6703 19.4844H8.32971C8.08511 19.4824 7.84868 19.3962 7.66025 19.2402C7.47183 19.0842 7.34295 18.868 7.29533 18.6281L7.29064 18.6L7.07346 17.0535C7.06004 16.9569 7.02409 16.8647 6.96852 16.7845C6.91295 16.7043 6.83931 16.6383 6.75353 16.5918C6.62124 16.5202 6.49103 16.4439 6.36291 16.3629C6.27943 16.3103 6.18464 16.2783 6.08637 16.2696C5.98809 16.2608 5.88914 16.2755 5.79768 16.3125L4.34963 16.8957L4.33596 16.9008C4.10639 16.9869 3.85391 16.9899 3.62235 16.9093C3.3908 16.8287 3.19479 16.6695 3.06838 16.4594C3.06692 16.4564 3.06522 16.4535 3.0633 16.4508L1.39494 13.5641C1.2692 13.351 1.22335 13.1002 1.26557 12.8565C1.30779 12.6127 1.43534 12.3919 1.62541 12.2336L1.64377 12.2188L2.87619 11.2516C2.95399 11.1905 3.0162 11.1119 3.05769 11.0221C3.09918 10.9323 3.11877 10.834 3.11486 10.7352V10.2836C3.11916 10.1841 3.0998 10.0851 3.05838 9.99457C3.01696 9.90405 2.95465 9.82465 2.87658 9.76289L1.64377 8.79609L1.62541 8.78125C1.43515 8.6227 1.3075 8.40164 1.26528 8.15761C1.22305 7.91357 1.26901 7.66248 1.39494 7.44922L3.06564 4.56055L3.07072 4.55195C3.197 4.34138 3.3931 4.18173 3.62491 4.1008C3.85672 4.01987 4.10957 4.02276 4.33947 4.10898L4.35314 4.11445L5.80353 4.70039C5.89472 4.73729 5.99335 4.75203 6.09134 4.74341C6.18933 4.73479 6.28387 4.70304 6.36721 4.65078C6.49488 4.57072 6.62516 4.4949 6.75783 4.42344C6.84305 4.3765 6.91614 4.31032 6.97127 4.23017C7.0264 4.15001 7.06206 4.05809 7.07541 3.96172L7.29299 2.41211L7.2965 2.39023C7.33817 2.14613 7.46465 1.92457 7.65366 1.76457C7.84267 1.60458 8.08208 1.51642 8.32971 1.51562H11.6703C11.9145 1.51813 12.1504 1.60462 12.3383 1.76054C12.5263 1.91647 12.6548 2.13234 12.7024 2.37187L12.707 2.4L12.9254 3.94648C12.9388 4.04313 12.9748 4.13527 13.0303 4.21547C13.0859 4.29567 13.1596 4.36169 13.2453 4.4082C13.3776 4.48008 13.5078 4.55638 13.636 4.63711C13.7194 4.68969 13.8142 4.72168 13.9125 4.73044C14.0108 4.7392 14.1097 4.72448 14.2012 4.6875L15.6504 4.1043L15.6641 4.09922C15.8936 4.01309 16.1461 4.01008 16.3777 4.09071C16.6092 4.17135 16.8052 4.33053 16.9317 4.54063C16.9331 4.54362 16.9348 4.5465 16.9367 4.54922L18.6051 7.43594C18.7308 7.64898 18.7767 7.8998 18.7345 8.14354C18.6922 8.38729 18.5647 8.60807 18.3746 8.76641L18.3563 8.78125L17.1238 9.74844C17.046 9.80949 16.9838 9.88814 16.9423 9.97791C16.9009 10.0677 16.8813 10.166 16.8852 10.2648V10.7164C16.8809 10.8159 16.9002 10.9149 16.9417 11.0054C16.9831 11.0959 17.0454 11.1753 17.1235 11.2371L18.3563 12.2039ZM12.5355 12.3268C12.8895 11.8354 13.0931 11.2518 13.1215 10.6469C13.1407 10.2126 13.0693 9.77908 12.9118 9.37389C12.7544 8.9687 12.5144 8.60071 12.207 8.29331C11.8996 7.98591 11.5317 7.74583 11.1265 7.58834C10.7213 7.43085 10.2878 7.3594 9.85353 7.37852C9.24862 7.40689 8.66498 7.61041 8.17358 7.96434C7.68219 8.31826 7.30422 8.80734 7.08563 9.37209C6.86704 9.93685 6.81726 10.5529 6.94232 11.1455C7.06739 11.738 7.36193 12.2814 7.79011 12.7097C8.2183 13.1379 8.76168 13.4325 9.3542 13.5576C9.94671 13.6828 10.5628 13.6331 11.1276 13.4145C11.6924 13.196 12.1815 12.8181 12.5355 12.3268ZM11.875 10.5C11.875 11.5355 11.0355 12.375 10 12.375C8.96447 12.375 8.125 11.5355 8.125 10.5C8.125 9.46447 8.96447 8.625 10 8.625C11.0355 8.625 11.875 9.46447 11.875 10.5Z" fill="white"/>
</svg>