<svg xmlns="http://www.w3.org/2000/svg" width="20" height="21" viewBox="0 0 20 21" fill="none">
  <path d="M10 10.5C10.8653 10.5 11.7112 10.2434 12.4306 9.76268C13.1501 9.28195 13.7108 8.59867 14.042 7.79924C14.3731 6.99982 14.4597 6.12015 14.2909 5.27148C14.1221 4.42281 13.7054 3.64326 13.0936 3.03141C12.4817 2.41956 11.7022 2.00288 10.8535 1.83407C10.0049 1.66526 9.12519 1.7519 8.32576 2.08303C7.52633 2.41416 6.84305 2.97492 6.36232 3.69438C5.88159 4.41385 5.625 5.25971 5.625 6.125C5.625 7.28532 6.08594 8.39812 6.90641 9.21859C7.72688 10.0391 8.83968 10.5 10 10.5ZM10 11.75C7.28828 11.75 1.875 13.425 1.875 16.75V19.25H18.125V16.75C18.125 13.425 12.7117 11.75 10 11.75Z" fill="white"/>
</svg>