<svg width="30" height="30" viewBox="0 0 30 30" fill="none" xmlns="http://www.w3.org/2000/svg">
<path d="M29.5496 18.6321C28.8314 21.5104 27.2759 24.1111 25.0799 26.1052C22.8839 28.0994 20.146 29.3976 17.2123 29.8356C14.2787 30.2736 11.281 29.8318 8.59846 28.5659C5.91587 27.3001 3.66881 25.2672 2.14139 22.7242C0.613972 20.1812 -0.125203 17.2423 0.0173307 14.2792C0.159864 11.3161 1.1777 8.46173 2.94215 6.07712C4.7066 3.69251 7.13841 1.8847 9.9301 0.88229C12.7218 -0.120122 15.748 -0.272123 18.6261 0.445507C20.5374 0.922094 22.3362 1.77059 23.9196 2.94255C25.5031 4.1145 26.8402 5.58694 27.8545 7.27578C28.8689 8.96463 29.5407 10.8368 29.8316 12.7853C30.1224 14.7339 30.0266 16.7206 29.5496 18.6321Z" fill="#F7931A"/>
<path d="M21.6123 12.866C21.9097 10.8693 20.39 9.79347 18.312 9.08035L18.9884 6.37456L17.3586 5.96706L16.7026 8.59542L15.3825 8.28573L16.0425 5.63699L14.4128 5.22949L13.7405 7.93528C13.3819 7.8497 13.0315 7.77228 12.6893 7.6867L10.3872 7.10806L9.95128 8.86437C9.95128 8.86437 11.1736 9.14555 11.1451 9.16185C11.3731 9.18847 11.5814 9.30396 11.7248 9.48324C11.8682 9.66253 11.9352 9.89114 11.9111 10.1195L11.141 13.2124L10.0654 17.5196C10.0434 17.5964 10.0064 17.668 9.9564 17.7303C9.90641 17.7925 9.84448 17.8441 9.77426 17.8821C9.70403 17.9201 9.62693 17.9436 9.54747 17.9513C9.46802 17.9591 9.38782 17.9508 9.31159 17.9271C9.31159 17.9516 8.11371 17.6297 8.11371 17.6297L7.29883 19.5123L9.44198 20.0502C9.84942 20.148 10.2283 20.2539 10.6113 20.3517L9.93091 23.086L11.5607 23.4935L12.2493 20.7796C12.7015 20.9019 13.1375 21.0119 13.5612 21.1178L12.8889 23.8114L14.5187 24.2189L15.1991 21.4887C18.0064 22.0184 20.117 21.8065 21.0052 19.2678C21.7223 17.2303 20.9726 16.0445 19.4936 15.2743C20.5692 15.0257 21.38 14.3167 21.596 12.8579L21.6123 12.866ZM17.8516 18.139C17.3423 20.1765 13.8994 19.0803 12.7871 18.7992L13.6875 15.1765C14.8039 15.4536 18.3813 15.9915 17.8516 18.139ZM18.3609 12.8416C17.8964 14.7038 15.0321 13.7584 14.1031 13.5261L14.918 10.2376C15.851 10.4618 18.8458 10.8937 18.3609 12.8334V12.8416Z" fill="white"/>
</svg>
