<svg width="207" height="159" viewBox="0 0 207 159" fill="none" xmlns="http://www.w3.org/2000/svg">
<path d="M132.5 76.1875V46.375L102.688 13.25H33.125C29.4661 13.25 26.5 16.2161 26.5 19.875V139.125C26.5 142.784 29.4661 145.75 33.125 145.75H72.875" stroke="#2666FF" stroke-opacity="0.72" stroke-width="2" stroke-linecap="round" stroke-linejoin="round"/>
<path d="M106 145.75L139.125 112.625L125.875 99.375L92.75 132.5V145.75H106Z" fill="#2666FF" fill-opacity="0.72" stroke="#2666FF" stroke-opacity="0.72" stroke-width="2" stroke-linecap="round" stroke-linejoin="round"/>
<path d="M99.375 13.25V46.375H132.5" stroke="#2666FF" stroke-opacity="0.72" stroke-width="2" stroke-linecap="round" stroke-linejoin="round"/>
<path d="M106.633 93V92.0156L107.906 91.7969V82.8359L106.633 82.6172V81.625H110.719V82.6172L109.445 82.8359V86.7656H114.883V82.8359L113.609 82.6172V81.625H114.883H116.422H117.695V82.6172L116.422 82.8359V91.7969L117.695 92.0156V93H113.609V92.0156L114.883 91.7969V87.9766H109.445V91.7969L110.719 92.0156V93H106.633ZM122.758 93.1641C121.977 93.1641 121.297 92.987 120.719 92.6328C120.141 92.2734 119.693 91.776 119.375 91.1406C119.062 90.5052 118.906 89.7708 118.906 88.9375V88.5938C118.906 87.7917 119.07 87.0755 119.398 86.4453C119.732 85.8099 120.172 85.3099 120.719 84.9453C121.271 84.5755 121.872 84.3906 122.523 84.3906C123.284 84.3906 123.919 84.5469 124.43 84.8594C124.945 85.1719 125.333 85.612 125.594 86.1797C125.854 86.7422 125.984 87.4062 125.984 88.1719V89.1328H120.5L120.477 89.1719C120.487 89.7135 120.581 90.1953 120.758 90.6172C120.94 91.0339 121.201 91.362 121.539 91.6016C121.878 91.8411 122.284 91.9609 122.758 91.9609C123.279 91.9609 123.734 91.888 124.125 91.7422C124.521 91.5911 124.862 91.3854 125.148 91.125L125.75 92.125C125.448 92.4167 125.047 92.6641 124.547 92.8672C124.052 93.0651 123.456 93.1641 122.758 93.1641ZM120.547 87.9297H124.445V87.7266C124.445 87.3203 124.372 86.9583 124.227 86.6406C124.086 86.3177 123.872 86.0651 123.586 85.8828C123.305 85.6953 122.951 85.6016 122.523 85.6016C122.18 85.6016 121.867 85.7031 121.586 85.9062C121.305 86.1042 121.073 86.375 120.891 86.7188C120.708 87.0625 120.589 87.4531 120.531 87.8906L120.547 87.9297ZM129.062 93V92.0156L130.336 91.7969V85.7422H128.555L128.438 87.0625H127.125V84.5469H135.125V87.0625H133.805L133.688 85.7422H131.875V91.7969L133.148 92.0156V93H129.062ZM143.781 93.1484C143.167 93.1484 142.604 93.0495 142.094 92.8516C141.583 92.6536 141.18 92.362 140.883 91.9766C140.586 91.5859 140.445 91.1094 140.461 90.5469L140.477 90.5H141.938C141.938 90.7656 142.016 91.0104 142.172 91.2344C142.328 91.4531 142.544 91.6302 142.82 91.7656C143.102 91.901 143.422 91.9688 143.781 91.9688C144.339 91.9688 144.771 91.8411 145.078 91.5859C145.385 91.3255 145.539 91.0026 145.539 90.6172C145.539 90.1641 145.404 89.8333 145.133 89.625C144.867 89.4167 144.451 89.3125 143.883 89.3125H142.414V88.0625H143.883C144.424 88.0625 144.81 87.9609 145.039 87.7578C145.273 87.5495 145.391 87.25 145.391 86.8594C145.391 86.5052 145.258 86.2057 144.992 85.9609C144.727 85.7161 144.323 85.5938 143.781 85.5938C143.458 85.5938 143.167 85.6536 142.906 85.7734C142.651 85.888 142.448 86.0443 142.297 86.2422C142.146 86.4401 142.07 86.6615 142.07 86.9062H140.609L140.594 86.8594C140.573 86.375 140.701 85.9505 140.977 85.5859C141.258 85.2161 141.643 84.9271 142.133 84.7188C142.622 84.5104 143.172 84.4062 143.781 84.4062C144.771 84.4062 145.544 84.6198 146.102 85.0469C146.659 85.4688 146.938 86.0729 146.938 86.8594C146.938 87.2396 146.823 87.5885 146.594 87.9062C146.365 88.224 146.044 88.474 145.633 88.6562C146.607 89 147.094 89.6536 147.094 90.6172C147.094 91.1432 146.956 91.5964 146.68 91.9766C146.404 92.3516 146.016 92.6406 145.516 92.8438C145.021 93.0469 144.443 93.1484 143.781 93.1484ZM151.266 93.1641C150.385 93.1641 149.716 92.9505 149.258 92.5234C148.799 92.0911 148.57 91.4844 148.57 90.7031C148.57 90.1667 148.716 89.7005 149.008 89.3047C149.305 88.9036 149.732 88.5938 150.289 88.375C150.846 88.151 151.513 88.0391 152.289 88.0391H153.797V87.2109C153.797 86.7005 153.641 86.3047 153.328 86.0234C153.021 85.7422 152.586 85.6016 152.023 85.6016C151.669 85.6016 151.362 85.6458 151.102 85.7344C150.841 85.8177 150.604 85.9349 150.391 86.0859L150.227 87.2656H149.039V85.3281C149.419 85.0208 149.862 84.7891 150.367 84.6328C150.872 84.4714 151.432 84.3906 152.047 84.3906C153.073 84.3906 153.878 84.6354 154.461 85.125C155.044 85.6146 155.336 86.3151 155.336 87.2266V91.2969C155.336 91.4062 155.336 91.513 155.336 91.6172C155.341 91.7214 155.349 91.8255 155.359 91.9297L156.18 92.0156V93H153.969C153.922 92.7708 153.885 92.5651 153.859 92.3828C153.833 92.2005 153.815 92.0182 153.805 91.8359C153.508 92.2161 153.135 92.5339 152.688 92.7891C152.245 93.0391 151.771 93.1641 151.266 93.1641ZM151.492 91.875C152.003 91.875 152.469 91.7526 152.891 91.5078C153.312 91.263 153.615 90.9688 153.797 90.625V89.0938H152.234C151.526 89.0938 150.995 89.263 150.641 89.6016C150.286 89.9401 150.109 90.3177 150.109 90.7344C150.109 91.1042 150.224 91.388 150.453 91.5859C150.682 91.7786 151.029 91.875 151.492 91.875ZM157.555 93V92.0156L158.828 91.7969V85.7578L157.555 85.5391V84.5469H166.945V85.5391L165.672 85.7578V91.7969L166.945 92.0156V93H162.859V92.0156L164.133 91.7969V85.7656H160.367V91.7969L161.641 92.0156V93H157.555ZM168.461 93V92.0156L169.734 91.7969V85.7578L168.461 85.5391V84.5469H171.266H172.539V85.5391L171.266 85.7578V90.5312L171.312 90.5469L175.039 84.5469H176.578H177.852V85.5391L176.578 85.7578V91.7969L177.852 92.0156V93H173.766V92.0156L175.039 91.7969V87.0156L174.992 87L171.266 93H168.461ZM183.008 93.1641C182.242 93.1641 181.576 92.987 181.008 92.6328C180.44 92.2734 180 91.776 179.688 91.1406C179.375 90.5052 179.219 89.7708 179.219 88.9375V88.6094C179.219 87.8073 179.37 87.0885 179.672 86.4531C179.974 85.8177 180.409 85.3151 180.977 84.9453C181.544 84.5755 182.221 84.3906 183.008 84.3906C183.69 84.3906 184.286 84.5026 184.797 84.7266C185.312 84.9505 185.745 85.2578 186.094 85.6484L186.133 87.6797H184.93L184.664 86.2031C184.487 86.0208 184.266 85.875 184 85.7656C183.734 85.6562 183.422 85.6016 183.062 85.6016C182.604 85.6016 182.201 85.737 181.852 86.0078C181.508 86.2786 181.24 86.6406 181.047 87.0938C180.854 87.5469 180.758 88.0521 180.758 88.6094V88.9375C180.758 89.5521 180.846 90.0859 181.023 90.5391C181.206 90.9922 181.464 91.3438 181.797 91.5938C182.135 91.8385 182.536 91.9609 183 91.9609C183.521 91.9609 183.953 91.8177 184.297 91.5312C184.641 91.2448 184.852 90.8516 184.93 90.3516H186.312L186.328 90.3984C186.302 90.8828 186.159 91.3359 185.898 91.7578C185.638 92.1797 185.266 92.5208 184.781 92.7812C184.302 93.0365 183.711 93.1641 183.008 93.1641ZM191.695 93.1641C190.914 93.1641 190.234 92.987 189.656 92.6328C189.078 92.2734 188.63 91.776 188.312 91.1406C188 90.5052 187.844 89.7708 187.844 88.9375V88.5938C187.844 87.7917 188.008 87.0755 188.336 86.4453C188.669 85.8099 189.109 85.3099 189.656 84.9453C190.208 84.5755 190.81 84.3906 191.461 84.3906C192.221 84.3906 192.857 84.5469 193.367 84.8594C193.883 85.1719 194.271 85.612 194.531 86.1797C194.792 86.7422 194.922 87.4062 194.922 88.1719V89.1328H189.438L189.414 89.1719C189.424 89.7135 189.518 90.1953 189.695 90.6172C189.878 91.0339 190.138 91.362 190.477 91.6016C190.815 91.8411 191.221 91.9609 191.695 91.9609C192.216 91.9609 192.672 91.888 193.062 91.7422C193.458 91.5911 193.799 91.3854 194.086 91.125L194.688 92.125C194.385 92.4167 193.984 92.6641 193.484 92.8672C192.99 93.0651 192.393 93.1641 191.695 93.1641ZM189.484 87.9297H193.383V87.7266C193.383 87.3203 193.31 86.9583 193.164 86.6406C193.023 86.3177 192.81 86.0651 192.523 85.8828C192.242 85.6953 191.888 85.6016 191.461 85.6016C191.117 85.6016 190.805 85.7031 190.523 85.9062C190.242 86.1042 190.01 86.375 189.828 86.7188C189.646 87.0625 189.526 87.4531 189.469 87.8906L189.484 87.9297ZM196.305 93V92.0156L197.578 91.7969V85.7578L196.305 85.5391V84.5469H199.109H200.383V85.5391L199.109 85.7578V90.5312L199.156 90.5469L202.883 84.5469H204.422H205.695V85.5391L204.422 85.7578V91.7969L205.695 92.0156V93H201.609V92.0156L202.883 91.7969V87.0156L202.836 87L199.109 93H196.305ZM201.047 83.0625C200.292 83.0625 199.698 82.8594 199.266 82.4531C198.833 82.0417 198.617 81.5104 198.617 80.8594L198.633 80.8125H199.805C199.805 81.1875 199.904 81.4922 200.102 81.7266C200.305 81.9609 200.62 82.0781 201.047 82.0781C201.464 82.0781 201.773 81.9609 201.977 81.7266C202.18 81.4922 202.281 81.1875 202.281 80.8125H203.461L203.477 80.8594C203.471 81.5104 203.253 82.0417 202.82 82.4531C202.393 82.8594 201.802 83.0625 201.047 83.0625Z" fill="#2666FF"/>
</svg>
