<svg width="30" height="30" viewBox="0 0 30 30" fill="none" xmlns="http://www.w3.org/2000/svg">
<g clip-path="url(#clip0_901_9)">
<path d="M29.5496 18.6351C28.8314 21.5133 27.2759 24.114 25.0799 26.1082C22.8839 28.1024 20.146 29.4005 17.2123 29.8385C14.2787 30.2765 11.281 29.8347 8.59846 28.5689C5.91587 27.3031 3.66881 25.2701 2.14139 22.7271C0.613972 20.1841 -0.125203 17.2453 0.0173307 14.2821C0.159864 11.319 1.1777 8.46466 2.94215 6.08005C4.7066 3.69544 7.13841 1.88763 9.9301 0.88522C12.7218 -0.117192 15.748 -0.269193 18.6261 0.448436C20.5374 0.925024 22.3362 1.77352 23.9196 2.94548C25.5031 4.11743 26.8402 5.58987 27.8545 7.27871C28.8689 8.96756 29.5407 10.8397 29.8316 12.7883C30.1224 14.7368 30.0266 16.7236 29.5496 18.6351Z" fill="#F7931A"/>
<path d="M21.6125 12.8689C21.91 10.8722 20.3902 9.7964 18.3122 9.08328L18.9886 6.37749L17.3588 5.96999L16.7028 8.59835L15.3827 8.28866L16.0428 5.63992L14.413 5.23242L13.7407 7.93821C13.3822 7.85263 13.0318 7.77521 12.6895 7.68963L10.3875 7.11099L9.95152 8.8673C9.95152 8.8673 11.1739 9.14848 11.1453 9.16478C11.3733 9.1914 11.5817 9.30689 11.7251 9.48617C11.8685 9.66546 11.9354 9.89407 11.9113 10.1224L11.1413 13.2153L10.0656 17.5226C10.0437 17.5993 10.0066 17.6709 9.95665 17.7332C9.90666 17.7954 9.84473 17.847 9.7745 17.885C9.70428 17.923 9.62717 17.9465 9.54772 17.9543C9.46826 17.962 9.38807 17.9538 9.31184 17.9301C9.31184 17.9545 8.11396 17.6326 8.11396 17.6326L7.29907 19.5152L9.44222 20.0531C9.84966 20.1509 10.2286 20.2569 10.6116 20.3547L9.93115 23.089L11.5609 23.4965L12.2495 20.7825C12.7018 20.9048 13.1377 21.0148 13.5615 21.1208L12.8892 23.8143L14.519 24.2218L15.1994 21.4916C18.0067 22.0213 20.1172 21.8094 21.0054 19.2707C21.7225 17.2332 20.9728 16.0474 19.4938 15.2772C20.5695 15.0287 21.3803 14.3196 21.5962 12.8608L21.6125 12.8689ZM17.8518 18.142C17.3425 20.1794 13.8996 19.0833 12.7873 18.8021L13.6878 15.1794C14.8042 15.4565 18.3815 15.9944 17.8518 18.142ZM18.3611 12.8445C17.8967 14.7067 15.0323 13.7614 14.1034 13.5291L14.9182 10.2406C15.8513 10.4647 18.846 10.8966 18.3611 12.8363V12.8445Z" fill="white"/>
</g>
<defs>
<clipPath id="clip0_901_9">
<rect width="30" height="30" fill="white"/>
</clipPath>
</defs>
</svg>
