<svg width="30" height="30" viewBox="0 0 30 30" fill="none" xmlns="http://www.w3.org/2000/svg">
<g clip-path="url(#clip0_901_21)">
<path d="M29.6084 18.3923C31.4818 10.3226 26.4587 2.26218 18.3891 0.388767C10.3194 -1.48465 2.25894 3.5384 0.385528 11.6081C-1.48789 19.6777 3.53516 27.7382 11.6048 29.6116C19.6745 31.485 27.7349 26.462 29.6084 18.3923Z" fill="#627EEA"/>
<path d="M15.4807 3.75195V12.0667L22.5122 15.2077L15.4807 3.75195Z" fill="white" fill-opacity="0.602"/>
<path d="M15.4807 3.75195L8.43701 15.2077L15.4807 12.0667V3.75195Z" fill="white"/>
<path d="M15.4807 20.5974V26.2479L22.5 16.5154L15.4807 20.5974Z" fill="white" fill-opacity="0.602"/>
<path d="M15.4808 26.2479V20.5934L8.45337 16.5195L15.4808 26.2479Z" fill="white"/>
<path d="M15.4807 19.2856L22.5122 15.2117L15.4807 12.0667V19.2856Z" fill="white" fill-opacity="0.2"/>
<path d="M8.43701 15.2076L15.4807 19.2856V12.0667L8.43701 15.2076Z" fill="white" fill-opacity="0.602"/>
</g>
<defs>
<clipPath id="clip0_901_21">
<rect width="29.9959" height="30" fill="white"/>
</clipPath>
</defs>
</svg>
