<svg width="94" height="17" viewBox="0 0 94 17" fill="none" xmlns="http://www.w3.org/2000/svg">
<path d="M7.9 1.56C8.79333 1.56 9.52 1.69333 10.08 1.96C10.64 2.21333 11.1533 2.51333 11.62 2.86C11.78 2.99333 11.9133 3.06 12.02 3.06C12.2733 3.06 12.44 2.65333 12.52 1.84H12.98C12.9533 2.34667 12.9333 2.96667 12.92 3.7C12.9067 4.43333 12.9 5.4 12.9 6.6H12.44C12.3467 5.88 12.2133 5.23333 12.04 4.66C11.8667 4.08667 11.5533 3.6 11.1 3.2C10.7533 2.82667 10.3133 2.54 9.78 2.34C9.26 2.12667 8.73333 2.02 8.2 2.02C7.49333 2.02 6.87333 2.20667 6.34 2.58C5.82 2.94 5.38 3.44 5.02 4.08C4.67333 4.70667 4.41333 5.44 4.24 6.28C4.06667 7.10667 3.98 7.99333 3.98 8.94C3.98 11.34 4.32667 13.1 5.02 14.22C5.72667 15.3267 6.76 15.88 8.12 15.88C8.49333 15.88 8.81333 15.8333 9.08 15.74C9.36 15.6333 9.58667 15.5267 9.76 15.42C9.97333 15.2733 10.1133 15.12 10.18 14.96C10.2467 14.8 10.28 14.6 10.28 14.36V12.4C10.28 11.8133 10.2267 11.38 10.12 11.1C10.0133 10.8067 9.81333 10.6067 9.52 10.5C9.24 10.3933 8.82 10.3333 8.26 10.32V9.92C8.52667 9.93333 8.84 9.94667 9.2 9.96C9.57333 9.96 9.96 9.96667 10.36 9.98C10.7733 9.98 11.1467 9.98 11.48 9.98C12 9.98 12.4733 9.97333 12.9 9.96C13.3267 9.94667 13.68 9.93333 13.96 9.92V10.32C13.6933 10.3333 13.4867 10.38 13.34 10.46C13.2067 10.54 13.12 10.7 13.08 10.94C13.04 11.18 13.02 11.5467 13.02 12.04V16H12.62C12.6067 15.7733 12.5533 15.5267 12.46 15.26C12.3667 14.9933 12.2267 14.86 12.04 14.86C11.9467 14.86 11.84 14.8867 11.72 14.94C11.6 14.98 11.3933 15.08 11.1 15.24C10.6333 15.5467 10.1333 15.8 9.6 16C9.08 16.1867 8.50667 16.28 7.88 16.28C6.38667 16.28 5.12 16 4.08 15.44C3.05333 14.8667 2.27333 14.0467 1.74 12.98C1.20667 11.9 0.94 10.6133 0.94 9.12C0.94 7.58667 1.24 6.25333 1.84 5.12C2.44 3.98667 3.26 3.11333 4.3 2.5C5.35333 1.87333 6.55333 1.56 7.9 1.56ZM15.5927 1.84C15.926 1.85333 16.3527 1.86667 16.8727 1.88C17.3927 1.89333 17.9127 1.9 18.4327 1.9C19.086 1.9 19.706 1.89333 20.2927 1.88C20.8793 1.86667 21.2927 1.86 21.5327 1.86C22.7327 1.86 23.7193 2.00667 24.4927 2.3C25.2793 2.58 25.866 2.98 26.2527 3.5C26.6393 4.02 26.8327 4.63333 26.8327 5.34C26.8327 5.78 26.746 6.23333 26.5727 6.7C26.3993 7.15333 26.0993 7.57333 25.6727 7.96C25.246 8.34667 24.6593 8.66667 23.9127 8.92C23.1793 9.16 22.2393 9.28 21.0927 9.28H19.1727V8.88H20.8927C21.7327 8.88 22.3727 8.73333 22.8127 8.44C23.266 8.13333 23.566 7.73333 23.7127 7.24C23.8727 6.73333 23.9527 6.17333 23.9527 5.56C23.9527 4.50667 23.746 3.69333 23.3327 3.12C22.9193 2.53333 22.206 2.24 21.1927 2.24C20.646 2.24 20.286 2.35333 20.1127 2.58C19.9527 2.80667 19.8727 3.26667 19.8727 3.96V13.88C19.8727 14.36 19.9127 14.72 19.9927 14.96C20.0727 15.2 20.2193 15.36 20.4327 15.44C20.6593 15.52 20.986 15.5733 21.4127 15.6V16C21.0793 15.9733 20.6527 15.96 20.1327 15.96C19.6127 15.9467 19.086 15.94 18.5527 15.94C17.9527 15.94 17.3927 15.9467 16.8727 15.96C16.3527 15.96 15.926 15.9733 15.5927 16V15.6C16.0327 15.5733 16.3593 15.52 16.5727 15.44C16.7993 15.36 16.946 15.2 17.0127 14.96C17.0927 14.72 17.1327 14.36 17.1327 13.88V3.96C17.1327 3.46667 17.0927 3.10667 17.0127 2.88C16.946 2.64 16.7993 2.48 16.5727 2.4C16.3593 2.30667 16.0327 2.25333 15.5927 2.24V1.84ZM19.1727 8.94C19.7993 8.96667 20.3193 9 20.7327 9.04C21.1593 9.06667 21.5193 9.09333 21.8127 9.12C22.1193 9.14667 22.3927 9.18 22.6327 9.22C23.7393 9.32667 24.5527 9.58667 25.0727 10C25.606 10.4 25.9593 11.0133 26.1327 11.84L26.5927 13.9C26.7127 14.4467 26.8393 14.84 26.9727 15.08C27.1193 15.3067 27.326 15.4133 27.5927 15.4C27.7793 15.4 27.9393 15.3533 28.0727 15.26C28.206 15.1533 28.3393 15.0133 28.4727 14.84L28.7527 15.08C28.4193 15.4933 28.066 15.8 27.6927 16C27.3193 16.1867 26.846 16.28 26.2727 16.28C25.6327 16.28 25.0927 16.1333 24.6527 15.84C24.2127 15.5333 23.9127 14.96 23.7527 14.12L23.3727 12.12C23.266 11.56 23.1393 11.0667 22.9927 10.64C22.8593 10.2133 22.6727 9.88 22.4327 9.64C22.1927 9.4 21.8393 9.28 21.3727 9.28H19.2127L19.1727 8.94ZM39.9878 1.84C39.9345 2.38667 39.8945 2.92 39.8678 3.44C39.8545 3.94667 39.8478 4.33333 39.8478 4.6C39.8478 4.85333 39.8545 5.1 39.8678 5.34C39.8811 5.56667 39.8945 5.76 39.9078 5.92H39.4478C39.3411 5 39.1678 4.28 38.9278 3.76C38.6878 3.22667 38.3611 2.85333 37.9478 2.64C37.5478 2.41333 37.0211 2.3 36.3678 2.3H35.2678C34.8678 2.3 34.5611 2.33333 34.3478 2.4C34.1345 2.46667 33.9878 2.60667 33.9078 2.82C33.8411 3.03333 33.8078 3.36 33.8078 3.8V14.04C33.8078 14.4667 33.8411 14.7933 33.9078 15.02C33.9878 15.2333 34.1345 15.3733 34.3478 15.44C34.5611 15.5067 34.8678 15.54 35.2678 15.54H36.4078C37.0878 15.54 37.6545 15.4133 38.1078 15.16C38.5745 14.9067 38.9478 14.4933 39.2278 13.92C39.5078 13.3333 39.7145 12.5333 39.8478 11.52H40.3078C40.2678 11.9333 40.2478 12.4667 40.2478 13.12C40.2478 13.4 40.2545 13.8067 40.2678 14.34C40.2945 14.8733 40.3345 15.4267 40.3878 16C39.7078 15.9733 38.9411 15.96 38.0878 15.96C37.2345 15.9467 36.4745 15.94 35.8078 15.94C35.5011 15.94 35.0945 15.94 34.5878 15.94C34.0945 15.94 33.5545 15.9467 32.9678 15.96C32.3945 15.96 31.8078 15.9667 31.2078 15.98C30.6211 15.98 30.0611 15.9867 29.5278 16V15.6C29.9678 15.5733 30.2945 15.52 30.5078 15.44C30.7345 15.36 30.8811 15.2 30.9478 14.96C31.0278 14.72 31.0678 14.36 31.0678 13.88V3.96C31.0678 3.46667 31.0278 3.10667 30.9478 2.88C30.8811 2.64 30.7345 2.48 30.5078 2.4C30.2945 2.30667 29.9678 2.25333 29.5278 2.24V1.84C30.0611 1.85333 30.6211 1.86667 31.2078 1.88C31.8078 1.88 32.3945 1.88667 32.9678 1.9C33.5545 1.9 34.0945 1.9 34.5878 1.9C35.0945 1.9 35.5011 1.9 35.8078 1.9C36.4211 1.9 37.1145 1.9 37.8878 1.9C38.6745 1.88667 39.3745 1.86667 39.9878 1.84ZM36.7678 8.68C36.7678 8.68 36.7678 8.74667 36.7678 8.88C36.7678 9.01333 36.7678 9.08 36.7678 9.08H33.2078C33.2078 9.08 33.2078 9.01333 33.2078 8.88C33.2078 8.74667 33.2078 8.68 33.2078 8.68H36.7678ZM37.3478 6.04C37.2945 6.8 37.2678 7.38 37.2678 7.78C37.2811 8.18 37.2878 8.54667 37.2878 8.88C37.2878 9.21333 37.2945 9.58 37.3078 9.98C37.3211 10.38 37.3545 10.96 37.4078 11.72H36.9478C36.8811 11.2667 36.7745 10.84 36.6278 10.44C36.4945 10.0267 36.2745 9.7 35.9678 9.46C35.6745 9.20667 35.2478 9.08 34.6878 9.08V8.68C35.1011 8.68 35.4345 8.59333 35.6878 8.42C35.9545 8.24667 36.1678 8.02667 36.3278 7.76C36.4878 7.48 36.6078 7.19333 36.6878 6.9C36.7811 6.59333 36.8478 6.30667 36.8878 6.04H37.3478ZM52.8878 1.84C52.8345 2.38667 52.7945 2.92 52.7678 3.44C52.7545 3.94667 52.7478 4.33333 52.7478 4.6C52.7478 4.85333 52.7545 5.1 52.7678 5.34C52.7811 5.56667 52.7945 5.76 52.8078 5.92H52.3478C52.2411 5 52.0678 4.28 51.8278 3.76C51.5878 3.22667 51.2611 2.85333 50.8478 2.64C50.4478 2.41333 49.9211 2.3 49.2678 2.3H48.1678C47.7678 2.3 47.4611 2.33333 47.2478 2.4C47.0345 2.46667 46.8878 2.60667 46.8078 2.82C46.7411 3.03333 46.7078 3.36 46.7078 3.8V14.04C46.7078 14.4667 46.7411 14.7933 46.8078 15.02C46.8878 15.2333 47.0345 15.3733 47.2478 15.44C47.4611 15.5067 47.7678 15.54 48.1678 15.54H49.3078C49.9878 15.54 50.5545 15.4133 51.0078 15.16C51.4745 14.9067 51.8478 14.4933 52.1278 13.92C52.4078 13.3333 52.6145 12.5333 52.7478 11.52H53.2078C53.1678 11.9333 53.1478 12.4667 53.1478 13.12C53.1478 13.4 53.1545 13.8067 53.1678 14.34C53.1945 14.8733 53.2345 15.4267 53.2878 16C52.6078 15.9733 51.8411 15.96 50.9878 15.96C50.1345 15.9467 49.3745 15.94 48.7078 15.94C48.4011 15.94 47.9945 15.94 47.4878 15.94C46.9945 15.94 46.4545 15.9467 45.8678 15.96C45.2945 15.96 44.7078 15.9667 44.1078 15.98C43.5211 15.98 42.9611 15.9867 42.4278 16V15.6C42.8678 15.5733 43.1945 15.52 43.4078 15.44C43.6345 15.36 43.7811 15.2 43.8478 14.96C43.9278 14.72 43.9678 14.36 43.9678 13.88V3.96C43.9678 3.46667 43.9278 3.10667 43.8478 2.88C43.7811 2.64 43.6345 2.48 43.4078 2.4C43.1945 2.30667 42.8678 2.25333 42.4278 2.24V1.84C42.9611 1.85333 43.5211 1.86667 44.1078 1.88C44.7078 1.88 45.2945 1.88667 45.8678 1.9C46.4545 1.9 46.9945 1.9 47.4878 1.9C47.9945 1.9 48.4011 1.9 48.7078 1.9C49.3211 1.9 50.0145 1.9 50.7878 1.9C51.5745 1.88667 52.2745 1.86667 52.8878 1.84ZM49.6678 8.68C49.6678 8.68 49.6678 8.74667 49.6678 8.88C49.6678 9.01333 49.6678 9.08 49.6678 9.08H46.1078C46.1078 9.08 46.1078 9.01333 46.1078 8.88C46.1078 8.74667 46.1078 8.68 46.1078 8.68H49.6678ZM50.2478 6.04C50.1945 6.8 50.1678 7.38 50.1678 7.78C50.1811 8.18 50.1878 8.54667 50.1878 8.88C50.1878 9.21333 50.1945 9.58 50.2078 9.98C50.2211 10.38 50.2545 10.96 50.3078 11.72H49.8478C49.7811 11.2667 49.6745 10.84 49.5278 10.44C49.3945 10.0267 49.1745 9.7 48.8678 9.46C48.5745 9.20667 48.1478 9.08 47.5878 9.08V8.68C48.0011 8.68 48.3345 8.59333 48.5878 8.42C48.8545 8.24667 49.0678 8.02667 49.2278 7.76C49.3878 7.48 49.5078 7.19333 49.5878 6.9C49.6811 6.59333 49.7478 6.30667 49.7878 6.04H50.2478ZM62.3078 5.38C62.8678 5.38 63.3145 5.45333 63.6478 5.6C63.9945 5.74667 64.2745 5.93333 64.4878 6.16C64.7278 6.41333 64.8945 6.74 64.9878 7.14C65.0945 7.54 65.1478 8.08 65.1478 8.76V14.14C65.1478 14.7 65.2478 15.08 65.4478 15.28C65.6611 15.48 66.0145 15.58 66.5078 15.58V16C66.2678 15.9867 65.8945 15.9733 65.3878 15.96C64.8945 15.9333 64.4145 15.92 63.9478 15.92C63.4545 15.92 62.9745 15.9333 62.5078 15.96C62.0411 15.9733 61.6945 15.9867 61.4678 16V15.58C61.8945 15.58 62.1945 15.48 62.3678 15.28C62.5411 15.08 62.6278 14.7 62.6278 14.14V8.08C62.6278 7.72 62.5945 7.4 62.5278 7.12C62.4611 6.82667 62.3278 6.6 62.1278 6.44C61.9278 6.26667 61.6411 6.18 61.2678 6.18C60.8278 6.18 60.4345 6.3 60.0878 6.54C59.7545 6.78 59.4878 7.11333 59.2878 7.54C59.1011 7.95333 59.0078 8.42 59.0078 8.94V14.14C59.0078 14.7 59.0945 15.08 59.2678 15.28C59.4411 15.48 59.7411 15.58 60.1678 15.58V16C59.9411 15.9867 59.6011 15.9733 59.1478 15.96C58.6945 15.9333 58.2345 15.92 57.7678 15.92C57.2745 15.92 56.7745 15.9333 56.2678 15.96C55.7611 15.9733 55.3811 15.9867 55.1278 16V15.58C55.6211 15.58 55.9678 15.48 56.1678 15.28C56.3811 15.08 56.4878 14.7 56.4878 14.14V7.84C56.4878 7.24 56.3878 6.8 56.1878 6.52C56.0011 6.22667 55.6478 6.08 55.1278 6.08V5.66C55.5545 5.7 55.9678 5.72 56.3678 5.72C56.8611 5.72 57.3278 5.7 57.7678 5.66C58.2211 5.60667 58.6345 5.53333 59.0078 5.44V7.44C59.3411 6.68 59.8011 6.14667 60.3878 5.84C60.9745 5.53333 61.6145 5.38 62.3078 5.38ZM70.4758 16.14C69.9024 16.14 69.4158 16.0333 69.0158 15.82C68.6158 15.5933 68.3158 15.2933 68.1158 14.92C67.9158 14.5333 67.8158 14.1067 67.8158 13.64C67.8158 13.0667 67.9491 12.6 68.2158 12.24C68.4824 11.8667 68.8224 11.5733 69.2358 11.36C69.6624 11.1333 70.1091 10.9467 70.5758 10.8C71.0424 10.64 71.4824 10.4933 71.8958 10.36C72.3091 10.2133 72.6491 10.0467 72.9158 9.86C73.1824 9.67333 73.3158 9.42667 73.3158 9.12V7.66C73.3158 7.23333 73.2491 6.88667 73.1158 6.62C72.9958 6.34 72.8091 6.13333 72.5558 6C72.3158 5.85333 72.0091 5.78 71.6358 5.78C71.3558 5.78 71.0624 5.82 70.7558 5.9C70.4491 5.98 70.1958 6.13333 69.9958 6.36C70.3424 6.45333 70.6091 6.62667 70.7958 6.88C70.9958 7.13333 71.0958 7.44 71.0958 7.8C71.0958 8.21333 70.9558 8.54 70.6758 8.78C70.4091 9.00667 70.0691 9.12 69.6558 9.12C69.2158 9.12 68.8824 8.98 68.6558 8.7C68.4291 8.42 68.3158 8.09333 68.3158 7.72C68.3158 7.34667 68.4091 7.04 68.5958 6.8C68.7824 6.54667 69.0424 6.32 69.3758 6.12C69.7091 5.89333 70.1358 5.71333 70.6558 5.58C71.1758 5.44667 71.7424 5.38 72.3558 5.38C72.9424 5.38 73.4624 5.44667 73.9158 5.58C74.3691 5.7 74.7558 5.92 75.0758 6.24C75.3958 6.54667 75.6024 6.92667 75.6958 7.38C75.7891 7.83333 75.8358 8.38667 75.8358 9.04V14.52C75.8358 14.8533 75.8758 15.0933 75.9558 15.24C76.0358 15.3733 76.1624 15.44 76.3358 15.44C76.4691 15.44 76.5958 15.4067 76.7158 15.34C76.8358 15.2733 76.9691 15.18 77.1158 15.06L77.3358 15.4C77.0424 15.6267 76.7358 15.8067 76.4158 15.94C76.0958 16.0733 75.7091 16.14 75.2558 16.14C74.7891 16.14 74.4158 16.0733 74.1358 15.94C73.8691 15.8067 73.6691 15.6133 73.5358 15.36C73.4158 15.1067 73.3491 14.8067 73.3358 14.46C73.0158 14.9933 72.6224 15.4067 72.1558 15.7C71.6891 15.9933 71.1291 16.14 70.4758 16.14ZM71.6758 15.02C71.9958 15.02 72.2891 14.9333 72.5558 14.76C72.8358 14.5867 73.0891 14.3267 73.3158 13.98V9.94C73.1824 10.14 72.9891 10.32 72.7358 10.48C72.4958 10.64 72.2358 10.8 71.9558 10.96C71.6758 11.12 71.4091 11.3067 71.1558 11.52C70.9158 11.72 70.7091 11.9733 70.5358 12.28C70.3758 12.5733 70.2958 12.9533 70.2958 13.42C70.2958 13.94 70.4224 14.34 70.6758 14.62C70.9291 14.8867 71.2624 15.02 71.6758 15.02ZM87.6344 5.66V6.08C87.381 6.13333 87.141 6.27333 86.9144 6.5C86.701 6.72667 86.4944 7.12667 86.2944 7.7L83.2344 16.06C83.0744 16.0467 82.9144 16.04 82.7544 16.04C82.5944 16.04 82.4277 16.0467 82.2544 16.06L78.6544 7.2C78.4544 6.69333 78.2477 6.38 78.0344 6.26C77.821 6.14 77.641 6.08 77.4944 6.08V5.66C77.8677 5.68667 78.2544 5.71333 78.6544 5.74C79.0544 5.75333 79.4944 5.76 79.9744 5.76C80.3877 5.76 80.821 5.75333 81.2744 5.74C81.741 5.71333 82.1744 5.68667 82.5744 5.66V6.08C82.281 6.08 82.0144 6.1 81.7744 6.14C81.5477 6.18 81.3944 6.28667 81.3144 6.46C81.2344 6.62 81.2677 6.90667 81.4144 7.32L83.8144 13.54L83.6344 13.76L85.4544 8.82C85.681 8.19333 85.7744 7.68667 85.7344 7.3C85.6944 6.91333 85.5477 6.62 85.2944 6.42C85.0544 6.22 84.7077 6.10667 84.2544 6.08V5.66C84.481 5.67333 84.6944 5.68667 84.8944 5.7C85.1077 5.71333 85.3144 5.72667 85.5144 5.74C85.7277 5.74 85.9277 5.74 86.1144 5.74C86.3944 5.74 86.6677 5.73333 86.9344 5.72C87.2144 5.70667 87.4477 5.68667 87.6344 5.66ZM91.0539 0.56C91.5339 0.56 91.9272 0.693333 92.2339 0.959999C92.5406 1.22667 92.6939 1.58 92.6939 2.02C92.6939 2.46 92.5406 2.81333 92.2339 3.08C91.9272 3.34667 91.5339 3.48 91.0539 3.48C90.5739 3.48 90.1806 3.34667 89.8739 3.08C89.5672 2.81333 89.4139 2.46 89.4139 2.02C89.4139 1.58 89.5672 1.22667 89.8739 0.959999C90.1806 0.693333 90.5739 0.56 91.0539 0.56ZM92.4539 5.44V14.14C92.4539 14.7 92.5539 15.08 92.7539 15.28C92.9672 15.48 93.3206 15.58 93.8139 15.58V16C93.5739 15.9867 93.2072 15.9733 92.7139 15.96C92.2206 15.9333 91.7206 15.92 91.2139 15.92C90.7206 15.92 90.2206 15.9333 89.7139 15.96C89.2072 15.9733 88.8272 15.9867 88.5739 16V15.58C89.0672 15.58 89.4139 15.48 89.6139 15.28C89.8272 15.08 89.9339 14.7 89.9339 14.14V7.86C89.9339 7.24667 89.8339 6.8 89.6339 6.52C89.4472 6.22667 89.0939 6.08 88.5739 6.08V5.66C89.0006 5.7 89.4139 5.72 89.8139 5.72C90.3072 5.72 90.7739 5.7 91.2139 5.66C91.6672 5.60667 92.0806 5.53333 92.4539 5.44Z" fill="#1BAB84"/>
</svg>
