<svg width="30" height="30" viewBox="0 0 30 30" fill="none" xmlns="http://www.w3.org/2000/svg">
<g clip-path="url(#clip0_901_55)">
<path d="M29.8089 17.3725C31.1206 9.19269 25.5529 1.49837 17.3731 0.186721C9.19331 -1.12493 1.49899 4.44278 0.187334 12.6226C-1.12432 20.8023 4.4434 28.4967 12.6232 29.8083C20.8029 31.12 28.4973 25.5522 29.8089 17.3725Z" fill="#23292F"/>
<path d="M22.4268 6.30615H25.4618L19.1473 12.5595C18.0441 13.6485 16.5564 14.2591 15.0062 14.2591C13.4561 14.2591 11.9684 13.6485 10.8651 12.5595L4.54248 6.30615H7.58159L12.3765 11.0563C13.0756 11.7459 14.0181 12.1326 15.0001 12.1326C15.9821 12.1326 16.9246 11.7459 17.6237 11.0563L22.4268 6.30615Z" fill="white"/>
<path d="M7.54082 23.6934H4.50171L10.857 17.4034C11.9602 16.3144 13.4479 15.7039 14.998 15.7039C16.5482 15.7039 18.0359 16.3144 19.1391 17.4034L25.4985 23.6934H22.4634L17.6237 18.9026C16.9246 18.2129 15.9821 17.8263 15.0001 17.8263C14.0181 17.8263 13.0756 18.2129 12.3765 18.9026L7.54082 23.6934Z" fill="white"/>
</g>
<defs>
<clipPath id="clip0_901_55">
<rect width="29.9959" height="30" fill="white"/>
</clipPath>
</defs>
</svg>
