<svg width="30" height="30" viewBox="0 0 30 30" fill="none" xmlns="http://www.w3.org/2000/svg">
<g clip-path="url(#clip0_901_70)">
<path d="M15 0C17.9667 0 20.8668 0.879735 23.3336 2.52796C25.8003 4.17618 27.7229 6.51886 28.8582 9.25975C29.9935 12.0006 30.2906 15.0166 29.7118 17.9264C29.133 20.8361 27.7044 23.5088 25.6066 25.6066C23.5088 27.7044 20.8361 29.133 17.9264 29.7118C15.0166 30.2906 12.0006 29.9935 9.25975 28.8582C6.51886 27.7229 4.17618 25.8003 2.52796 23.3336C0.879735 20.8668 0 17.9667 0 15C0.00107993 11.0221 1.58178 7.2074 4.39459 4.39459C7.2074 1.58178 11.0221 0.00107993 15 0Z" fill="#53AE94"/>
<path d="M16.8494 12.9997V10.7713H21.954V7.36963H8.058V10.7713H13.1626V12.9997C9.01536 13.1912 5.89478 14.01 5.89478 14.9959C5.89478 15.9818 9.01536 16.8006 13.1626 16.9921V24.1418H16.8291V16.9921C20.9722 16.8006 24.0846 15.9818 24.0846 14.9959C24.0846 14.01 20.9722 13.1953 16.8291 13.0038M16.8291 16.3851C16.7272 16.3851 16.1935 16.4258 14.9999 16.4258C14.0466 16.4258 13.3703 16.3973 13.1422 16.3851C9.47571 16.2222 6.74214 15.5703 6.74214 14.8207C6.74214 14.0712 9.50015 13.4438 13.1626 13.2604V15.7537C13.4029 15.7537 14.0873 15.8107 15.0365 15.8107C16.1732 15.8107 16.7476 15.7618 16.8535 15.7537V13.2604C20.52 13.4234 23.2373 14.0752 23.2373 14.8248C23.2373 15.5744 20.5078 16.2222 16.8535 16.3851" fill="white"/>
</g>
<defs>
<clipPath id="clip0_901_70">
<rect width="29.9959" height="30" fill="white"/>
</clipPath>
</defs>
</svg>
