<svg width="63" height="63" viewBox="0 0 63 63" fill="none" xmlns="http://www.w3.org/2000/svg">
<path d="M54.3628 9.59305C54.3628 9.59305 59.4623 7.60461 59.0373 12.4337C58.8957 14.4221 57.6208 21.3817 56.6293 28.9094L53.2296 51.2084C53.2296 51.2084 52.9464 54.475 50.3966 55.0432C47.8468 55.6113 44.0223 53.0548 43.3139 52.4866C42.7473 52.0606 32.6902 45.6691 29.1488 42.5444C28.1572 41.6922 27.024 39.9878 29.2904 37.9994L44.1639 23.7963C45.8637 22.0919 47.5636 18.115 40.4809 22.9441L20.6497 36.4371C20.6497 36.4371 18.3833 37.8574 14.1338 36.5791L4.92637 33.7385C4.92637 33.7385 1.52671 31.608 7.33445 29.4774C21.4997 22.8019 38.9228 15.9844 54.3628 9.59305Z" fill="#005EFF" fill-opacity="0.6"/>
</svg>
