<svg width="140" height="140" viewBox="0 0 140 140" fill="none" xmlns="http://www.w3.org/2000/svg">
<g clip-path="url(#clip0_301_7914)">
<path fill-rule="evenodd" clip-rule="evenodd" d="M22.3011 60.8854C31.4145 55.057 43.159 54.849 53.7356 57.1207C62.474 58.9976 67.0412 68.3416 75.0917 72.2239C84.4137 76.7193 97.2047 73.518 103.973 81.3472C111.19 89.6945 114.142 102.643 110.347 113.004C106.628 123.16 94.8565 127.295 85.2946 132.349C77.8299 136.295 69.8742 139.474 61.4543 138.846C53.872 138.282 47.914 133.101 41.4587 129.084C35.1801 125.176 29.4722 121.15 24.3886 115.779C16.4613 107.404 4.09616 100.671 3.65795 89.1474C3.21833 77.5869 12.555 67.1184 22.3011 60.8854Z" fill="#2666FF" fill-opacity="0.15"/>
<path fill-rule="evenodd" clip-rule="evenodd" d="M50.3363 20.5191C59.4496 14.6907 71.1942 14.4827 81.7707 16.7544C90.5092 18.6312 95.0763 27.9753 103.127 31.8575C112.449 36.353 125.24 33.1517 132.008 40.9809C139.225 49.3281 142.177 62.2768 138.382 72.638C134.663 82.7937 122.892 86.9289 113.33 91.9828C105.865 95.9282 97.9093 99.1073 89.4894 98.4801C81.9072 97.9153 75.9491 92.7347 69.4939 88.7173C63.2153 84.8099 57.5074 80.7834 52.4237 75.4126C44.4965 67.0375 32.1313 60.3046 31.6931 48.781C31.2535 37.2206 40.5901 26.7521 50.3363 20.5191Z" fill="#2666FF" fill-opacity="0.15"/>
<path d="M16 38L43 58L66.4286 75.3545C68.5502 76.9261 71.4498 76.9261 73.5714 75.3545L97 58L124 38V102H16V38Z" fill="#2666FF" fill-opacity="0.6"/>
<path d="M124 38H16L43 58L66.4286 75.3545C68.5502 76.9261 71.4498 76.9261 73.5714 75.3545L97 58L124 38Z" fill="#2666FF" fill-opacity="0.6"/>
<path d="M16 38V102M16 38L43 58M16 38H104M124 102H16M124 102L97 58M124 102V58M16 102L43 58M43 58L66.4286 75.3545C68.5502 76.9261 71.4498 76.9261 73.5714 75.3545L97 58M97 58L107.8 50" stroke="white" stroke-width="2" stroke-linejoin="round"/>
<circle cx="124" cy="38" r="15" fill="#01142C" stroke="white" stroke-width="2"/>
<path fill-rule="evenodd" clip-rule="evenodd" d="M136.548 38L116.938 28.8486L121.899 38L116.938 47.1514L136.548 38Z" fill="white"/>
<line x1="3.84766" y1="109.952" x2="28.7275" y2="109.952" stroke="white" stroke-width="2"/>
<line y1="22.9297" x2="24.8799" y2="22.9297" stroke="white" stroke-width="2"/>
<line y1="115.07" x2="57.3535" y2="115.07" stroke="white" stroke-width="2"/>
<line x1="3.84766" y1="28.0486" x2="38.0508" y2="28.0486" stroke="white" stroke-width="2"/>
</g>
<defs>
<clipPath id="clip0_301_7914">
<rect width="140" height="140" fill="white"/>
</clipPath>
</defs>
</svg>
