<svg width="49" height="49" viewBox="0 0 49 49" fill="none" xmlns="http://www.w3.org/2000/svg">
<circle cx="24.5" cy="24.5" r="24.5" fill="#1BAC85" fill-opacity="0.7"/>
<path d="M24.1641 33.2461C22.7578 33.2461 21.5234 33.0117 20.4609 32.543C19.4062 32.0742 18.5898 31.3906 18.0117 30.4922C17.4336 29.5859 17.1445 28.4844 17.1445 27.1875V18.5273L15.3516 18.1641V15.9375H22.6875V18.1641L20.8945 18.5273V27.1875C20.8945 27.9062 21.0234 28.5039 21.2812 28.9805C21.5391 29.457 21.9102 29.8125 22.3945 30.0469C22.8867 30.2812 23.4727 30.3984 24.1523 30.3984C24.8555 30.3984 25.4531 30.2812 25.9453 30.0469C26.4375 29.8125 26.8086 29.457 27.0586 28.9805C27.3164 28.5039 27.4453 27.9062 27.4453 27.1875V18.5273L25.6641 18.1641V15.9375H33V18.1641L31.1953 18.5273V27.1875C31.1953 28.4688 30.8984 29.5625 30.3047 30.4688C29.7188 31.375 28.8984 32.0664 27.8438 32.543C26.7969 33.0117 25.5703 33.2461 24.1641 33.2461Z" fill="white"/>
</svg>
