<svg width="16" height="13" viewBox="0 0 16 13" fill="none" xmlns="http://www.w3.org/2000/svg">
<path d="M0.90625 5.92188V2.71875C1.39583 2.1875 1.98438 1.77083 2.67188 1.46875C3.36979 1.15625 4.05729 0.994792 4.73438 0.984375C5.56771 0.973958 6.22396 1.08333 6.70312 1.3125C7.18229 1.54167 7.75521 1.81771 8.42188 2.14062C9.03646 2.45312 9.56771 2.71354 10.0156 2.92188C10.4635 3.13021 11.0729 3.23438 11.8438 3.23438C12.5312 3.23438 13.1979 3.05729 13.8438 2.70312C14.5 2.34896 15.0781 1.85417 15.5781 1.21875V4.4375C15.0781 4.96875 14.5052 5.38542 13.8594 5.6875C13.2135 5.98958 12.5469 6.14062 11.8594 6.14062C11.0885 6.14062 10.4792 6.04167 10.0312 5.84375C9.58333 5.63542 9.05208 5.375 8.4375 5.0625C7.77083 4.73958 7.19271 4.46875 6.70312 4.25C6.22396 4.03125 5.56771 3.92188 4.73438 3.92188C4.05729 3.92188 3.36979 4.09896 2.67188 4.45312C1.98438 4.80729 1.39583 5.29688 0.90625 5.92188ZM0.890625 12.6406V9.4375C1.38021 8.89583 1.96875 8.47917 2.65625 8.1875C3.35417 7.88542 4.04167 7.72917 4.71875 7.71875C5.55208 7.70833 6.20833 7.81771 6.6875 8.04688C7.16667 8.26562 7.73958 8.54167 8.40625 8.875C9.02083 9.1875 9.55208 9.44792 10 9.65625C10.4479 9.85417 11.0573 9.95312 11.8281 9.95312C12.5156 9.95312 13.1823 9.77604 13.8281 9.42188C14.4844 9.06771 15.0625 8.57292 15.5625 7.9375V11.1562C15.0625 11.6979 14.4896 12.1198 13.8438 12.4219C13.1979 12.724 12.5312 12.875 11.8438 12.875C11.0729 12.875 10.4635 12.776 10.0156 12.5781C9.56771 12.3698 9.03646 12.1094 8.42188 11.7969C7.75521 11.474 7.17708 11.2031 6.6875 10.9844C6.20833 10.7552 5.55208 10.6406 4.71875 10.6406C4.04167 10.6406 3.35417 10.8177 2.65625 11.1719C1.96875 11.526 1.38021 12.0156 0.890625 12.6406Z" fill="#2666FF"/>
</svg>
