<svg width="20" height="21" viewBox="0 0 20 21" fill="none" xmlns="http://www.w3.org/2000/svg">
<path d="M7.9 3.39077C6.48867 2.71694 4.51602 2.38686 1.875 2.37514C1.62593 2.37176 1.38174 2.44439 1.175 2.58335C1.00531 2.69805 0.866403 2.85268 0.770498 3.03366C0.674593 3.21464 0.62463 3.41642 0.625002 3.62124V14.797C0.625002 15.5525 1.1625 16.1224 1.875 16.1224C4.65117 16.1224 7.43594 16.3818 9.10391 17.9583C9.12673 17.98 9.15541 17.9945 9.18639 18C9.21737 18.0055 9.24928 18.0018 9.27816 17.9893C9.30704 17.9768 9.33162 17.9561 9.34883 17.9298C9.36605 17.9034 9.37515 17.8726 9.375 17.8412V4.6728C9.37507 4.58395 9.35606 4.49613 9.31927 4.41526C9.28247 4.33439 9.22875 4.26237 9.16172 4.20405C8.77965 3.87742 8.35525 3.60386 7.9 3.39077ZM18.825 2.58217C18.6182 2.44356 18.374 2.37134 18.125 2.37514C15.484 2.38686 13.5113 2.71538 12.1 3.39077C11.6448 3.60347 11.2203 3.8765 10.8379 4.20249C10.771 4.26091 10.7174 4.33296 10.6807 4.41381C10.644 4.49466 10.625 4.58244 10.625 4.67124V17.8404C10.625 17.8706 10.6339 17.9002 10.6506 17.9254C10.6673 17.9506 10.6911 17.9703 10.719 17.982C10.7469 17.9937 10.7776 17.9969 10.8073 17.9913C10.837 17.9856 10.8643 17.9713 10.8859 17.9501C11.8887 16.954 13.6484 16.1212 18.1266 16.1216C18.4581 16.1216 18.776 15.9899 19.0104 15.7555C19.2449 15.5211 19.3766 15.2031 19.3766 14.8716V3.62163C19.377 3.4164 19.3269 3.21422 19.2307 3.03294C19.1346 2.85165 18.9952 2.69684 18.825 2.58217Z" fill="white"/>
</svg>
