<svg width="20" height="21" viewBox="0 0 20 21" fill="none" xmlns="http://www.w3.org/2000/svg">
<path d="M14.375 8H7.5V4.875C7.5 4.21196 7.76339 3.57607 8.23223 3.10723C8.70107 2.63839 9.33696 2.375 10 2.375C10.663 2.375 11.2989 2.63839 11.7678 3.10723C12.2366 3.57607 12.5 4.21196 12.5 4.875C12.5 5.04076 12.5658 5.19973 12.6831 5.31694C12.8003 5.43415 12.9592 5.5 13.125 5.5C13.2908 5.5 13.4497 5.43415 13.5669 5.31694C13.6842 5.19973 13.75 5.04076 13.75 4.875C13.75 3.88044 13.3549 2.92661 12.6517 2.22335C11.9484 1.52009 10.9946 1.125 10 1.125C9.00544 1.125 8.05161 1.52009 7.34835 2.22335C6.64509 2.92661 6.25 3.88044 6.25 4.875V8H5.625C4.96218 8.00072 4.32672 8.26435 3.85803 8.73303C3.38935 9.20172 3.12572 9.83718 3.125 10.5V17.375C3.12572 18.0378 3.38935 18.6733 3.85803 19.142C4.32672 19.6107 4.96218 19.8743 5.625 19.875H14.375C15.0378 19.8743 15.6733 19.6107 16.142 19.142C16.6107 18.6733 16.8743 18.0378 16.875 17.375V10.5C16.8743 9.83718 16.6107 9.20172 16.142 8.73303C15.6733 8.26435 15.0378 8.00072 14.375 8Z" fill="white"/>
</svg>
