<svg width="20" height="21" viewBox="0 0 20 21" fill="none" xmlns="http://www.w3.org/2000/svg">
<path fill-rule="evenodd" clip-rule="evenodd" d="M3.35605 4.17526H3.34766C3.28841 4.18659 3.22978 4.19996 3.17183 4.2153C1.68509 4.58765 1.25 5.93471 1.25 6.75024V7.69085C1.23717 7.79295 1.23058 7.89627 1.23047 8.00026V15.5003C1.23119 16.1631 1.49482 16.7985 1.9635 17.2672C2.43219 17.7359 3.06765 17.9995 3.73047 18.0003H16.2305C16.8933 17.9995 17.5288 17.7359 17.9974 17.2672C18.4661 16.7985 18.7297 16.1631 18.7305 15.5003V8.00026C18.7297 7.33744 18.4661 6.70198 17.9974 6.23329C17.5288 5.76461 16.8933 5.50098 16.2305 5.50026H6.25535C6.25358 5.50025 6.25179 5.50024 6.25 5.50024C5.58874 5.50024 5.51621 4.69892 6.0773 4.56276H16.2305C16.3765 4.56269 16.5224 4.57196 16.6672 4.5905C16.6181 4.24588 16.4997 3.91477 16.3192 3.61713C16.1387 3.3195 15.8998 3.0615 15.6168 2.8587C15.3339 2.6559 15.0129 2.51249 14.673 2.43713C14.3332 2.36176 13.9816 2.356 13.6395 2.42018L3.76738 4.1056C3.63134 4.12642 3.49378 4.14956 3.35605 4.17526ZM13.6805 12.7896C13.8861 12.927 14.1278 13.0003 14.375 13.0003C14.7065 13.0003 15.0245 12.8686 15.2589 12.6341C15.4933 12.3997 15.625 12.0818 15.625 11.7503C15.625 11.503 15.5517 11.2614 15.4143 11.0558C15.277 10.8502 15.0818 10.69 14.8534 10.5954C14.6249 10.5008 14.3736 10.476 14.1311 10.5243C13.8887 10.5725 13.6659 10.6916 13.4911 10.8664C13.3163 11.0412 13.1972 11.2639 13.149 11.5064C13.1008 11.7489 13.1255 12.0002 13.2201 12.2286C13.3148 12.457 13.475 12.6522 13.6805 12.7896Z" fill="white"/>
</svg>
