<svg width="1920" height="813" viewBox="0 0 1920 813" fill="none" xmlns="http://www.w3.org/2000/svg">
<g filter="url(#filter0_bdd_166_9573)">
<ellipse cx="960" cy="642" rx="1790" ry="617" fill="url(#paint0_linear_166_9573)" fill-opacity="0.3" shape-rendering="crispEdges"/>
<path d="M2749.5 642C2749.5 726.978 2699.54 808.008 2609.02 881.777C2518.5 955.543 2387.49 1022 2225.56 1077.81C1901.7 1189.44 1454.25 1258.5 960 1258.5C465.745 1258.5 18.303 1189.44 -305.558 1077.81C-467.491 1022 -598.501 955.543 -689.017 881.777C-779.537 808.008 -829.5 726.978 -829.5 642C-829.5 557.022 -779.537 475.992 -689.017 402.223C-598.501 328.457 -467.491 262.005 -305.558 206.188C18.303 94.5552 465.745 25.5 960 25.5C1454.25 25.5 1901.7 94.5552 2225.56 206.188C2387.49 262.005 2518.5 328.457 2609.02 402.223C2699.54 475.992 2749.5 557.022 2749.5 642Z" stroke="url(#paint1_linear_166_9573)" stroke-opacity="0.6" shape-rendering="crispEdges"/>
</g>
<defs>
<filter id="filter0_bdd_166_9573" x="-930" y="-75" width="3780" height="1434" filterUnits="userSpaceOnUse" color-interpolation-filters="sRGB">
<feFlood flood-opacity="0" result="BackgroundImageFix"/>
<feGaussianBlur in="BackgroundImageFix" stdDeviation="50"/>
<feComposite in2="SourceAlpha" operator="in" result="effect1_backgroundBlur_166_9573"/>
<feColorMatrix in="SourceAlpha" type="matrix" values="0 0 0 0 0 0 0 0 0 0 0 0 0 0 0 0 0 0 127 0" result="hardAlpha"/>
<feMorphology radius="25" operator="erode" in="SourceAlpha" result="effect2_dropShadow_166_9573"/>
<feOffset/>
<feGaussianBlur stdDeviation="25"/>
<feComposite in2="hardAlpha" operator="out"/>
<feColorMatrix type="matrix" values="0 0 0 0 0 0 0 0 0 0 0 0 0 0 0 0 0 0 0.5 0"/>
<feBlend mode="normal" in2="effect1_backgroundBlur_166_9573" result="effect2_dropShadow_166_9573"/>
<feColorMatrix in="SourceAlpha" type="matrix" values="0 0 0 0 0 0 0 0 0 0 0 0 0 0 0 0 0 0 127 0" result="hardAlpha"/>
<feOffset dy="4"/>
<feGaussianBlur stdDeviation="12"/>
<feComposite in2="hardAlpha" operator="out"/>
<feColorMatrix type="matrix" values="0 0 0 0 0.00392157 0 0 0 0 0.262745 0 0 0 0 0.168627 0 0 0 0.18 0"/>
<feBlend mode="normal" in2="effect2_dropShadow_166_9573" result="effect3_dropShadow_166_9573"/>
<feBlend mode="normal" in="SourceGraphic" in2="effect3_dropShadow_166_9573" result="shape"/>
</filter>
<linearGradient id="paint0_linear_166_9573" x1="-830" y1="25" x2="1605.4" y2="2421.96" gradientUnits="userSpaceOnUse">
<stop stop-color="white" stop-opacity="0.8"/>
<stop offset="1" stop-color="white" stop-opacity="0.2"/>
</linearGradient>
<linearGradient id="paint1_linear_166_9573" x1="-830" y1="25" x2="1605.4" y2="2421.96" gradientUnits="userSpaceOnUse">
<stop stop-color="#FFF3A6" stop-opacity="0.53"/>
<stop offset="0.364583" stop-color="white" stop-opacity="0.9"/>
<stop offset="0.739583" stop-color="white" stop-opacity="0.5"/>
<stop offset="1" stop-color="#0DDCAA" stop-opacity="0.41"/>
<stop offset="1" stop-color="#00674C" stop-opacity="0.49"/>
</linearGradient>
</defs>
</svg>
