<svg width="24" height="24" viewBox="0 0 24 24" fill="none" xmlns="http://www.w3.org/2000/svg">
<g clip-path="url(#clip0_301_10690)">
<mask id="mask0_301_10690" style="mask-type:luminance" maskUnits="userSpaceOnUse" x="0" y="0" width="24" height="24">
<path d="M24 0H0V24H24V0Z" fill="white"/>
</mask>
<g mask="url(#mask0_301_10690)">
<path fill-rule="evenodd" clip-rule="evenodd" d="M4 4C6.24813 1.75037 8.81812 0 12 0C15.1819 0 17.7518 1.75037 20 4C22.25 6.24962 24 8.81869 24 12C24 15.1813 22.25 17.7504 20 20C17.7518 22.2496 15.1819 24 12 24C8.81812 24 6.24813 22.2496 4 20C1.75 17.7504 0 15.1813 0 12C0.000623381 8.81734 1.74956 6.25052 4 4ZM12.024 9.40984C10.711 9.95868 8.69711 10.8005 6 12C5.67338 12.1327 5.39981 12.0394 5.2216 11.9786C5.09057 11.9339 5.0111 11.9068 5 12C4.94763 12.4227 5.25181 12.7511 6 13C6.27581 13.0914 6.62282 13.3018 6.95985 13.5062C7.37025 13.755 7.76583 13.9949 8 14C8.21606 14.0048 8.35345 13.7992 8.5146 13.558C8.64363 13.3649 8.7879 13.149 9 13C12.2622 10.7529 14.8934 10.0244 15 10C14.956 10.1957 13.3531 11.7137 12.5053 12.5166C12.2357 12.7719 12.0424 12.9549 12 13C11.8191 13.1919 11.5778 13.3676 11.3447 13.5375C10.7101 13.9998 10.1355 14.4185 11 15C11.5611 15.3773 12.0922 15.7301 12.6312 16.0882C13.0751 16.3831 13.5244 16.6815 14 17C14.1426 17.0954 14.2833 17.1982 14.4231 17.3003C14.9434 17.6804 15.4515 18.0515 16 18C16.3198 17.9701 16.8335 17.9159 17 17C17.3535 15.0702 17.7288 10.9641 17.9333 8.72653C17.9582 8.45426 17.9805 8.20965 18 8C18.0169 7.8308 18.015 7.0951 18 7C17.8857 6.9057 17.3858 6.95999 17.1346 6.98728C17.0691 6.99439 17.0205 6.99967 17 7C16.8254 7.00322 16.6849 7.09216 16.3851 7.28197C15.9108 7.58224 15.0377 8.13495 13 9C12.7356 9.11236 12.4101 9.24843 12.024 9.40984Z" fill="white"/>
</g>
</g>
<defs>
<clipPath id="clip0_301_10690">
<rect width="24" height="24" fill="white"/>
</clipPath>
</defs>
</svg>
