<svg width="25" height="24" viewBox="0 0 25 24" fill="none" xmlns="http://www.w3.org/2000/svg">
<g clip-path="url(#clip0_301_10713)">
<mask id="mask0_301_10713" style="mask-type:luminance" maskUnits="userSpaceOnUse" x="0" y="0" width="26" height="24">
<path d="M25.001 0H0.000976562V24H25.001V0Z" fill="white"/>
</mask>
<g mask="url(#mask0_301_10713)">
<path d="M20.001 11C21.8538 11 22.9725 10.3819 24.001 9L23.001 8C22.6614 8.46016 22.5044 8.74397 22.001 9C21.4974 9.25603 20.5627 9.00194 20.001 9C17.9902 9 17.001 8.06709 17.001 6C17.001 3.93289 17.9091 2 20.001 2C20.9309 2 21.4277 1.63475 22.001 2V4H24.001V1C23.0501 0.230676 21.2147 0 20.001 0C17.0337 0 15.001 2.94859 15.001 6C15.001 9.04851 17.0323 11 20.001 11ZM24.001 22V19V13H20.001V15H22.001V19C22.001 20.8169 20.3622 22 19.001 22C17.6397 22 17.001 21.8162 17.001 20V13H14.001V15H15.001V20C15.001 22.4647 16.6042 24 19.001 24C20.3783 24 21.3752 23.2115 22.001 22V24H25.001V22H24.001ZM14.001 0H11.001L9.00098 8L6.00098 0H3.00098V2H5.00098L8.00098 11H9.00098L13.001 2H14.001V0ZM0.000976562 24H2.00098V22H0.000976562V24ZM7.00098 15V13H4.00098V15H5.00098V22H4.00098V24H11.001V22H7.00098V18C7.19884 16.4398 8.44883 15 10.001 15V16H12.001V13H10.001C8.43485 12.9957 7.69177 13.7734 7.00098 15Z" fill="white"/>
</g>
</g>
<defs>
<clipPath id="clip0_301_10713">
<rect width="25" height="24" fill="white" transform="translate(0.000976562)"/>
</clipPath>
</defs>
</svg>
