<svg width="24" height="24" viewBox="0 0 24 24" fill="none" xmlns="http://www.w3.org/2000/svg">
<g clip-path="url(#clip0_301_10706)">
<mask id="mask0_301_10706" style="mask-type:luminance" maskUnits="userSpaceOnUse" x="0" y="0" width="24" height="24">
<path d="M24 0H0V24H24V0Z" fill="white"/>
</mask>
<g mask="url(#mask0_301_10706)">
<path d="M12 0C5.64864 0 0 5.64862 0 12C0 18.3513 5.64864 23 12 23C18.3514 23 23 18.3513 23 12C23 5.64862 18.3514 0 12 0ZM16 13C16 13 16.7496 13.534 17 14C16.9976 13.9952 17.0072 14.0096 17 14C17.1018 14.1713 17.0503 14.9006 17 15C16.9161 15.1653 17.0982 14.9928 17 15H15C14.8754 15 14.3162 15.218 14 15C13.7568 14.8299 14.2336 14.2719 14 14C13.6514 13.5951 13.3043 13 13 13C12.9614 12.9999 13.0367 12.988 13 13C12.77 13.0743 12 14.1255 12 15C12 15.2731 12.1521 15 12 15H11C10.7197 15 9.29375 15.3644 8 14C6.41635 12.3289 5.01198 9.03115 5 9C4.91016 8.78318 4.79755 8 5 8H7C7.24198 8 6.9449 8.86943 7 9C7.06469 9.15213 7.61068 9.31955 8 10C8.6313 11.1093 8.68974 12 9 12C8.94881 12.0277 9.05818 11.9993 9 12C9.40491 11.7748 10.018 10.2995 10 10C10 9.94367 10.2072 9.28271 10 9C9.85145 8.79516 9.15333 8.02875 9 8C8.90544 8.04737 9.06206 7.91436 9 8C9.27792 7.86104 9.50286 8 10 8H11C11.5391 8.00719 11.8047 7.95089 12 8C12.3953 8.09464 12.0347 8.12672 12 9C11.9892 9.24797 12 9.66938 12 10C12 9.91854 12 10.0719 12 10C11.988 10.4444 11.6861 10.7928 12 11C12.0409 11.0257 11.9517 11.9998 12 12C12.109 12 13.1111 11.5249 14 10C14.2741 9.50915 13.7995 8.52526 14 8C14.018 7.96885 14.9377 8.03714 15 8C14.9484 7.99938 15.0459 7.97656 15 8H17C16.9701 7.91016 17.2324 8 17 8C17.0527 8.14255 16.9739 8.68107 16 10V11C15.1171 12.1572 15.062 12.1219 16 13Z" fill="white"/>
</g>
</g>
<defs>
<clipPath id="clip0_301_10706">
<rect width="24" height="24" fill="white"/>
</clipPath>
</defs>
</svg>
