<svg width="24" height="24" viewBox="0 0 24 24" fill="none" xmlns="http://www.w3.org/2000/svg">
<g clip-path="url(#clip0_301_10699)">
<mask id="mask0_301_10699" style="mask-type:luminance" maskUnits="userSpaceOnUse" x="0" y="0" width="24" height="24">
<path d="M24 0H0V24H24V0Z" fill="white"/>
</mask>
<g mask="url(#mask0_301_10699)">
<path d="M13 11L11 10C10.7652 9.89099 10 9.74005 10 10V13C10 13.2599 10.7652 13.109 11 13L13 12C13.236 11.8898 13.2348 11.1102 13 11ZM12 0C5.64864 0 0 5.64862 0 12C0 18.3513 5.64864 23 12 23C18.3514 23 23 18.3513 23 12C23 5.64862 18.3514 0 12 0ZM12 16C6.11343 16 6 16.1412 6 12C6 7.85878 6.11343 7 12 7C17.8866 7 17 7.85878 17 12C17 16.1412 17.8866 16 12 16Z" fill="white"/>
</g>
</g>
<defs>
<clipPath id="clip0_301_10699">
<rect width="24" height="24" fill="white"/>
</clipPath>
</defs>
</svg>
